<?xml version="1.0" standalone="no"?>
<!DOCTYPE svg PUBLIC "-//W3C//DTD SVG 1.1//EN" "http://www.w3.org/Graphics/SVG/1.1/DTD/svg11.dtd" >
<svg xmlns="http://www.w3.org/2000/svg" xmlns:xlink="http://www.w3.org/1999/xlink" version="1.1">
<metadata>
Created by FontForge 20170731 at Thu Dec 30 03:09:34 2021
 By Aleksey,,,
</metadata>
<defs>
<font id="JHaebaragi-Light-KO" horiz-adv-x="1802" >
  <font-face 
    font-family="JHaebaragi-Light-KO"
    font-weight="200"
    font-stretch="normal"
    units-per-em="2048"
    panose-1="2 0 3 3 0 0 0 0 0 0"
    ascent="1638"
    descent="-410"
    x-height="1102"
    cap-height="1380"
    bbox="-10 -584.057 2050 1745"
    underline-thickness="102"
    underline-position="-307"
    unicode-range="U+0020-FFE6"
  />
<missing-glyph horiz-adv-x="757" 
 />
    <glyph glyph-name=".notdef" horiz-adv-x="757" 
 />
    <glyph glyph-name=".null" horiz-adv-x="0" 
 />
    <glyph glyph-name="nonmarkingreturn" horiz-adv-x="682" 
 />
    <glyph glyph-name="space" unicode=" " horiz-adv-x="757" 
 />
    <glyph glyph-name="exclam" unicode="!" horiz-adv-x="927" 
d="M526 457h-125l-30 1130h186zM358 59v205h211v-205h-211z" />
    <glyph glyph-name="quotedbl" unicode="&#x22;" horiz-adv-x="817" 
d="M588 1141h-88l-35 458h158zM317 1141h-88l-34 458h157z" />
    <glyph glyph-name="numbersign" unicode="#" horiz-adv-x="1226" 
d="M893 1042l-66 -417h187v-123h-205l-55 -361h-142l56 361h-219l-56 -361h-141l55 361h-174v123h193l65 417h-178v123h197l55 361h141l-55 -361h219l55 361h142l-56 -361h183v-123h-201zM532 1042l-65 -417h219l66 417h-220z" />
    <glyph glyph-name="dollar" unicode="$" horiz-adv-x="1191" 
d="M1057 514q-20 -155 -125.5 -244t-272.5 -104v-133h-122v133q-190 20 -295.5 134t-108.5 298h150q0 -264 254 -305v500q-48 13 -85 25t-75.5 29.5t-66.5 36.5t-53.5 45.5t-41.5 57t-25.5 71t-9.5 87.5q0 140 102 231t255 111v106h122v-106q161 -18 262 -114.5t101 -246.5
v-8h-148q1 103 -55 163.5t-160 78.5v-461q63 -19 112 -38t106 -50t94 -66t62.5 -86t25.5 -110q0 -25 -2 -35zM537 1360q-92 -16 -149.5 -67t-57.5 -134q0 -48 14.5 -84t45.5 -61.5t63 -41.5t84 -36v424zM659 760v-467q107 16 178.5 80t71.5 164q0 140 -250 223z" />
    <glyph glyph-name="percent" unicode="%" horiz-adv-x="1671" 
d="M1217 145q-141 0 -230.5 91.5t-89.5 232.5q0 143 89.5 234.5t230.5 91.5q142 0 231.5 -91.5t89.5 -234.5q0 -142 -89.5 -233t-231.5 -91zM565 141h-153l692 1385h153zM453 872q-140 0 -230 92t-90 234q0 141 89.5 232.5t230.5 91.5q142 0 231.5 -91t89.5 -233t-89.5 -234
t-231.5 -92zM1217 651q-78 0 -129.5 -51.5t-51.5 -130.5q0 -78 51.5 -129t129.5 -51q79 0 130.5 51t51.5 129q0 79 -51.5 130.5t-130.5 51.5zM453 1382q-79 0 -131 -52t-52 -132q0 -81 51.5 -132.5t131.5 -51.5q82 0 133 51t51 133q0 80 -51.5 132t-132.5 52z" />
    <glyph glyph-name="ampersand" unicode="&#x26;" horiz-adv-x="1427" 
d="M1112 178l-125 154q-191 -191 -416 -191q-108 0 -207.5 45.5t-165 133t-65.5 196.5q0 70 29 136.5t80.5 121.5t109 99t127.5 83q-86 102 -131 181.5t-45 169.5q0 91 51.5 158t129.5 98.5t169 31.5q145 0 249 -77.5t104 -214.5q0 -66 -25 -124t-71.5 -104.5t-98.5 -82.5
t-119 -70l293 -361q34 57 59.5 137t28.5 140h148q-29 -219 -142 -394l215 -266h-182zM651 1468q-78 0 -137 -40.5t-59 -118.5q0 -116 155 -285q250 115 250 276q0 81 -63.5 124.5t-145.5 43.5zM565 852q-52 -28 -96.5 -60t-88.5 -74.5t-69.5 -95t-25.5 -108.5
q0 -73 44.5 -129t109 -82.5t134.5 -26.5q183 0 328 162z" />
    <glyph glyph-name="quotesingle" unicode="'" horiz-adv-x="546" 
d="M317 1141h-88l-34 458h157z" />
    <glyph glyph-name="parenleft" unicode="(" horiz-adv-x="796" 
d="M492 -10q-297 449 -297 803q0 353 297 802h110q-246 -425 -246 -802q0 -378 246 -803h-110z" />
    <glyph glyph-name="parenright" unicode=")" horiz-adv-x="796" 
d="M305 -10h-110q243 426 243 803q0 376 -243 802h110q297 -449 297 -802q0 -354 -297 -803z" />
    <glyph glyph-name="asterisk" unicode="*" horiz-adv-x="1036" 
d="M786 1061l-223 133l12 -258h-112l12 258l-225 -133l-55 98l225 117l-219 119l57 100l217 -137l-12 250h112l-12 -250l215 137l56 -98l-218 -119l226 -119z" />
    <glyph glyph-name="plus" unicode="+" horiz-adv-x="1495" 
d="M829 760v-469h-163v469h-457v143h457v465h163v-465h457v-143h-457z" />
    <glyph glyph-name="comma" unicode="," horiz-adv-x="716" 
d="M299 -223l-47 59q66 19 96.5 69.5t30.5 117.5h-129v202h217v-151q0 -246 -168 -297z" />
    <glyph glyph-name="hyphen" unicode="-" horiz-adv-x="1495" 
d="M236 758v143h1024v-143h-1024z" />
    <glyph glyph-name="period" unicode="." horiz-adv-x="716" 
d="M250 -18v202h217v-202h-217z" />
    <glyph glyph-name="slash" unicode="/" horiz-adv-x="884" 
d="M274 27h-141l479 1568h140z" />
    <glyph glyph-name="zero" unicode="0" horiz-adv-x="1126" 
d="M561 133q-102 0 -186.5 43.5t-140 114t-93.5 163t-54.5 186.5t-16.5 189t16.5 189t54.5 186.5t93.5 162.5t140 113.5t186.5 43.5t187 -43t141 -113.5t95 -162.5t56 -186.5t17 -189.5t-17 -189.5t-56 -187t-95 -162.5t-141 -113.5t-187 -43.5zM561 1386q-61 0 -111 -28.5
t-82.5 -77t-56.5 -106.5t-37 -123t-18.5 -119t-5.5 -103q0 -60 7.5 -126.5t29 -146t54.5 -141t90.5 -103.5t129.5 -42t129.5 41.5t91 103.5t55 141t29.5 146t8 127q0 49 -6 103.5t-18.5 119.5t-37 122.5t-57.5 106t-83 77t-111 28.5z" />
    <glyph glyph-name="one" unicode="1" horiz-adv-x="1126" 
d="M489 150v987h-292v118q133 5 224.5 66.5t104.5 187.5h117v-1359h-154z" />
    <glyph glyph-name="two" unicode="2" horiz-adv-x="1126" 
d="M698 684q-20 -15 -62.5 -42.5t-62.5 -41.5q-12 -9 -37 -26.5t-43 -31.5t-34 -28q-121 -102 -158 -231h703v-129h-887q2 84 24 158t53 127.5t81.5 106.5t94.5 88t105 77q21 14 133 90q69 49 115 92q117 110 117 237q0 118 -70.5 197.5t-187.5 79.5q-120 0 -195.5 -82.5
t-83.5 -204.5h-147q8 186 128 302t306 116q181 0 300.5 -112.5t119.5 -292.5q0 -77 -24 -143.5t-72 -121.5t-96.5 -95.5t-119.5 -88.5z" />
    <glyph glyph-name="three" unicode="3" horiz-adv-x="1126" 
d="M139 1157q-1 176 119.5 278.5t302.5 102.5q168 0 292 -111t124 -276q0 -195 -201 -289q117 -62 181.5 -150.5t64.5 -199.5q0 -118 -67.5 -210.5t-171 -139.5t-220.5 -47q-122 0 -225.5 52t-167 148t-66.5 217h150q3 -126 91 -205t216 -79q120 0 203.5 76.5t83.5 195.5
q0 92 -53 156t-142 88q-64 18 -178 18v131q124 -5 180 23q71 31 113.5 93t42.5 138q0 106 -74.5 172t-181.5 66q-119 0 -193 -66t-75 -182h-148z" />
    <glyph glyph-name="four" unicode="4" horiz-adv-x="1126" 
d="M850 414v-264h-152v264h-628v178l620 917h160v-970h207v-125h-207zM698 1280l-491 -741h491v741z" />
    <glyph glyph-name="five" unicode="5" horiz-adv-x="1126" 
d="M555 115q-170 0 -291.5 99.5t-150.5 264.5h153q17 -104 98 -167.5t187 -63.5q137 0 214 93t77 230q0 140 -81 238t-220 98q-72 0 -137 -33t-109 -92l-148 2l105 715h706v-141h-573l-61 -400q140 82 266 82q125 0 223 -65t149.5 -170t51.5 -230q0 -201 -129 -330.5
t-330 -129.5z" />
    <glyph glyph-name="six" unicode="6" horiz-adv-x="1126" 
d="M586 115q-162 0 -279 99.5t-172 262.5q-39 118 -39 322q0 245 58 403q57 153 169.5 245.5t266.5 92.5q163 0 285.5 -102t150.5 -262h-152q-20 100 -98.5 165.5t-179.5 65.5q-66 0 -122 -29.5t-93.5 -76.5t-63.5 -107.5t-37.5 -121t-11.5 -118.5q0 -28 2 -65
q142 145 318 145q127 0 229 -63.5t157.5 -170t55.5 -233.5q0 -191 -127 -321.5t-317 -130.5zM580 891q-88 0 -154.5 -46.5t-98.5 -119t-32 -158.5q0 -133 76.5 -228t208.5 -95t209 95t77 228q0 135 -77 229.5t-209 94.5z" />
    <glyph glyph-name="seven" unicode="7" horiz-adv-x="1126" 
d="M496 147h-189q12 150 61.5 314.5t126 322t164 300.5t189.5 280h-731v139h893v-155q-85 -100 -175.5 -250t-167 -315t-125 -337t-46.5 -299z" />
    <glyph glyph-name="eight" unicode="8" horiz-adv-x="1126" 
d="M563 119q-75 0 -146.5 16t-135 49t-111 80t-75 113.5t-27.5 144.5q0 104 65 194.5t172 155.5q-86 56 -137 135.5t-51 166.5q0 116 65.5 200.5t164.5 124t214 39.5q85 0 164 -23.5t143 -67.5t102 -114.5t38 -158.5q0 -87 -50.5 -165.5t-136.5 -134.5q107 -66 172.5 -157.5
t65.5 -194.5q0 -97 -42.5 -175.5t-113.5 -127t-158.5 -74.5t-181.5 -26zM559 1411q-113 0 -195.5 -61.5t-82.5 -173.5q0 -75 42 -129.5t103.5 -78.5t132.5 -24t134 24t107 78.5t44 129.5q0 111 -85.5 173t-199.5 62zM561 799q-84 0 -157.5 -29.5t-123 -94t-49.5 -153.5
q0 -67 28.5 -121.5t75.5 -88t105 -51t121 -17.5t121.5 17.5t106 51t76 88t28.5 121.5q0 89 -50 153.5t-124 94t-158 29.5z" />
    <glyph glyph-name="nine" unicode="9" horiz-adv-x="1126" 
d="M977 453q-57 -153 -167.5 -244.5t-264.5 -91.5q-107 0 -203 45.5t-161 130t-79 190.5h156q17 -100 100 -167.5t185 -67.5q68 0 123.5 30t91 77.5t60 109.5t34.5 122.5t10 119.5q0 9 -0.5 19t-1.5 27.5t-2 34.5q-157 -163 -342 -163q-123 0 -221 65.5t-149.5 171
t-51.5 228.5q0 191 128 321.5t319 130.5q159 0 275 -95.5t171 -252.5q45 -126 45 -344q0 -243 -55 -397zM545 1411q-133 0 -210 -93.5t-77 -227.5t77.5 -229t209.5 -95t209 94.5t77 229.5q0 133 -77 227t-209 94z" />
    <glyph glyph-name="colon" unicode=":" horiz-adv-x="716" 
d="M250 1087v203h217v-203h-217zM250 369v202h217v-202h-217z" />
    <glyph glyph-name="semicolon" unicode=";" horiz-adv-x="716" 
d="M299 82l-47 59q66 19 96.5 69.5t30.5 117.5h-129v202h217v-151q0 -246 -168 -297zM250 1087v203h217v-203h-217z" />
    <glyph glyph-name="less" unicode="&#x3c;" horiz-adv-x="1021" 
d="M698 -39l-503 848l503 848l129 -64l-469 -784l469 -784z" />
    <glyph glyph-name="equal" unicode="=" horiz-adv-x="1495" 
d="M254 1004v145h987v-145h-987zM254 510v145h987v-145h-987z" />
    <glyph glyph-name="greater" unicode="&#x3e;" horiz-adv-x="1021" 
d="M322 -39l-127 64l467 784l-467 784l127 64l505 -848z" />
    <glyph glyph-name="question" unicode="?" horiz-adv-x="1236" 
d="M872 940q-4 -3 -27.5 -24.5t-29 -26.5t-25.5 -24.5t-26 -28t-20.5 -27.5t-19.5 -32.5t-13 -32.5t-10.5 -38t-2.5 -40v-207h-159v203q0 108 41.5 179t117.5 138q5 5 26.5 24t28 25t25 24t25 27t20 26t18.5 30.5t12.5 31t10 36t2.5 38.5q0 101 -77 161t-179 60
q-118 0 -188 -73.5t-68 -190.5h-159v21q0 180 118.5 284.5t302.5 104.5q80 0 155 -22.5t136 -64.5t98 -109.5t37 -149.5q0 -58 -13.5 -106.5t-40.5 -88.5t-52 -66t-64 -61zM512 63v205h211v-205h-211z" />
    <glyph glyph-name="at" unicode="@" horiz-adv-x="1900" 
d="M1491 399q-81 -43 -162 -43q-143 0 -229 129q-158 -129 -293 -129q-117 0 -190.5 95.5t-73.5 218.5q0 107 53 214.5t139 178.5q60 49 135.5 82t145.5 33q125 0 190 -136l31 117h145l-147 -532q0 -4 -1 -16.5t-1 -16.5q0 -44 23 -75.5t69 -31.5q30 0 82 25q18 10 29 14
q4 2 8 4.5t9.5 7t10.5 7.5q80 53 120 140t40 187q0 121 -51 230.5t-135 186.5t-196.5 122t-231.5 45q-144 0 -278 -62.5t-230.5 -165t-154.5 -239t-58 -278.5q0 -113 37.5 -205.5t101 -156t150.5 -107t183.5 -63t201.5 -19.5q185 0 348 59l47 -127q-184 -84 -402 -84
q-123 0 -242 28t-224 86t-184.5 138t-126 191.5t-46.5 240.5q0 176 67.5 340.5t182 286.5t275 195t337.5 73q212 0 402 -102q163 -89 266.5 -264.5t103.5 -360.5q0 -151 -72 -270.5t-204 -190.5zM995 1057q-66 0 -123.5 -36.5t-93.5 -93t-56 -121t-20 -124.5
q0 -82 46 -139.5t129 -57.5q59 0 112 43.5t87 107t53.5 130.5t19.5 119q0 75 -39.5 123.5t-114.5 48.5z" />
    <glyph glyph-name="A" unicode="A" horiz-adv-x="1214" 
d="M1063 168l-135 334h-643l-135 -334h-160l516 1327h201l518 -1327h-162zM606 1350l-264 -707h528z" />
    <glyph glyph-name="B" unicode="B" horiz-adv-x="1175" 
d="M1085 389q-60 -111 -173.5 -166t-249.5 -55h-529v1329h543q102 0 189.5 -36.5t144.5 -113t57 -178.5q0 -180 -186 -286q114 -53 178.5 -141t64.5 -197q0 -83 -39 -156zM643 1358h-356v-422h354q102 0 181 59t79 160q0 52 -23 92.5t-61.5 64t-82.5 35t-91 11.5zM662 797
h-375v-488h370q55 0 107 15t96 44t71 77t27 108q0 79 -46 136t-111.5 82.5t-138.5 25.5z" />
    <glyph glyph-name="C" unicode="C" horiz-adv-x="1327" 
d="M674 133q-142 0 -258 57t-190 154.5t-114 224t-40 267.5q0 143 39.5 267t113.5 219t190 149.5t259 54.5q198 0 358.5 -110t210.5 -296h-176q-45 124 -148 198.5t-233 74.5q-109 0 -196.5 -48.5t-140.5 -128.5t-81 -177.5t-28 -202.5q0 -83 16 -163t51 -153.5t85 -129.5
t124 -89t162 -33q140 0 247 87t144 223h176q-51 -200 -207.5 -322.5t-363.5 -122.5z" />
    <glyph glyph-name="D" unicode="D" horiz-adv-x="1259" 
d="M575 164q-73 0 -221 1t-221 1v1329h442q184 0 325.5 -91.5t214.5 -242.5t73 -336q0 -137 -42.5 -258t-120.5 -210.5t-194 -141t-256 -51.5zM541 1356h-254v-1053h254q146 0 256 72t165.5 189.5t55.5 260.5t-55.5 262.5t-165.5 194t-256 74.5z" />
    <glyph glyph-name="E" unicode="E" horiz-adv-x="1116" 
d="M133 166v1327h897v-139h-743v-428h710v-140h-710v-483h757v-137h-911z" />
    <glyph glyph-name="F" unicode="F" horiz-adv-x="1056" 
d="M287 1352v-445h645v-143h-645v-598h-154v1327h893v-141h-739z" />
    <glyph glyph-name="G" unicode="G" horiz-adv-x="1392" 
d="M1104 172v209q-168 -252 -434 -252q-111 0 -208 39t-167.5 107t-121.5 157.5t-76 192.5t-25 211q0 143 39.5 267t113.5 219t190 149.5t259 54.5q199 0 360 -110.5t211 -297.5h-178q-45 124 -148.5 199.5t-234.5 75.5q-88 0 -162 -32t-125.5 -86t-87.5 -125.5t-52.5 -151
t-16.5 -162.5q0 -85 15.5 -165t50.5 -153.5t85 -128t124 -87t163 -32.5q179 0 298 123t124 309l-400 3v133h560v-666h-156z" />
    <glyph glyph-name="H" unicode="H" horiz-adv-x="1282" 
d="M993 164v631h-706v-631h-154v1327h154v-557h706v557h156v-1327h-156z" />
    <glyph glyph-name="I" unicode="I" horiz-adv-x="419" 
d="M133 170v1323h154v-1323h-154z" />
    <glyph glyph-name="J" unicode="J" horiz-adv-x="954" 
d="M449 125q-162 0 -269.5 97t-107.5 255v109h153v-76q5 -104 62 -177t159 -73q101 0 160.5 74.5t59.5 175.5v975h155v-1008q0 -158 -106 -255t-266 -97z" />
    <glyph glyph-name="K" unicode="K" horiz-adv-x="1204" 
d="M1051 166l-559 641l-205 -205v-436h-154v1331h154v-684l659 684h199l-545 -573l635 -758h-184z" />
    <glyph glyph-name="L" unicode="L" horiz-adv-x="1042" 
d="M133 164v1329h154v-1192h725v-137h-879z" />
    <glyph glyph-name="M" unicode="M" horiz-adv-x="1509" 
d="M1221 164v1026l-361 -1026h-209l-362 1026v-1026h-156v1333h193l430 -1165l428 1165h192v-1333h-155z" />
    <glyph glyph-name="N" unicode="N" horiz-adv-x="1298" 
d="M969 162l-682 1112v-1112h-154v1335h193l684 -1110v1110h155v-1335h-196z" />
    <glyph glyph-name="O" unicode="O" horiz-adv-x="1376" 
d="M688 131q-143 0 -261 56.5t-195 152.5t-118.5 221.5t-41.5 265.5t41.5 265t118.5 220.5t195 151.5t261 56t261 -56t195 -151.5t119 -220.5t42 -265t-42 -265.5t-119 -221.5t-195 -152.5t-261 -56.5zM688 1384q-110 0 -198 -49.5t-140.5 -130.5t-80 -178t-27.5 -199
t27.5 -199t80 -178t140.5 -130.5t198 -49.5t197 49.5t139 130.5t79 178t27 199t-27 199t-79 178t-139 130.5t-197 49.5z" />
    <glyph glyph-name="P" unicode="P" horiz-adv-x="1169" 
d="M670 700h-383v-536h-154v1327h537q122 0 222.5 -44.5t163 -135.5t62.5 -213q0 -121 -62.5 -213t-163.5 -138.5t-222 -46.5zM670 1352h-383v-512h383q119 0 202.5 70.5t83.5 187.5q0 118 -83 186t-203 68z" />
    <glyph glyph-name="Q" unicode="Q" horiz-adv-x="1376" 
d="M1264 131q-18 -24 -41 -47l-189 152q-160 -101 -346 -101q-143 0 -261 56.5t-195 152.5t-118.5 221.5t-41.5 265.5q0 111 26 213.5t78 190t125 152t172.5 101t214.5 36.5q143 0 261 -56t195 -151.5t119 -220.5t42 -265q0 -138 -44 -269.5t-131 -237.5l173 -146
q-3 -6 -39 -47zM686 1386q-89 0 -163.5 -32.5t-125.5 -87t-86.5 -126.5t-52 -150t-16.5 -159t16.5 -159t52 -151t86.5 -128t125.5 -88t163.5 -33q115 0 234 72l-166 150l77 92l181 -152q116 170 116 406q0 82 -16 159.5t-51 148.5t-85.5 123.5t-125 83.5t-164.5 31z" />
    <glyph glyph-name="R" unicode="R" horiz-adv-x="1189" 
d="M985 162l-389 567h-309v-567h-154v1331h537q86 0 166 -25t143 -70.5t101 -118.5t38 -161q0 -138 -92.5 -236.5t-241.5 -140.5l396 -579h-195zM684 1352h-397v-482h383q114 0 198 67t84 181q0 110 -79 172t-189 62z" />
    <glyph glyph-name="S" unicode="S" horiz-adv-x="1179" 
d="M631 121q-147 0 -270.5 56t-202.5 167t-86 258h170q10 -154 117.5 -247t263.5 -93q80 0 149.5 27.5t116.5 88.5t47 146q0 68 -34.5 112.5t-98.5 74.5q-61 28 -131 43q-34 8 -150 32q-60 14 -102 26.5t-92.5 32.5t-84 46.5t-63.5 63t-44.5 87t-14.5 113.5q0 92 39.5 166
t106 120t148.5 70.5t171 24.5q129 0 237 -46.5t176.5 -142t71.5 -223.5h-168q-3 129 -90.5 206t-218.5 77q-54 0 -105.5 -15.5t-95 -44.5t-70 -76.5t-26.5 -105.5q0 -121 133 -184q66 -30 131 -47q73 -21 150 -39q49 -13 86.5 -24.5t81 -29.5t74.5 -38t62 -48.5t50 -62
t31 -78t12 -96.5q0 -127 -69 -219t-175 -135t-233 -43z" />
    <glyph glyph-name="T" unicode="T" horiz-adv-x="1067" 
d="M610 1354v-1184h-155v1184h-424v141h1005v-141h-426z" />
    <glyph glyph-name="U" unicode="U" horiz-adv-x="1284" 
d="M1151 565q0 -104 -42 -188.5t-113.5 -138t-162.5 -82.5t-192 -29t-192 29t-161.5 82.5t-112.5 138t-42 188.5v930h154v-911q0 -147 101.5 -233.5t250.5 -86.5q147 0 249.5 86.5t102.5 233.5v911h160v-930z" />
    <glyph glyph-name="V" unicode="V" horiz-adv-x="1206" 
d="M702 160h-200l-512 1335h170l444 -1163l445 1163h168z" />
    <glyph glyph-name="W" unicode="W" horiz-adv-x="1632" 
d="M1276 166h-180l-281 1104l-280 -1104h-179l-346 1331h158l278 -1110l273 1110h192l275 -1112l280 1112h156z" />
    <glyph glyph-name="X" unicode="X" horiz-adv-x="1153" 
d="M954 162l-379 551l-376 -551h-189l471 686l-446 649h188l352 -512l355 512h186l-446 -647l473 -688h-189z" />
    <glyph glyph-name="Y" unicode="Y" horiz-adv-x="1124" 
d="M641 717v-553h-158v553l-493 778h184l387 -616l389 616h185z" />
    <glyph glyph-name="Z" unicode="Z" horiz-adv-x="1169" 
d="M72 164v127l798 1067h-741v139h950v-121l-807 -1077h826v-135h-1026z" />
    <glyph glyph-name="bracketleft" unicode="[" horiz-adv-x="839" 
d="M293 27v1568h377v-125h-238v-1320h238v-123h-377z" />
    <glyph glyph-name="backslash" unicode="\" horiz-adv-x="884" 
d="M752 27h-140l-479 1568h141z" />
    <glyph glyph-name="bracketright" unicode="]" horiz-adv-x="839" 
d="M170 25v122h236v1321h-236v125h377v-1568h-377z" />
    <glyph glyph-name="asciicircum" unicode="^" horiz-adv-x="1185" 
d="M834 1008l-240 575l-242 -575h-157l315 737h166l315 -737h-157z" />
    <glyph glyph-name="underscore" unicode="_" horiz-adv-x="1290" 
d="M133 -264h1024v-146h-1024v146z" />
    <glyph glyph-name="grave" unicode="`" horiz-adv-x="587" 
d="M375 1145l-242 350l137 80l185 -383z" />
    <glyph glyph-name="a" unicode="a" horiz-adv-x="1116" 
d="M852 160q-29 49 -29 155q-82 -97 -186 -144.5t-217 -47.5q-65 0 -126 17.5t-111.5 51t-80.5 88t-30 121.5q0 99 64.5 168t166.5 95q44 12 186 30q64 6 134 15q68 7 122 26q78 30 78 96q0 51 -26 90.5t-67 61t-85.5 32.5t-89.5 11q-42 0 -86 -10.5t-85.5 -31t-66 -59
t-20.5 -87.5h-160q0 2 -1 6t-1 6q0 76 38.5 135.5t101.5 93.5t134 51t144 17q60 0 119 -11t115.5 -35t99.5 -59t69.5 -88t26.5 -116v-533q0 -78 31 -145h-162zM823 682q-53 -63 -196 -80q-30 -5 -117 -14q-57 -6 -94 -19q-70 -22 -123 -65t-53 -107q0 -52 36 -88t81 -49.5
t92 -13.5q75 0 165 33q82 33 145.5 96.5t63.5 142.5v164z" />
    <glyph glyph-name="b" unicode="b" horiz-adv-x="1155" 
d="M618 127q-181 0 -331 164v-121h-154v1321h154v-504q149 162 334 162q136 0 243 -71.5t163 -186t56 -248.5t-57 -251t-165 -191t-243 -74zM596 1008q-101 0 -173 -54.5t-104 -135t-32 -175.5q0 -56 11.5 -109t36.5 -101.5t60.5 -85t87.5 -58t113 -21.5q99 0 172 56.5
t107 140t34 178.5t-34 176.5t-107 135t-172 53.5z" />
    <glyph glyph-name="c" unicode="c" horiz-adv-x="1075" 
d="M557 123q-144 0 -255.5 68t-170.5 184.5t-59 259.5q0 147 57 263t167.5 183.5t256.5 67.5q161 0 289 -87.5t162 -236.5h-179q-26 88 -99.5 140.5t-166.5 52.5q-78 0 -140 -33t-99.5 -87.5t-57.5 -122t-20 -140.5q0 -72 19.5 -138.5t57 -121t99 -87t139.5 -32.5
q93 0 166.5 51t99.5 139h181q-45 -149 -167 -236t-280 -87z" />
    <glyph glyph-name="d" unicode="d" horiz-adv-x="1155" 
d="M868 170v121q-150 -164 -331 -164q-135 0 -243 74t-165 191t-57 251t56 248.5t163.5 186t243.5 71.5q184 0 333 -162v504h154v-1321h-154zM561 1008q-76 0 -137 -31t-99 -83t-58.5 -116.5t-20.5 -134.5q0 -96 34 -179t107.5 -139.5t173.5 -56.5q75 0 135.5 32.5t97 87
t55.5 120t19 135.5q0 95 -32 175.5t-103.5 135t-171.5 54.5z" />
    <glyph glyph-name="e" unicode="e" horiz-adv-x="1110" 
d="M1038 590h-792q5 -146 93 -239t226 -93q84 0 153.5 39.5t98.5 114.5h182q-49 -136 -164.5 -212.5t-263.5 -76.5q-219 0 -359 146t-140 368q0 143 60 258.5t172 182.5t255 67q120 0 214 -46t151.5 -124.5t86.5 -176.5t27 -208zM555 1010q-129 0 -211 -81t-96 -216h614
q-7 134 -92 215.5t-215 81.5z" />
    <glyph glyph-name="f" unicode="f" horiz-adv-x="622" 
d="M371 985v-819h-154v819h-145v125h145v129q0 52 8 91t21 66.5t37.5 46t48 29t62.5 15.5t72 6.5t85 1.5v-125q-129 0 -162 -59q-15 -28 -18 -78q-1 -14 -1 -32t0.5 -45.5t0.5 -45.5h180v-125h-180z" />
    <glyph glyph-name="g" unicode="g" horiz-adv-x="1155" 
d="M578 -254q-76 0 -151.5 20t-142 57t-111.5 98.5t-54 137.5h160q8 -62 60 -107t113 -63t121 -18q133 0 214 75.5t81 207.5v204q-150 -163 -340 -163q-128 0 -233.5 65.5t-164 174.5t-58.5 237q0 129 59 236.5t164 171t233 63.5q188 0 340 -158v119h154v-946
q0 -193 -124.5 -302.5t-319.5 -109.5zM557 1004q-141 0 -226 -95t-85 -237t85 -241t226 -99t226 99t85 241q0 141 -86 236.5t-225 95.5z" />
    <glyph glyph-name="h" unicode="h" horiz-adv-x="1099" 
d="M813 168v580q0 112 -58 188t-169 76q-122 0 -210.5 -87.5t-88.5 -209.5v-547h-154v1327h154v-500q160 160 356 160q150 0 237 -90.5t87 -241.5v-655h-154z" />
    <glyph glyph-name="i" unicode="i" horiz-adv-x="419" 
d="M133 1333v160h154v-160h-154zM133 168v944h154v-944h-154z" />
    <glyph glyph-name="j" unicode="j" horiz-adv-x="473" 
d="M184 1335v160h156v-160h-156zM41 -260v123q86 1 114.5 33t28.5 122v1096h156v-1120q0 -61 -6.5 -103t-24 -70.5t-37.5 -44.5t-59 -24t-74.5 -10t-97.5 -2z" />
    <glyph glyph-name="k" unicode="k" horiz-adv-x="1034" 
d="M848 166l-416 498l-145 -123v-375h-154v1329h154v-786l463 407h192l-405 -364l487 -586h-176z" />
    <glyph glyph-name="l" unicode="l" horiz-adv-x="419" 
d="M133 166v1325h154v-1325h-154z" />
    <glyph glyph-name="m" unicode="m" horiz-adv-x="1599" 
d="M1313 164v588q0 44 -9 85.5t-29 79.5t-57.5 61t-87.5 23q-73 0 -132 -43.5t-90 -108.5t-31 -134v-551h-154v588q0 44 -9 85.5t-28.5 79.5t-57 61t-87.5 23q-73 0 -132.5 -43.5t-90.5 -108.5t-31 -134v-551h-154v936h154v-139q69 84 154.5 130t172.5 46q167 0 242 -181
q70 85 155.5 134t176.5 49q70 0 124.5 -28t87.5 -76t49.5 -107.5t16.5 -128.5v-635h-153z" />
    <glyph glyph-name="n" unicode="n" horiz-adv-x="1099" 
d="M813 164v559q0 112 -58 188t-169 76q-122 0 -210.5 -87.5t-88.5 -209.5v-526h-154v934h154v-127q159 159 356 159q150 0 237 -90.5t87 -240.5v-635h-154z" />
    <glyph glyph-name="o" unicode="o" horiz-adv-x="1116" 
d="M557 127q-218 0 -351.5 144t-133.5 364q0 219 134 364.5t351 145.5q145 0 257 -67.5t171 -183.5t59 -259q0 -220 -134 -364t-353 -144zM557 1012q-61 0 -113 -21.5t-88.5 -58t-62 -85t-37.5 -102.5t-12 -110q0 -71 19.5 -137.5t57 -120.5t99 -86.5t137.5 -32.5
q77 0 138.5 32.5t99 86.5t57.5 120t20 138q0 71 -20 137t-57.5 120.5t-99 87t-138.5 32.5z" />
    <glyph glyph-name="p" unicode="p" horiz-adv-x="1155" 
d="M625 137q-189 0 -338 162v-559h-154v1358h154v-121q151 164 336 164q138 0 244.5 -70t161 -183.5t54.5 -248.5q0 -136 -54 -249.5t-160 -183t-244 -69.5zM598 999q-76 0 -137 -30.5t-98 -81.5t-56.5 -114.5t-19.5 -133.5q0 -96 32.5 -176t105 -133.5t173.5 -53.5
t173.5 53.5t105 133.5t32.5 176q0 70 -19.5 133.5t-56.5 114.5t-98 81.5t-137 30.5z" />
    <glyph glyph-name="q" unicode="q" horiz-adv-x="1155" 
d="M868 -260v559q-146 -162 -338 -162q-138 0 -244 69.5t-160 183t-54 249.5q0 135 54.5 248t161 182.5t244.5 69.5q188 0 336 -164v121h154v-1356h-154zM557 997q-76 0 -137 -30t-98 -81t-56.5 -114t-19.5 -133q0 -96 32.5 -176t105 -133.5t173.5 -53.5t173.5 53.5
t105 133.5t32.5 176q0 94 -33 173.5t-105.5 132t-172.5 52.5z" />
    <glyph glyph-name="r" unicode="r" horiz-adv-x="679" 
d="M287 602v-438h-154v944h154v-188q129 213 352 219v-160q-172 -3 -262 -103t-90 -274z" />
    <glyph glyph-name="s" unicode="s" horiz-adv-x="987" 
d="M725 850q1 43 -24 75.5t-64 49.5t-77.5 25t-74.5 8q-31 0 -64.5 -7t-68 -22t-56.5 -44t-22 -67q0 -41 27.5 -68t79.5 -50q64 -25 104 -35q25 -5 117 -29q71 -18 119.5 -35.5t96.5 -46.5t72.5 -71.5t24.5 -98.5q0 -62 -24 -114t-64.5 -87t-93.5 -60t-110 -36.5t-115 -11.5
q-80 0 -155 21t-136.5 61t-101 104.5t-43.5 145.5h159q9 -64 54 -109.5t103 -65.5t122 -20q29 0 60 5t63.5 17.5t57.5 30.5t41 47t16 64q0 73 -107 117q-62 21 -102 30q-16 3 -56 13t-61 14q-55 13 -94.5 25.5t-82.5 34t-70 47t-44.5 63.5t-17.5 86q0 71 34 127.5t89.5 90
t121 50.5t134.5 17q50 0 102 -9t105 -31t94 -54.5t66 -83.5t24 -113h-158z" />
    <glyph glyph-name="t" unicode="t" horiz-adv-x="622" 
d="M377 985v-553q0 -87 35 -119t120 -34v-123q-59 0 -96 2.5t-76.5 11t-62 25t-41.5 44.5t-27 70t-8 101v575h-149v123h149v340h156v-340h174v-123h-174z" />
    <glyph glyph-name="u" unicode="u" horiz-adv-x="1099" 
d="M813 166v151q-129 -188 -334 -188q-153 0 -249.5 98t-96.5 254v625h154v-567q0 -114 61.5 -190.5t173.5 -76.5q124 0 207.5 89.5t83.5 213.5v531h154v-940h-154z" />
    <glyph glyph-name="v" unicode="v" horiz-adv-x="921" 
d="M563 160h-203l-370 946h168l303 -791l305 791h166z" />
    <glyph glyph-name="w" unicode="w" horiz-adv-x="1361" 
d="M1069 164h-182l-205 708l-207 -708h-182l-283 942h158l217 -752l205 752h182l207 -752l215 752h158z" />
    <glyph glyph-name="x" unicode="x" horiz-adv-x="933" 
d="M743 158l-276 370l-277 -370h-180l367 489l-346 459h178l258 -338l258 338h178l-346 -459l367 -489h-181z" />
    <glyph glyph-name="y" unicode="y" horiz-adv-x="958" 
d="M444 -78q-14 -33 -32 -58.5t-36 -43t-43.5 -29.5t-47 -18.5t-54.5 -9.5t-57.5 -4t-64.5 -1v125q8 0 23.5 -1t23.5 -1q87 0 123 39q16 16 30 47q0 1 43 98.5t49 116.5l-391 922h162l305 -727l309 727h162z" />
    <glyph glyph-name="z" unicode="z" horiz-adv-x="987" 
d="M72 164v131l630 682h-577v125h756v-131l-631 -682h665v-125h-843z" />
    <glyph glyph-name="braceleft" unicode="{" horiz-adv-x="890" 
d="M338 344v223q0 89 -29.5 131t-113.5 41v144h22q39 0 64.5 14t37 41t15.5 53.5t4 63.5v223q0 108 17.5 173t63 101.5t108 48.5t169.5 13v-125q-44 0 -68.5 -1.5t-56.5 -10t-49 -25t-29 -48t-12 -77.5v-225q0 -258 -209 -291q209 -33 209 -291v-225q0 -46 12 -77.5t29 -48
t49 -25t56.5 -10t68.5 -1.5v-125q-106 1 -169 13.5t-108.5 49t-63 101.5t-17.5 172z" />
    <glyph glyph-name="bar" unicode="|" horiz-adv-x="530" 
d="M195 8v1587h141v-1587h-141z" />
    <glyph glyph-name="braceright" unicode="}" horiz-adv-x="890" 
d="M553 563v-223q0 -107 -17.5 -172t-63 -101.5t-108.5 -49t-169 -13.5v125q36 0 57 1t50.5 5.5t46 15t33 28t23.5 46t7 66.5v225q0 38 3.5 69.5t16 71t33.5 67.5t60.5 51.5t92.5 31.5q-53 8 -92.5 31.5t-60.5 51.5t-33.5 67.5t-16 71t-3.5 69.5v225q0 38 -7 66.5t-23.5 46
t-33 28t-46 15t-50.5 5.5t-57 1v125q107 -1 169.5 -13t108 -48.5t63 -101.5t17.5 -173v-223q0 -37 4 -63.5t15.5 -53.5t37 -41t64.5 -14h22v-144q-84 1 -113.5 -41t-29.5 -131z" />
    <glyph glyph-name="asciitilde" unicode="~" horiz-adv-x="1892" 
d="M1247 608q-98 0 -174 45t-160 127q-5 5 -28.5 29.5t-36.5 36.5q-55 53 -106.5 84t-110.5 31t-105.5 -23t-75.5 -62.5t-46 -86.5t-23 -101h-145q10 105 61 196.5t138.5 149.5t193.5 58q54 0 102 -13.5t89.5 -40.5t71 -53t66.5 -65l64 -64q52 -54 101.5 -84.5t109.5 -30.5
q58 0 106 22.5t81.5 61t56 85t34.5 100.5h146q-22 -110 -73.5 -198.5t-139 -146t-197.5 -57.5z" />
    <glyph glyph-name="uni20A9" unicode="&#x20a9;" horiz-adv-x="0" 
 />
    <glyph glyph-name="uni2010" unicode="&#x2010;" horiz-adv-x="0" 
 />
    <glyph glyph-name="copyright" unicode="&#xa9;" horiz-adv-x="1925" 
d="M1886 616q0 -188 -73 -359t-196.5 -294.5t-294.5 -196.5t-359 -73t-359 73t-295 196.5t-197 294t-73 357.5q0 188 73 359t197 295t295 197t359 73t359 -73t294.5 -197t196.5 -294.5t73 -357.5zM1823 616l2 -2q0 176 -68.5 335.5t-184 275t-275 184t-334.5 68.5
t-334.5 -68.5t-275.5 -183.5t-184.5 -274.5t-68.5 -334.5q0 -176 68.5 -335.5t184.5 -275t275.5 -183.5t334.5 -68t334 68t274.5 183.5t183.5 275t68 335.5zM1288 276q-159 -108 -313 -108q-72 0 -134 25.5t-106 69.5t-76 102.5t-47.5 124t-15.5 133.5q0 115 41.5 214.5
t127.5 165.5t200 66q94 0 167 -25.5t148 -76.5l-41 -74q-124 100 -276 100q-89 0 -155.5 -57t-97 -139t-30.5 -172q0 -67 19 -133t54 -121.5t92.5 -90t127.5 -34.5q69 0 145 26t135 74z" />
    <glyph glyph-name="Korea1.99" horiz-adv-x="0" 
 />
    <glyph glyph-name="Korea1.100" horiz-adv-x="0" 
 />
    <glyph glyph-name="uni3164" unicode="&#x3000;" horiz-adv-x="2048" 
 />
    <glyph glyph-name="uni3164" unicode="&#x3164;" horiz-adv-x="2048" 
 />
    <glyph glyph-name="uni3001" unicode="&#x3001;" horiz-adv-x="2048" 
d="M516 1479q-73 -73 -172 -217q-97 -141 -168 -275l-115 72q75 149 148 276q123 204 151 242z" />
    <glyph glyph-name="uni3002" unicode="&#x3002;" horiz-adv-x="2048" 
d="M543 1350q0 -105 -74 -179q-73 -73 -178 -73t-178 73q-74 74 -74 179q0 104 74 178t178 74t178 -74t74 -178zM459 1348q0 69 -49.5 118.5t-118.5 49.5t-118.5 -49.5t-49.5 -118.5t49.5 -118.5t118.5 -49.5t118.5 49.5t49.5 118.5z" />
    <glyph glyph-name="uni30FB" unicode="&#x30fb;" horiz-adv-x="2048" 
d="M1135 584q-76 -29 -109 -29q-58 0 -98 42.5t-33 98.5q15 91 125 97q72 3 135 -45q9 -72 -20 -164z" />
    <glyph glyph-name="twodotenleader" unicode="&#x2025;" horiz-adv-x="2048" 
d="M1223 698v203h217v-203h-217zM608 698v203h217v-203h-217z" />
    <glyph glyph-name="uni22EF" unicode="&#x2026;" horiz-adv-x="2048" 
d="M915 698v203h218v-203h-218zM1530 698v203h217v-203h-217zM301 698v203h217v-203h-217z" />
    <glyph glyph-name="uni22EF" unicode="&#x22ef;" horiz-adv-x="2048" 
d="M915 698v203h218v-203h-218zM1530 698v203h217v-203h-217zM301 698v203h217v-203h-217z" />
    <glyph glyph-name="dieresis" unicode="&#xa8;" horiz-adv-x="2048" 
d="M1589 1354h-223v245h223v-245zM668 1354h-224v245h224v-245z" />
    <glyph glyph-name="uni3003" unicode="&#x3003;" horiz-adv-x="2048" 
d="M1499 997q144 -81 -16 -309q-24 -34 -76 -100q-35 -44 -90 -114l-93.5 -119t-78 -97.5t-61.5 -73t-25 -22.5q-9 4 13.5 70.5t82.5 223t96 257.5q55 150 83 200q75 135 165 84zM948 1034q28 -18 43.5 -40.5t19.5 -44t-3 -50t-17 -51t-30 -54t-35 -52t-39 -52t-35 -47.5
q-35 -49 -84.5 -120t-86 -123t-71.5 -101.5t-56 -74t-26 -21.5q-5 2 16 65.5t78 225.5t91 264q51 151 81 205q70 124 154 71z" />
    <glyph glyph-name="endash" unicode="&#x2013;" horiz-adv-x="2048" 
d="M1536 580h-1024v75h1024v-75z" />
    <glyph glyph-name="emdash" unicode="&#x2014;" horiz-adv-x="2048" 
d="M2048 580h-2048v75h2048v-75z" />
    <glyph glyph-name="uni2016" unicode="&#x2016;" horiz-adv-x="2048" 
d="M1370 -369h-188v1946h188v-1946zM862 -369h-188v1946h188v-1946z" />
    <glyph glyph-name="uniFF3C" unicode="&#xff3c;" 
d="M1210 27h-141l-477 1568h139z" />
    <glyph glyph-name="uniFF5E" unicode="&#xff5e;" 
d="M1202 608q-98 0 -174 45t-160 127q-5 5 -28.5 29.5t-36.5 36.5q-55 53 -106.5 84t-110.5 31t-105.5 -23t-75.5 -62.5t-46 -86.5t-23 -101h-146q10 105 61 196.5t139 149.5t194 58q54 0 102 -13.5t89.5 -40.5t71 -53t66.5 -65l64 -64q52 -54 101.5 -84.5t109.5 -30.5
q58 0 106 22.5t81.5 61t56 85t34.5 100.5h146q-22 -110 -73.5 -198.5t-139 -146t-197.5 -57.5z" />
    <glyph glyph-name="quoteleft" unicode="&#x2018;" horiz-adv-x="1658" 
d="M1436 1597l47 -59q-66 -19 -96.5 -69t-30.5 -117h129v-203h-217v151q0 246 168 297z" />
    <glyph glyph-name="quoteright" unicode="&#x2019;" horiz-adv-x="1658" 
d="M223 1098l-47 59q66 19 96.5 69t30.5 117h-129v203h217v-151q0 -246 -168 -297z" />
    <glyph glyph-name="quotedblleft" unicode="&#x201c;" horiz-adv-x="1658" 
d="M1436 1597l47 -59q-66 -19 -96.5 -69t-30.5 -117h129v-203h-217v151q0 246 168 297zM1147 1597l47 -59q-66 -19 -96.5 -69t-30.5 -117h129v-203h-217v151q0 246 168 297z" />
    <glyph glyph-name="quotedblright" unicode="&#x201d;" horiz-adv-x="1658" 
d="M223 1098l-47 59q66 19 96.5 69t30.5 117h-129v203h217v-151q0 -246 -168 -297zM512 1098l-47 59q66 19 96.5 69t30.5 117h-129v203h217v-151q0 -246 -168 -297z" />
    <glyph glyph-name="uni3014" unicode="&#x3014;" horiz-adv-x="2048" 
d="M1905 -266l-64 -111l-534 318v1347l534 318l64 -111l-465 -274v-1213z" />
    <glyph glyph-name="uni3015" unicode="&#x3015;" horiz-adv-x="2048" 
d="M741 -59l-534 -318l-64 111l465 274v1213l-465 274l64 111l534 -318v-1347z" />
    <glyph glyph-name="uni3008" unicode="&#x3008;" horiz-adv-x="2048" 
d="M1905 -295l-107 -78l-713 991l713 981l107 -77l-656 -904z" />
    <glyph glyph-name="uni3009" unicode="&#x3009;" horiz-adv-x="2048" 
d="M952 618l-712 -991l-107 78l655 913l-655 904l107 77z" />
    <glyph glyph-name="uni300A" unicode="&#x300a;" horiz-adv-x="2048" 
d="M1903 -338l-74 -33l-572 985l572 983l74 -32l-555 -951zM1681 -338l-73 -33l-572 985l572 983l73 -32l-555 -951z" />
    <glyph glyph-name="uni300B" unicode="&#x300b;" horiz-adv-x="2048" 
d="M1010 614l-572 -985l-73 33l555 952l-555 951l73 32zM788 614l-571 -985l-74 33l555 952l-555 951l74 32z" />
    <glyph glyph-name="uni300C" unicode="&#x300c;" horiz-adv-x="2048" 
d="M1905 1462h-512v-817h-148v952h660v-135z" />
    <glyph glyph-name="uni300D" unicode="&#x300d;" horiz-adv-x="2048" 
d="M803 -369h-660v136h512v817h148v-953z" />
    <glyph glyph-name="uni300E" unicode="&#x300e;" horiz-adv-x="2048" 
d="M1905 1337h-353v-680h-266v940h619v-260zM1831 1405v121h-469v-793h115v672h354z" />
    <glyph glyph-name="uni300F" unicode="&#x300f;" horiz-adv-x="2048" 
d="M762 -369h-619v260h353v680h266v-940zM686 -297v793h-115v-672h-354v-121h469z" />
    <glyph glyph-name="uni3010" unicode="&#x3010;" horiz-adv-x="2048" 
d="M1907 1597q-246 -160 -390 -421t-143 -564q1 -305 139.5 -560t391.5 -421h-736v1966h738z" />
    <glyph glyph-name="uni3011" unicode="&#x3011;" horiz-adv-x="2048" 
d="M879 -369h-736q253 166 391.5 421t139.5 560q1 303 -143 564t-390 421h738v-1966z" />
    <glyph glyph-name="plusminus" unicode="&#xb1;" horiz-adv-x="2048" 
d="M1720 670h-635v-539h-122v539h-635v118h635v512h122v-512h635v-118zM1776 -139l-1502 4v119h1502v-123z" />
    <glyph glyph-name="multiply" unicode="&#xd7;" horiz-adv-x="2048" 
d="M1704 35l-88 -88l-584 590l-600 -588l-84 84l600 588l-567 581l86 86l569 -579l572 575l86 -86l-574 -573z" />
    <glyph glyph-name="divide" unicode="&#xf7;" horiz-adv-x="2048" 
d="M1014 1315q42 0 75.5 -18.5t50.5 -47t25.5 -63.5t0.5 -69.5t-25.5 -62.5t-51.5 -45.5t-77 -17.5q-44 0 -78.5 18.5t-52.5 47t-26 63.5t0.5 69.5t26.5 62.5t53 45.5t79 17.5zM1776 565h-1502v119h1502v-119zM1014 227q42 0 75.5 -18.5t50.5 -47t25.5 -63t0.5 -69
t-25.5 -62.5t-51.5 -45.5t-77 -17.5q-44 0 -78.5 18.5t-52.5 47t-26 63t0.5 69t26.5 62.5t53 45.5t79 17.5z" />
    <glyph glyph-name="notequal" unicode="&#x2260;" horiz-adv-x="2048" 
d="M1757 360h-758l-135 -489l-86 18l133 471h-628v78h649l80 318h-729v75h749l119 517l82 -23l-117 -494h641v-75h-659l-80 -318h739v-78z" />
    <glyph glyph-name="lessequal" unicode="&#x2264;" horiz-adv-x="2048" 
d="M1706 1231l-1229 -504l1227 -502l-41 -73l-1264 526q-16 5 -43.5 21t-27.5 28q0 15 59 45l1280 528zM1720 -109h-1392v78h1392v-78z" />
    <glyph glyph-name="greaterequal" unicode="&#x2265;" horiz-adv-x="2048" 
d="M1741 727q0 -5 -6 -11t-16.5 -12.5t-18.5 -10.5l-19 -9.5t-12 -5.5l-1263 -526l-41 73l1226 502l-1229 504l39 69l1280 -528q60 -30 60 -45zM1741 -109h-1393v78h1393v-78z" />
    <glyph glyph-name="infinity" unicode="&#x221e;" horiz-adv-x="2048" 
d="M1788 625q6 -154 -107 -266t-276 -115q-46 -1 -92 14t-82.5 39.5t-70 54t-57.5 59.5t-42 54.5t-27 39.5l-10 15l-8 -15q-9 -15 -26 -40.5t-40 -55.5t-56.5 -60.5t-70.5 -55t-86 -40t-100 -15.5q-153 2 -261.5 107t-111.5 257t102 262.5t257 116.5q187 7 337 -181
q25 -32 66 -98l8 15q9 15 25 40t38.5 55t54 60.5t67 56t82 41.5t94.5 17q162 3 274.5 -102t118.5 -260zM1688 633q-6 113 -91 189t-198 71q-56 -2 -109 -32t-89.5 -70.5t-64 -82t-41 -69.5t-12.5 -29q-1 -1 13.5 -28.5t43.5 -67.5t67 -79.5t92 -67t110 -27.5q126 0 205.5 86
t73.5 207zM965 616q1 1 -13 28.5t-42 67t-65 78.5t-90.5 66.5t-109.5 28.5q-116 2 -198 -77t-85 -200q-3 -113 78.5 -193t196.5 -83q56 -2 111 26.5t93 70t67.5 84t44 72t12.5 31.5z" />
    <glyph glyph-name="therefore" unicode="&#x2234;" horiz-adv-x="2048" 
d="M1020 948q-43 0 -72 23t-36 56t0 65.5t36 55.5t72 23t72 -23t36 -55.5t0 -65.5t-36 -56t-72 -23zM1573 27q-43 0 -72 23t-36 55.5t0 65.5t36 56t72 23t72 -23t36 -56t0 -65.5t-36 -55.5t-72 -23zM467 27q-43 0 -72 23t-36 55.5t0 65.5t36 56t72 23t72 -23t36 -56t0 -65.5
t-36 -55.5t-72 -23z" />
    <glyph glyph-name="degree" unicode="&#xb0;" horiz-adv-x="2048" 
d="M328 1024q-62 0 -113.5 19t-85 52t-57 76t-29 90.5t-0.5 95t28 90.5t56.5 76.5t85 53.5t113.5 20t113.5 -19t85 -52t57 -76t29 -90.5t0.5 -95t-28 -90.5t-56.5 -76.5t-85 -53.5t-113.5 -20zM326 1130q57 0 99.5 26.5t61 66.5t18.5 86.5t-18.5 86.5t-61 66.5t-99.5 26.5
t-99.5 -26.5t-61 -66.5t-18.5 -86.5t18.5 -86.5t61 -66.5t99.5 -26.5z" />
    <glyph glyph-name="minute" unicode="&#x2032;" horiz-adv-x="2048" 
d="M535 1606q-9 -18 -232 -316q-160 -215 -201 -256h-67l225 572h275z" />
    <glyph glyph-name="second" unicode="&#x2033;" horiz-adv-x="2048" 
d="M885 1606q-9 -18 -232 -316q-163 -219 -200 -256h-68l225 572h275zM535 1606q-9 -18 -232 -316q-160 -215 -201 -256h-67l225 572h275z" />
    <glyph glyph-name="uni2103" unicode="&#x2103;" horiz-adv-x="2048" 
d="M1720 135q-54 -138 -188.5 -237t-286.5 -99q-142 0 -253 55.5t-180 152t-104.5 221t-35.5 268.5q0 143 36.5 268.5t106 223.5t180.5 155t250 57q110 0 210.5 -45.5t170.5 -137t78 -210.5l-135 -45q-18 83 -52.5 144t-79.5 94t-92 48t-100 15q-90 0 -163.5 -34t-122 -90
t-81 -130.5t-47 -152.5t-14.5 -160q0 -81 14.5 -158.5t48 -151.5t82 -129.5t121.5 -89t162 -33.5q105 0 213 83.5t129 199.5zM764 1149q0 -91 -64 -155t-155 -64t-155 64t-64 155t64 155t155 64t155 -64t64 -155zM686 1149q0 60 -40.5 100.5t-100.5 40.5t-101 -40.5
t-41 -100.5t41 -100.5t101 -40.5t100.5 40.5t40.5 100.5z" />
    <glyph glyph-name="uni212B" unicode="&#x212b;" horiz-adv-x="2048" 
d="M1260 1341q0 -91 -64.5 -155t-155.5 -64t-155 64t-64 155t64 155.5t155 64.5t155.5 -64.5t64.5 -155.5zM1618 -197h-168l-129 328h-586l-133 -328h-153l509 1244h168zM1182 1341q0 60 -41 101t-101 41t-100.5 -41t-40.5 -101t40.5 -100.5t100.5 -40.5t101 40.5t41 100.5z
M1272 268l-232 606l-247 -606h479z" />
    <glyph glyph-name="uniFFE0" unicode="&#xffe0;" 
d="M1456 905l-117 -61q-43 163 -163 258l-424 -1008q102 -45 188 -45q263 0 381 254l115 -72q-27 -63 -67.5 -117t-101.5 -102.5t-150.5 -76t-198.5 -27.5q-91 0 -224 45l-84 -189l-80 37l86 189q-270 216 -270 598q0 84 17 176t60 191.5t105.5 178t163 130t223.5 53.5
q61 2 132 -10.5t108 -36.5l72 196l84 -36l-78 -201q169 -118 223 -324zM1094 1133q-71 36 -183 36q-83 0 -152.5 -35t-115 -91.5t-76.5 -131.5t-45 -152.5t-14 -156.5q0 -326 172 -457z" />
    <glyph glyph-name="uniFFE1" unicode="&#xffe1;" 
d="M1579 135q-9 -21 -16.5 -38t-28.5 -56t-43.5 -68t-59 -63.5t-75.5 -55.5t-93 -31.5t-112 -2.5q-21 3 -44.5 9.5t-48 17t-46 20t-47 24.5l-42.5 25t-41.5 27t-35 24t-32 22t-23.5 17q-16 -24 -25.5 -38t-41.5 -47t-64.5 -53t-87 -37.5t-115.5 -18.5q-91 -2 -160.5 55.5
t-73.5 138.5q-5 92 51.5 166t155.5 78q49 2 96.5 -6.5t74.5 -19t58.5 -25.5t36.5 -17q7 33 11 123.5t4 164.5v75h-408v96h406q-2 221 0 358q1 55 14 109.5t44.5 110.5t79 98t123.5 69t171 27q99 0 174.5 -31.5t120 -86t66.5 -120t24 -139.5h-127q-2 75 -28.5 129.5t-67 81
t-78.5 38t-76 11.5q-59 0 -111.5 -14.5t-100 -45.5t-75.5 -90t-28 -140v-365h497v-96h-495q14 -301 -15 -414q152 -106 222 -143q107 -56 182 -56q80 0 150 82.5t95 182.5zM674 74q-35 19 -93 39t-102 20q-41 0 -78 -27t-43 -69q-5 -46 36.5 -70t92.5 -26q59 -3 112.5 39.5
t74.5 93.5z" />
    <glyph glyph-name="uniFFE5" unicode="&#xffe5;" 
d="M1559 438h-584v-581h-148v581h-585v113h551l-148 264h-403v117h338l-240 428h170l233 -428h332l230 428h157l-239 -428h336v-117h-402l-149 -264h551v-113zM1012 815h-205l104 -188z" />
    <glyph glyph-name="male" unicode="&#x2642;" horiz-adv-x="2048" 
d="M1571 885l-72 -54l-434 560v-963q19 -3 37.5 -7.5t55 -17.5t66.5 -30t65.5 -47.5t60 -67.5t41 -92.5t16.5 -120.5q0 -85 -33 -159t-86 -124t-120.5 -79t-137.5 -29q-157 0 -277 107t-120 259q0 69 16.5 128t41.5 99t60 72.5t67.5 51t68 32t57 18.5t39.5 7v963l-434 -551
l-70 49l545 690zM1321 39q1 143 -84 224t-217 81q-128 0 -218 -92.5t-81 -228.5q7 -121 97.5 -202t209.5 -81q48 0 98.5 20t94 56.5t71.5 95t29 127.5z" />
    <glyph glyph-name="female" unicode="&#x2640;" horiz-adv-x="2048" 
d="M1698 424h-633v-762h-82v762h-623v86h623v287q-280 60 -337 291q-13 54 -13 116q0 150 118 260.5t277 110.5q98 0 187.5 -49t145.5 -138t56 -194q0 -72 -18.5 -132.5t-45 -100t-65 -70.5t-70 -46.5t-69 -27t-53 -14t-31.5 -4.5v-289h633v-86zM1331 1200q0 84 -49 154
t-119 105.5t-139 35.5q-70 0 -139 -36t-116.5 -103.5t-47.5 -147.5q0 -135 93.5 -231t205.5 -96q135 0 223 87t88 232z" />
    <glyph glyph-name="angle" unicode="&#x2220;" horiz-adv-x="2048" 
d="M1679 -41l-1421 2l1303 1290l57 -57l-1159 -1153h1220v-82z" />
    <glyph glyph-name="perpendicular" unicode="&#x22a5;" horiz-adv-x="2048" 
d="M1720 -37h-1392v80h655v1190h82v-1190h655v-80z" />
    <glyph glyph-name="uni2312" unicode="&#x2312;" horiz-adv-x="2048" 
d="M1759 655h-110q-10 64 -41.5 134.5t-87 142t-125.5 128t-167 92.5t-202 36q-106 0 -204.5 -39.5t-170 -100.5t-128 -134.5t-87 -140t-39.5 -118.5h-108q19 121 85 235.5t162.5 201.5t224.5 139.5t263 52.5q278 0 485 -177t250 -452z" />
    <glyph glyph-name="partialdiff" unicode="&#x2202;" horiz-adv-x="2048" 
d="M1346 537q-44 -158 -194.5 -269.5t-297.5 -107.5t-180 139q-7 28 0.5 65t33 78.5t64.5 79t100.5 68.5t135.5 45q50 9 87 14.5t53 6t34 1t24 0.5v11q1 35 0.5 61.5t-11.5 78t-33 82.5t-69 49t-114 3q-41 -10 -82 -36t-66 -50.5t-48 -40.5t-35 -10q-23 11 18.5 66t132 104
t184.5 41q166 -14 242.5 -147.5t20.5 -331.5zM1198 606q-3 0 -29 -1.5t-54.5 -5t-64.5 -11.5t-73.5 -26t-67.5 -44q-72 -63 -97 -135.5t13 -114.5q33 -36 78.5 -31t90.5 34.5t79 74.5q54 71 84.5 143.5t40.5 116.5z" />
    <glyph glyph-name="gradient" unicode="&#x2207;" horiz-adv-x="2048" 
d="M1892 1305l-868 -1346l-868 1346h1736zM1614 1155h-1182l592 -911z" />
    <glyph glyph-name="equivalence" unicode="&#x2261;" horiz-adv-x="2048" 
d="M1767 901h-1474v76h1474v-76zM1767 563h-1474v76h1474v-76zM1767 227h-1474v76h1474v-76z" />
    <glyph glyph-name="uni2252" unicode="&#x2252;" horiz-adv-x="2048" 
d="M1767 754h-1474v80h1474v-80zM725 1114q0 -54 -38.5 -92.5t-92.5 -38.5t-92.5 38.5t-38.5 92.5t38.5 92.5t92.5 38.5t92.5 -38.5t38.5 -92.5zM1583 74q0 -54 -38.5 -92.5t-92.5 -38.5t-92.5 38.5t-38.5 92.5t38.5 92.5t92.5 38.5t92.5 -38.5t38.5 -92.5zM1767 367h-1474
v79h1474v-79z" />
    <glyph glyph-name="section" unicode="&#xa7;" horiz-adv-x="2048" 
d="M836 494q-3 -35 -19.5 -63.5t-36 -44.5t-45.5 -27.5t-43.5 -16t-34.5 -6.5q17 -20 33 -42t43.5 -77.5t40 -108.5t6.5 -127t-41 -143q-45 -88 -131.5 -119.5t-177.5 -4t-154 101.5q-58 69 -41 131q11 43 50 50q23 4 47 -9q17 -9 29 -23t18 -27.5t8.5 -32.5t2.5 -30.5
t-0.5 -30t-0.5 -22.5q5 -13 30.5 -25.5t59.5 -18t74.5 9.5t69.5 52q60 89 22.5 214t-139.5 218q-45 41 -73.5 67.5t-69 69t-64.5 75t-48.5 75.5t-33.5 80t-7 80t19 84q44 103 185 110h6q-141 148 -156 324q-12 149 57 227.5t191 83.5q96 4 174 -50.5t91.5 -114t-21.5 -95.5
q-42 -26 -71 -3t-45 63.5t-15 74.5q1 35 -48 57q-61 26 -122 1q-90 -38 -93 -166q-1 -55 26 -114.5t71 -114t97 -110.5t105 -114t93.5 -115.5t64.5 -123.5t17 -129zM670 657q-52 71 -116 124t-112 63q-50 12 -82 -1.5t-42 -45t-6.5 -70.5t22 -81t45.5 -75
q76 -93 146.5 -139.5t113.5 -40.5q57 9 81 40.5t16.5 73.5t-24.5 80t-42 72z" />
    <glyph glyph-name="uni203B" unicode="&#x203b;" horiz-adv-x="2048" 
d="M1616 608q0 -63 -45.5 -108t-108.5 -45t-108 45t-45 108t45 108.5t108 45.5t108.5 -45.5t45.5 -108.5zM1178 1038q0 -63 -45.5 -108t-108.5 -45t-108.5 45t-45.5 108t45.5 108.5t108.5 45.5t108.5 -45.5t45.5 -108.5zM1647 45l-54 -53l-565 561l-563 -561l-53 53l563 561
l-561 568l55 53l561 -563l559 563l56 -53l-560 -568zM756 608q0 -63 -45.5 -108t-108.5 -45t-108 45t-45 108t45 108.5t108 45.5t108.5 -45.5t45.5 -108.5zM1178 180q0 -63 -45.5 -108t-108.5 -45t-108.5 45t-45.5 108t45.5 108.5t108.5 45.5t108.5 -45.5t45.5 -108.5z" />
    <glyph glyph-name="uni2606" unicode="&#x2606;" horiz-adv-x="2048" 
d="M1917 829l-545 -405l225 -651l-573 401l-575 -401l225 651l-545 405h682l213 621l211 -621h682zM1733 764h-543l-166 496l-168 -496h-543l439 -320l-179 -505l451 315l449 -315l-179 505z" />
    <glyph glyph-name="uni2605" unicode="&#x2605;" horiz-adv-x="2048" 
d="M1915 829l-545 -405l225 -651l-573 401l-576 -401l226 651l-545 405h682l213 621l211 -621h682z" />
    <glyph glyph-name="circle" unicode="&#x25cb;" horiz-adv-x="2048" 
d="M1604 612q0 -156 -78 -289t-211 -210.5t-289 -77.5q-117 0 -223.5 46t-184 123.5t-123.5 184t-46 223.5q0 156 77.5 289t210.5 211t289 78t289 -78t211 -211t78 -289zM1528 612q0 136 -67.5 251.5t-183 183t-251.5 67.5t-251.5 -67.5t-183 -183t-67.5 -251.5t67.5 -251.5
t183 -182.5t251.5 -67t251.5 67t183 182.5t67.5 251.5z" />
    <glyph glyph-name="H18533" unicode="&#x25cf;" horiz-adv-x="2048" 
d="M1604 612q0 -156 -78 -289t-211 -210.5t-289 -77.5q-117 0 -223.5 46t-184 123.5t-123.5 184t-46 223.5q0 156 77.5 289t210.5 211t289 78t289 -78t211 -211t78 -289z" />
    <glyph glyph-name="uni25CE" unicode="&#x25ce;" horiz-adv-x="2048" 
d="M1909 612q0 -178 -70.5 -341t-189 -281.5t-282 -189t-341.5 -70.5t-341.5 70.5t-282 189t-189 281.5t-70.5 341q0 142 45 276.5t127 243.5t191 191t243.5 127t276.5 45t276.5 -45t243.5 -127t191 -191t127 -243.5t45 -276.5zM1837 612q0 218 -109.5 405t-296.5 296.5
t-405 109.5t-405 -109.5t-296.5 -296.5t-109.5 -405t109.5 -405t296.5 -296.5t405 -109.5t405 109.5t296.5 296.5t109.5 405zM1604 612q0 -156 -78 -289t-211 -210.5t-289 -77.5q-117 0 -223.5 46t-184 123.5t-123.5 184t-46 223.5q0 156 77.5 289t210.5 211t289 78t289 -78
t211 -211t78 -289zM1528 612q0 136 -67.5 251.5t-183 183t-251.5 67.5t-251.5 -67.5t-183 -183t-67.5 -251.5t67.5 -251.5t183 -182.5t251.5 -67t251.5 67t183 182.5t67.5 251.5z" />
    <glyph glyph-name="uni25C7" unicode="&#x25c7;" horiz-adv-x="2048" 
d="M1706 614l-682 -682l-682 684l680 676zM1612 612l-588 584l-582 -578l586 -587z" />
    <glyph glyph-name="uni25C6" unicode="&#x25c6;" horiz-adv-x="2048" 
d="M1714 614l-682 -682l-682 684l678 680z" />
    <glyph glyph-name="H22073" unicode="&#x25a1;" horiz-adv-x="2048" 
d="M1477 162h-926v923h926v-923zM1391 240v759h-760v-759h760z" />
    <glyph glyph-name="filledbox" unicode="&#x25a0;" horiz-adv-x="2048" 
d="M1477 162h-926v923h926v-923z" />
    <glyph glyph-name="uni25B3" unicode="&#x25b3;" horiz-adv-x="2048" 
d="M1892 -41h-1736l868 1346zM1761 31l-737 1140l-737 -1140h1474z" />
    <glyph glyph-name="triagup" unicode="&#x25b2;" horiz-adv-x="2048" 
d="M1892 -41h-1736l868 1346z" />
    <glyph glyph-name="uni25BD" unicode="&#x25bd;" horiz-adv-x="2048" 
d="M1892 1264l-868 -1346l-868 1346h1736zM1761 1192h-1474l737 -1141z" />
    <glyph glyph-name="triagdn" unicode="&#x25bc;" horiz-adv-x="2048" 
d="M1892 1212l-868 -1345l-868 1345h1736z" />
    <glyph glyph-name="arrowright" unicode="&#x2192;" horiz-adv-x="2048" 
d="M2048 612l-412 -370l166 344h-1802v55h1802l-166 340z" />
    <glyph glyph-name="arrowleft" unicode="&#x2190;" horiz-adv-x="2048" 
d="M2048 586h-1804l166 -344l-412 370l412 369l-166 -340h1804v-55z" />
    <glyph glyph-name="arrowup" unicode="&#x2191;" horiz-adv-x="2048" 
d="M1393 1227l-340 166v-1803h-56v1803l-344 -166l371 411z" />
    <glyph glyph-name="arrowdown" unicode="&#x2193;" horiz-adv-x="2048" 
d="M1393 2l-369 -412l-371 412l344 -166v1802h56v-1802z" />
    <glyph glyph-name="arrowboth" unicode="&#x2194;" horiz-adv-x="2048" 
d="M2050 614l-412 -370l166 342h-1558l166 -342l-412 370l412 369l-166 -342h1558l-166 342z" />
    <glyph glyph-name="uni3013" unicode="&#x3013;" horiz-adv-x="2048" 
d="M1761 764h-1474v55h1474v-55zM1761 410h-1474v55h1474v-55z" />
    <glyph glyph-name="guillemotleft" unicode="&#xab;" horiz-adv-x="2048" 
d="M1837 -8l-39 -70l-1085 690l1085 695l39 -70l-975 -623zM1346 -8l-39 -70l-1084 690l1084 695l39 -70l-975 -623z" />
    <glyph glyph-name="guillemotright" unicode="&#xbb;" horiz-adv-x="2048" 
d="M1841 612l-1083 -690l-39 70l975 622l-975 623l39 70zM1352 612l-1086 -690l-39 70l975 622l-975 623l39 70z" />
    <glyph glyph-name="radical" unicode="&#x221a;" horiz-adv-x="2048" 
d="M1819 1118h-906l-323 -1255l-232 456l-100 -92l-49 64l176 158l186 -367l289 1124h959v-88z" />
    <glyph glyph-name="uni223D" unicode="&#x223d;" horiz-adv-x="2048" 
d="M1870 776q21 -74 19 -147t-34 -141t-80.5 -121.5t-119.5 -88.5t-152 -42q-53 -4 -102.5 5t-74.5 19.5t-57 28.5t-36 20l37 70q20 -13 47 -26t82 -27.5t107 -12.5t114.5 34t112.5 97q61 79 68.5 176t-29 177.5t-113.5 137t-174 60.5q-126 6 -209 -58.5t-172 -215.5
q-6 -11 -36 -69t-55 -103t-73.5 -107.5t-98.5 -103t-123 -68t-153 -22.5q-78 5 -147 33.5t-126 80.5t-91.5 134.5t-36.5 185.5q-1 48 17.5 102.5t55.5 106.5t85.5 94.5t114 67.5t134.5 24q43 -1 80 -6.5t65 -15.5t44.5 -17.5t36.5 -19t22 -12.5l-39 -68q-2 1 -18 11.5
t-25 15.5t-29.5 14t-39 13t-46 7t-57.5 2q-119 -6 -210 -92t-103 -211q-15 -152 78 -257t248 -113q46 -2 89.5 9.5t76.5 28.5t68 50.5t56 57.5t49.5 69.5t40 66.5t36 68t28.5 55q187 357 459 340q142 -9 244.5 -89t144.5 -208z" />
    <glyph glyph-name="proportional" unicode="&#x221d;" horiz-adv-x="2048" 
d="M1774 979l-41 -59q-1 0 -12 7l-16.5 10.5t-20.5 10t-27 10t-31.5 7.5t-38 4.5t-43.5 -1.5t-51 -7q-37 -7 -72 -24.5t-62.5 -38.5t-54.5 -51.5t-45 -54.5t-38 -56.5t-28.5 -49.5t-20.5 -42l-13 -26q9 -20 22 -46t47.5 -78t73.5 -92.5t99.5 -75.5t124.5 -41q30 -5 59 -1.5
t46.5 6t36.5 10.5t27.5 13t21 13t16.5 10l32 -66q-23 -19 -43 -30.5t-74.5 -23.5t-125.5 -7q-54 4 -105.5 23.5t-89 45t-73.5 62t-57.5 65t-43 64t-28 49t-13.5 29.5q-4 -12 -13 -31t-30.5 -55t-47.5 -69.5t-67 -69.5t-86.5 -61t-107.5 -37.5t-129 -4.5q-161 19 -269 140
t-104 286q4 159 119.5 276t277.5 128q67 5 128 -11.5t104.5 -43t83.5 -66.5t63.5 -72.5t44.5 -72.5t27.5 -55t11.5 -30q0 1 9 19t19 35.5t26.5 45t36.5 52.5t44.5 53.5t54.5 51.5t63.5 42.5t74 31t82.5 13.5q57 2 101.5 -3.5t75.5 -19.5t40 -19.5t29 -20.5zM1071 625
q-31 80 -44 106q-110 214 -298 238q-37 5 -76 2q-123 -9 -221.5 -105.5t-101.5 -224.5q-3 -139 90 -236.5t219 -111.5q43 -5 83 0.5t73 18t64 33t54.5 42.5t46 49t37.5 49.5t30 49t22 41.5t15 32z" />
    <glyph glyph-name="uni2235" unicode="&#x2235;" horiz-adv-x="2048" 
d="M1686 1120q0 -46 -33.5 -79t-79.5 -33t-79.5 33t-33.5 79t33.5 78.5t79.5 32.5t79.5 -32.5t33.5 -78.5zM582 1120q0 -46 -33.5 -79t-79.5 -33t-79.5 33t-33.5 79t33.5 78.5t79.5 32.5t79.5 -32.5t33.5 -78.5zM1133 199q0 -46 -33.5 -79.5t-79.5 -33.5t-79.5 33.5
t-33.5 79.5q0 45 33.5 77.5t79.5 32.5t79.5 -32.5t33.5 -77.5z" />
    <glyph glyph-name="integral" unicode="&#x222b;" horiz-adv-x="2048" 
d="M1382 1356q-15 -37 -44.5 -42.5t-57.5 9t-56.5 27.5t-39.5 8q-16 -8 -29.5 -23t-23.5 -38t-18 -45.5t-13.5 -56.5t-9.5 -60t-7 -67.5t-4.5 -67t-4 -70t-3.5 -66.5q-2 -38 -7.5 -125t-8 -127t-9 -108.5t-14.5 -134.5q-30 -256 -109.5 -410.5t-205.5 -177.5
q-69 -13 -105.5 31t-15.5 84q19 37 48 45t54.5 -4t53 -23.5t39.5 -7.5q27 10 46.5 30.5t31 52.5t19 65t10.5 79.5t4 83.5t2 89t3 85q10 197 17.5 291.5t30.5 236t63 267.5q39 123 104.5 204.5t157.5 84.5q57 2 90 -33t12 -86z" />
    <glyph glyph-name="uni222C" unicode="&#x222c;" horiz-adv-x="2048" 
d="M1700 1356q-15 -37 -44.5 -42.5t-57.5 9t-57 27.5t-40 8q-16 -8 -29.5 -23t-23.5 -38t-17.5 -45.5t-13.5 -56t-9.5 -60.5t-6.5 -67.5t-4.5 -67t-4 -70t-3.5 -66.5q-2 -38 -7.5 -125t-8 -127t-9 -108.5t-14.5 -134.5q-30 -255 -109.5 -410t-206.5 -178q-69 -13 -105.5 31
t-15.5 84q19 37 48 45t54.5 -4t53 -23.5t39.5 -7.5q27 10 46.5 30.5t31.5 52.5t19 65t10.5 80t4.5 83t2 89t3 85q11 201 17.5 292t29.5 234t63 269q39 123 104.5 204.5t157.5 84.5q57 2 90.5 -33.5t12.5 -85.5zM1096 1356q-15 -37 -44.5 -42.5t-57.5 9t-57 27.5t-40 8
q-16 -8 -29.5 -23t-23.5 -38t-18 -45.5t-13.5 -56.5t-9.5 -60t-7 -67.5t-4.5 -67t-4 -70t-3.5 -66.5q-2 -38 -7.5 -125t-8 -127t-9 -108.5t-14.5 -134.5q-30 -256 -109.5 -410.5t-205.5 -177.5q-69 -13 -105.5 31t-15.5 84q19 37 48 45t54.5 -4t53 -23.5t39.5 -7.5
q27 10 46.5 30.5t31.5 52.5t19 65t10.5 80t4.5 83t2 89t3 85q11 201 17.5 292t29.5 234t63 269q39 123 104.5 204.5t157.5 84.5q57 2 90.5 -33.5t12.5 -85.5z" />
    <glyph glyph-name="element" unicode="&#x2208;" horiz-adv-x="2048" 
d="M1763 -2h-977q-153 0 -287 73.5t-218 211t-84 307.5q0 115 40.5 216t104 170.5t142.5 120t155.5 74t142.5 23.5h975v-80h-962q-105 0 -201.5 -45.5t-162.5 -116t-105 -156.5t-39 -167h1474v-76h-1474q0 -83 38 -167.5t103 -153t161.5 -111.5t203.5 -43h970v-80z" />
    <glyph glyph-name="suchthat" unicode="&#x220b;" horiz-adv-x="2048" 
d="M1806 590q0 -170 -84 -307.5t-218 -211t-287 -73.5h-977v80h970q107 0 203.5 43t161.5 111.5t103 153t38 167.5h-1474v76h1474q0 81 -39 167t-105 156.5t-162.5 116t-201.5 45.5h-962v80h975q66 0 142.5 -23.5t155.5 -74t142.5 -120t104 -170.5t40.5 -216z" />
    <glyph glyph-name="reflexsubset" unicode="&#x2286;" horiz-adv-x="2048" 
d="M1806 295h-970q-105 0 -205.5 34.5t-183 99t-133 168.5t-50.5 232q0 103 33 190.5t89 149t130 105t155 64t165 20.5h970v-72h-958q-70 0 -140 -17.5t-136.5 -54.5t-118 -89.5t-82.5 -130t-31 -167.5q0 -91 31 -168.5t82.5 -130t118 -90t136.5 -54.5t140 -17h958v-72z
M1843 -72h-1597v70h1597v-70z" />
    <glyph glyph-name="reflexsuperset" unicode="&#x2287;" horiz-adv-x="2048" 
d="M1829 829q0 -128 -50.5 -232t-133 -168.5t-183 -99t-205.5 -34.5h-970v72h958q70 0 140 17t136.5 54.5t118 90t82.5 130t31 168.5q0 90 -31 167.5t-82.5 130t-118 89.5t-136.5 54.5t-140 17.5h-958v72h970q84 0 165 -20.5t155 -64t130 -105t89 -149t33 -190.5zM1847 -72
h-1597v70h1597v-70z" />
    <glyph glyph-name="propersubset" unicode="&#x2282;" horiz-adv-x="2048" 
d="M264 563q0 127 51.5 239.5t134 188t185 119t205.5 43.5h966v-72h-958q-86 0 -175.5 -37t-163.5 -102t-121.5 -164.5t-47.5 -212.5t47.5 -212.5t121.5 -165.5t163.5 -104t175.5 -38h958v-72h-966q-103 0 -205.5 43.5t-185 119t-134 188t-51.5 239.5z" />
    <glyph glyph-name="propersuperset" unicode="&#x2283;" horiz-adv-x="2048" 
d="M1800 563q0 -127 -51.5 -239.5t-133.5 -188t-184.5 -119t-205.5 -43.5h-967v72h959q86 0 175 38t163.5 104t121.5 165.5t47 212.5t-47 212.5t-121.5 164.5t-163.5 102t-175 37h-959v72h967q103 0 205.5 -43.5t184.5 -119t133.5 -188t51.5 -239.5z" />
    <glyph glyph-name="union" unicode="&#x222a;" horiz-adv-x="2048" 
d="M1024 -166q-127 0 -239.5 51.5t-188 134t-119 185t-43.5 205.5v966h72v-958q0 -86 37 -175.5t102 -163.5t164.5 -121.5t212.5 -47.5t212.5 47.5t165.5 121.5t104 163.5t38 175.5v958h72v-966q0 -103 -43.5 -205.5t-119 -185t-188 -134t-239.5 -51.5z" />
    <glyph glyph-name="intersection" unicode="&#x2229;" horiz-adv-x="2048" 
d="M1024 1380q127 0 239.5 -51.5t188 -133.5t119 -184.5t43.5 -205.5v-967h-72v959q0 86 -38 175.5t-104 163.5t-165.5 121.5t-212.5 47.5t-212.5 -47.5t-164.5 -121.5t-102 -163.5t-37 -175.5v-959h-72v967q0 103 43.5 205.5t119 184.5t188 133.5t239.5 51.5z" />
    <glyph glyph-name="logicaland" unicode="&#x2227;" horiz-adv-x="2048" 
d="M1712 -16l-72 -35l-620 1222l-625 -1232l-69 38l649 1274l3 9q4 8 7.5 14t9 14t12 12.5t13.5 4.5t13 -5t12 -14t10 -16.5t8.5 -18t5.5 -12.5z" />
    <glyph glyph-name="logicalor" unicode="&#x2228;" horiz-adv-x="2048" 
d="M1714 1266l-643 -1256q-1 -2 -5.5 -12.5t-8.5 -17.5t-10 -16t-12 -14t-13 -5q-6 0 -12 3.5t-10 8.5t-8.5 12t-6.5 12t-5 10.5t-3 6.5l-649 1274l69 39l625 -1233l620 1222z" />
    <glyph glyph-name="uniFFE2" unicode="&#xffe2;" 
d="M1802 -348h-71v618h-1731v70h1802v-688z" />
    <glyph glyph-name="arrowdblright" unicode="&#x21d2;" horiz-adv-x="2048" 
d="M2050 612l-569 -571l-56 53l277 275h-1702v69h1769l177 174l-177 174h-1769v70h1702l-277 274l56 54z" />
    <glyph glyph-name="arrowdblboth" unicode="&#x21d4;" horiz-adv-x="2048" 
d="M2048 612l-569 -571l-56 53l277 275h-1352l277 -275l-56 -53l-569 571l569 572l56 -54l-277 -274h1352l-277 274l56 54zM1944 612l-177 174h-1486l-177 -174l177 -174h1486z" />
    <glyph glyph-name="universal" unicode="&#x2200;" horiz-adv-x="2048" 
d="M1604 1135l-500 -1121q-15 -34 -32 -52.5t-46 -18.5q-8 0 -15.5 1.5t-14 6t-11.5 8t-10.5 11t-8.5 12t-8 15t-7 14.5t-6.5 16t-6.5 16l-471 1118q-13 24 -12 52.5t24 35.5q36 11 62 -53l149 -350h694l142 317q37 81 76 66q36 -14 2 -94zM1352 774h-635l307 -741z" />
    <glyph glyph-name="existential" unicode="&#x2203;" horiz-adv-x="2048" 
d="M1425 -10h-798v129h667v438h-493v123h493v381h-649v125h780v-1196z" />
    <glyph glyph-name="acute" unicode="&#xb4;" horiz-adv-x="2048" 
d="M1114 1587q120 -66 -78 -258q-281 -272 -291 -266q-5 3 14 44.5t69.5 140t80.5 161.5q12 26 21 43t23.5 42t26.5 41t28.5 32.5t32.5 23.5t35 7t38 -11z" />
    <glyph glyph-name="tilde" unicode="&#x2dc;" horiz-adv-x="1892" 
d="M1245 995q-94 0 -170.5 40t-159.5 112q-30 23 -65 55q-57 48 -105.5 74.5t-103.5 26.5q-46 0 -79 -18t-51.5 -51.5t-28 -64.5t-15.5 -73h-231q4 112 52.5 210t139.5 161t205 63q96 0 177 -40.5t165 -109.5q111 -92 127 -104q72 -51 121 -51q157 0 202 202h232
q-14 -85 -46 -161t-82.5 -137.5t-123.5 -97.5t-160 -36z" />
    <glyph glyph-name="caron" unicode="&#x2c7;" horiz-adv-x="2048" 
d="M1503 1532l-479 -227l-479 227l67 63l412 -196l412 196z" />
    <glyph glyph-name="breve" unicode="&#x2d8;" horiz-adv-x="2048" 
d="M1503 1573q-85 -126 -192.5 -187t-259.5 -67q-163 -8 -285.5 52.5t-216.5 193.5l72 41q79 -110 180.5 -160t238.5 -45q126 3 216 50t167 148z" />
    <glyph glyph-name="hungarumlaut" unicode="&#x2dd;" horiz-adv-x="2048" 
d="M1382 1587q36 -25 42.5 -58.5t-15 -71t-45 -65.5t-59.5 -63q-26 -26 -74 -72.5t-78 -75.5t-63 -60.5t-51 -46.5t-21 -13t3 19.5t23.5 54.5t35 73t47.5 97t51 104q55 115 87 153q58 67 117 25zM991 1587q29 -21 37.5 -48t1.5 -52t-28.5 -56.5t-41 -52.5t-47.5 -49
q-28 -27 -74 -72.5t-77 -75.5t-63.5 -61t-50.5 -46t-21 -13t3 19.5t23.5 55t34 72t47.5 97.5t51 104q56 117 90 155q58 64 115 23z" />
    <glyph glyph-name="ring" unicode="&#x2da;" horiz-adv-x="2048" 
d="M1315 1307q0 -120 -83.5 -203.5t-203.5 -83.5t-203.5 83.5t-83.5 203.5t83.5 203t203.5 83t203.5 -83t83.5 -203zM1208 1307q0 75 -52.5 127.5t-127.5 52.5t-127.5 -52.5t-52.5 -127.5t52.5 -128t127.5 -53t127.5 53t52.5 128z" />
    <glyph glyph-name="dotaccent" unicode="&#x2d9;" horiz-adv-x="2048" 
d="M1022 1128q-57 0 -99.5 26.5t-61 66.5t-18.5 86.5t18.5 86.5t61 66.5t99.5 26.5t99.5 -26.5t61 -66.5t18.5 -86.5t-18.5 -86.5t-61 -66.5t-99.5 -26.5z" />
    <glyph glyph-name="cedilla" unicode="&#xb8;" horiz-adv-x="2048" 
d="M1237 -322q31 -38 30.5 -83t-19.5 -78t-46 -52q-42 -30 -98.5 -41.5t-109.5 -5.5t-90 14.5t-62 18.5l2.5 5l6 12t7.5 15.5t7 15.5t5 12t0 4q2 0 20 -5t32 -8t38.5 -6.5t43 -3.5t39.5 4.5t35.5 14.5t24.5 28.5t11 44.5q1 32 -19.5 49.5t-51.5 19.5t-55.5 -0.5t-39.5 -6.5
l-14 10l86 203h70l-52 -133q15 3 31.5 5t49.5 2t64.5 -14t53.5 -41z" />
    <glyph glyph-name="ogonek" unicode="&#x2db;" horiz-adv-x="2048" 
d="M1272 -346q-32 -62 -86.5 -95.5t-120.5 -33.5q-70 0 -114 41.5t-44 111.5q0 105 86 181h144q-68 -54 -68 -123q0 -66 68 -66q43 0 100 45z" />
    <glyph glyph-name="exclamdown" unicode="&#xa1;" horiz-adv-x="2048" 
d="M1149 1257h-236v259h236v-259zM1151 -246h-256l35 1293h192z" />
    <glyph glyph-name="questiondown" unicode="&#xbf;" horiz-adv-x="2048" 
d="M1130 1241h-249v275h249v-275zM1475 252q0 -69 -15 -136.5t-52.5 -136.5t-94 -120.5t-146 -84t-200.5 -32.5q-100 0 -185.5 35t-141.5 93.5t-87 133.5t-31 156q0 67 31 134t78.5 122.5t96.5 105.5t91.5 101.5t57.5 91.5q6 15 10.5 31t7.5 29.5t5.5 31.5t4 28.5t1.5 30.5
t0.5 27.5t0 29t-1 25t-1.5 26.5l-1 23h217q12 -202 -24 -319q-13 -44 -53 -97t-87 -102t-92.5 -99.5t-75.5 -105.5t-30 -104q0 -117 67 -172t185 -55q56 0 100.5 21t72 53.5t45.5 74.5t25 81.5t7 78.5h215z" />
    <glyph glyph-name="uni2236" unicode="&#x2236;" horiz-adv-x="2048" 
d="M657 123h-288l143 358zM512 748l-143 358h288z" />
    <glyph glyph-name="uni222E" unicode="&#x222e;" horiz-adv-x="2048" 
d="M1507 1081q-30 -14 -63.5 -5.5t-54.5 38.5q-8 12 -14 34t-12 35t-17 13q-38 0 -86 -123q-54 -137 -91 -256q52 -20 90 -64t56 -98.5t11.5 -114.5t-35.5 -110t-93 -86t-154 -43q-55 -185 -97 -262t-122 -133q-48 -33 -113.5 -42t-120 10t-71.5 60q-9 32 -8 66t25 61t63 27
q32 0 53.5 -9t29.5 -25.5t11 -29t2.5 -31.5t-0.5 -20q23 -11 32 -12q95 -2 204 367q-49 22 -84.5 61.5t-51 87t-17 99t18.5 99t54 86t92 61t129 22.5q75 253 107 313q80 146 231 131q46 -5 80 -24t49 -44.5t18 -52t-11 -50t-40 -36.5zM1145 725q-11 -47 -34 -163.5
t-38 -170.5q64 16 104 50t51 74t5 81.5t-30 76t-58 52.5zM1047 752q-33 3 -70.5 -17t-63.5 -56t-37.5 -79t8.5 -92t74 -88q18 63 51 188t38 144z" />
    <glyph glyph-name="summation" unicode="&#x2211;" horiz-adv-x="2048" 
d="M1626 -41h-1268l498 707l-401 589h1110v-161q0 -6 0.5 -20t0 -22.5t-0.5 -20.5t-1.5 -20t-4 -15.5t-7 -11t-10.5 -3.5q-20 0 -31.5 25.5t-17 61t-6.5 38.5q-14 34 -35 45q-14 8 -78 8h-684l305 -454l-413 -596h845q69 0 91 10q29 13 34 55q0 1 1 12.5t2 20t3 21.5t5.5 23
t8.5 19.5t12.5 14t17.5 4.5q11 -1 17 -8.5t7.5 -23t1.5 -28.5t-1 -34t-1 -31v-205z" />
    <glyph glyph-name="product" unicode="&#x220f;" horiz-adv-x="2048" 
d="M1708 1102h-276v-1116h-123v1116h-523v-1116h-122v1116h-277v112h1321v-112z" />
    <glyph glyph-name="currency" unicode="&#xa4;" horiz-adv-x="2048" 
d="M1831 -18l-59 -64l-279 252q-108 -88 -216.5 -136t-248.5 -48q-138 0 -245.5 43.5t-219.5 136.5l-282 -252l-66 68l283 254q-77 102 -115.5 203t-38.5 223q0 129 38 228t116 202l-283 254l66 67l282 -252q112 93 219.5 136.5t245.5 43.5q140 0 248.5 -48t216.5 -136
l279 252l59 -63l-281 -254q78 -104 116 -205t38 -223q0 -123 -38 -223.5t-116 -204.5zM1618 664q0 121 -47 230.5t-126.5 188.5t-189.5 125.5t-231 46.5t-231 -46.5t-189.5 -125.5t-126.5 -188.5t-47 -230.5q0 -161 79.5 -297.5t216.5 -215.5t298 -79t298 79.5t216.5 216
t79.5 296.5z" />
    <glyph glyph-name="uni2109" unicode="&#x2109;" horiz-adv-x="2048" 
d="M1796 1204h-784v-520h749v-162h-749v-694l-170 2v1534h954v-160zM629 1214q0 -91 -64 -155t-155 -64t-155.5 64t-64.5 155t64.5 155.5t155.5 64.5t155 -64.5t64 -155.5zM551 1214q0 60 -40.5 101t-100.5 41t-101 -41t-41 -101t41 -100.5t101 -40.5t100.5 40.5t40.5 100.5
z" />
    <glyph glyph-name="perthousand" unicode="&#x2030;" horiz-adv-x="2048" 
d="M1855 406q34 -33 46.5 -82.5t0.5 -109t-57.5 -130.5t-120.5 -139q-80 -73 -161 -100t-142 -14t-104 56q-49 49 -60 120t30 163t138 180q73 66 157.5 94t156 16.5t116.5 -54.5zM1796 352q-31 33 -85 39t-122 -21.5t-129 -86.5q-67 -65 -98 -133.5t-26.5 -120.5t36.5 -86
q30 -32 80.5 -36.5t116.5 26t131 94.5q70 69 101 135.5t27 113t-32 76.5zM1200 406q34 -33 46.5 -82.5t0.5 -109t-57.5 -130.5t-120.5 -139q-80 -73 -161 -100t-142 -14t-104 56q-49 49 -60 120t30 163t138 180q73 66 157.5 94t156 16.5t116.5 -54.5zM1141 352
q-31 33 -85 39t-122 -21.5t-129 -86.5q-67 -65 -98 -133.5t-26.5 -120.5t36.5 -86q30 -32 80 -36.5t116 26t131 94.5q70 69 101.5 135.5t27.5 113t-32 76.5zM823 1251q35 -34 49 -81.5t5 -106.5t-56 -130.5t-129 -141.5t-163 -97.5t-141 -15.5t-103 55q-36 36 -50 87
t-5.5 111.5t50.5 130t113 134.5q72 66 157 93.5t156 16t117 -54.5zM764 1198q-31 34 -85 40t-122 -22t-129 -88q-66 -65 -97 -133t-26.5 -120.5t35.5 -86.5q31 -33 80 -38t115.5 25.5t132.5 96.5q73 74 104 141t26 110.5t-34 74.5zM1452 1403l-1178 -1581h-100l1178 1581
h100z" />
    <glyph glyph-name="uni25C1" unicode="&#x25c1;" horiz-adv-x="2048" 
d="M1696 -252l-1346 866l1346 871v-1737zM1622 -121v1473l-1139 -738z" />
    <glyph glyph-name="uni25C0" unicode="&#x25c0;" horiz-adv-x="2048" 
d="M1696 -252l-1346 866l1346 871v-1737z" />
    <glyph glyph-name="uni25B7" unicode="&#x25b7;" horiz-adv-x="2048" 
d="M1747 621l-1346 -867v1737zM1614 621l-1139 737v-1473z" />
    <glyph glyph-name="uni25B6" unicode="&#x25b6;" horiz-adv-x="2048" 
d="M1747 614l-1346 -866v1737z" />
    <glyph glyph-name="uni2664" unicode="&#x2664;" horiz-adv-x="2048" 
d="M1653 102q-34 -29 -70 -48t-70.5 -26.5t-67 -10t-64.5 3.5t-57.5 12.5t-51 18t-40.5 19t-30 16.5t-16 9q0 -2 3.5 -25.5t6.5 -41.5t12 -52.5t20.5 -65t31.5 -71t45 -78.5q41 -61 -41 -79q-49 -11 -228 -11q-186 0 -226 5q-84 10 -84 47q0 16 13 38q39 63 64.5 124.5
t33.5 97t13.5 71.5t7.5 41q-21 -13 -43 -24.5t-78 -29.5t-107 -21.5t-117.5 15.5t-121.5 66q-34 29 -59 66t-40.5 98.5t-9 133t46.5 173t115 215.5q119 180 262.5 376t228.5 304.5t87 106.5q2 2 86.5 -106.5t228 -304.5t262.5 -376q75 -114 115 -215.5t46.5 -173t-9 -133
t-40 -98.5t-58.5 -66zM1550 209q34 26 51.5 68.5t18 107t-37 160t-112.5 207.5q-94 142 -205 296.5t-175 237.5l-64 84q-237 -300 -448 -618q-75 -112 -112.5 -207.5t-37 -160t18 -107t51.5 -68.5q41 -32 84.5 -43.5t80.5 -4t75 22t68 34t59.5 32.5t49.5 16.5t39 -12.5
q24 -23 30 -78t-0.5 -111t-20.5 -112q-12 -52 -54 -133h219q-2 8 -18.5 54t-24.5 79q-14 56 -20.5 112t-0.5 111t30 78q19 16 39 12.5t49.5 -16.5t59.5 -32.5t68 -34t75 -22t80.5 4t84.5 43.5z" />
    <glyph glyph-name="spade" unicode="&#x2660;" horiz-adv-x="2048" 
d="M1653 102q-34 -29 -70 -48t-70.5 -26.5t-67 -10t-64.5 3.5t-57.5 12.5t-51 18t-40.5 19t-30 16.5t-16 9q0 -2 3.5 -25.5t6.5 -41.5t12 -52.5t20.5 -65t31.5 -71t45 -78.5q41 -61 -41 -79q-49 -11 -228 -11q-186 0 -226 5q-84 10 -84 47q0 16 13 38q39 63 64.5 124.5
t33.5 97t13.5 71.5t7.5 41q-21 -13 -43 -24.5t-78 -29.5t-107 -21.5t-117.5 15.5t-121.5 66q-34 29 -59 66t-40.5 98.5t-9 133t46.5 173t115 215.5q119 180 262.5 376t228.5 304.5t87 106.5q2 2 86.5 -106.5t228 -304.5t262.5 -376q75 -114 115 -215.5t46.5 -173t-9 -133
t-40 -98.5t-58.5 -66z" />
    <glyph glyph-name="uni2661" unicode="&#x2661;" horiz-adv-x="2048" 
d="M1507 270q-193 -246 -320 -385t-159 -139t-162 142.5t-323 387.5q-98 124 -164 242t-96.5 215.5t-38 187t8 160t45 132t70 105.5t86 77t90 50.5t85.5 22.5q59 7 112.5 -6.5t92 -37t72.5 -60.5t54 -68t38 -68.5t23.5 -52.5t10.5 -30q4 15 9.5 31t22 52t35.5 66.5t51.5 66
t69.5 59t89.5 36t111.5 6.5q41 -4 85.5 -22t90 -50.5t86 -77t70 -105.5t45 -132t8 -160.5t-38 -187t-96.5 -215.5t-164 -242zM1645 952q4 65 -14 126.5t-52 106t-79.5 74.5t-97 31t-104.5 -24q-38 -20 -65.5 -65t-44 -93t-35 -93.5t-49 -75t-74.5 -30.5q-41 -1 -71.5 29
t-50.5 77t-39.5 96t-49 95t-67.5 66q-53 25 -104 24t-97 -31t-79.5 -74.5t-51.5 -106t-14 -126.5q6 -90 33 -179.5t60 -158.5t88.5 -150.5t97.5 -134.5t107 -132q26 -31 39 -47q109 -134 197 -211q62 46 191 205q152 185 190 238q177 238 221 452q11 55 15 112z" />
    <glyph glyph-name="heart" unicode="&#x2665;" horiz-adv-x="2048" 
d="M1507 270q-191 -243 -319.5 -383.5t-159.5 -140.5q-32 0 -162 142.5t-323 387.5q-98 124 -164 242t-96.5 215.5t-38 187t8 160t45 132t70 105.5t86 77t90 50.5t85.5 22.5q59 7 112.5 -6.5t92 -37t72.5 -60.5t54 -68t38 -68.5t23.5 -52.5t10.5 -30q4 15 9.5 31t22 52
t35.5 66.5t51.5 66t69.5 59t89.5 36t111.5 6.5q41 -4 85.5 -22t90 -50.5t86 -77t70 -105.5t45 -132t8 -160.5t-38 -187t-96.5 -215.5t-164 -242z" />
    <glyph glyph-name="uni2667" unicode="&#x2667;" horiz-adv-x="2048" 
d="M1733 29q-68 -40 -137 -51t-122 1.5t-102.5 36.5t-81.5 50t-55.5 46t-28.5 21q-3 1 -5.5 -4.5t-3.5 -19.5t0.5 -33.5t7 -50t15 -66.5t26 -85t38.5 -103q26 -65 -35 -84q-42 -13 -197 -13h-24q-171 0 -216 13q-60 18 -43 75q2 7 5 15q22 54 38.5 103t26 85t15 66.5t7 50
t0.5 33.5t-3.5 19.5t-5.5 4.5q-5 -1 -28.5 -21t-55.5 -46t-81 -50t-102 -36.5t-122 -1.5t-137 51q-83 48 -138.5 125.5t-72.5 165.5t-3 175.5t71.5 166t148.5 127.5q91 47 176.5 43.5t147.5 -32t105 -51.5t50 -14t-22 44t-71 85.5t-76 123t-36.5 156t47.5 185.5
q45 85 121.5 140t163.5 70t174 1.5t163 -63t120 -125.5q41 -71 54 -142t0.5 -128.5t-37 -110t-55.5 -92.5t-58 -71t-42.5 -51.5t-9.5 -27.5q7 -9 50 14t105 51t147.5 31.5t176.5 -43.5q91 -49 148.5 -127t71.5 -166t-2.5 -176t-72 -165t-138.5 -125zM1655 678
q-59 21 -113.5 17t-98.5 -26t-87 -45.5t-78.5 -40.5t-73 -11t-71.5 42q-36 38 -44 75t6.5 70t41 65t59 66t61 67t47.5 73.5t17 81.5q-3 71 -26 127.5t-59 90.5t-82.5 54t-95.5 23t-98 -7.5t-89.5 -33t-71 -58.5t-41.5 -79q-18 -72 -10.5 -126t30 -101.5t54 -84t60 -73.5
t48.5 -69.5t19.5 -72t-27.5 -81.5q-27 -41 -61.5 -49.5t-71.5 8.5t-82.5 41.5t-93 49t-104.5 29.5t-116 -16q-41 -15 -75 -54.5t-55 -91t-25 -110.5t10 -113t55 -101t105 -71q70 -27 132 -21.5t109 31.5t89.5 60.5t73.5 65.5t60.5 47.5t51.5 5.5q79 -40 29 -348
q-20 -143 -35 -170h198q-13 42 -30 163q-50 309 28 349q22 11 51.5 -5.5t60.5 -47.5t73.5 -65.5t89.5 -60.5t109 -31.5t132 21.5q64 24 105 71t55 101t10 113t-25 110.5t-55 91t-75 54.5z" />
    <glyph glyph-name="club" unicode="&#x2663;" horiz-adv-x="2048" 
d="M1733 29q-68 -40 -137 -51t-122 1.5t-102.5 36.5t-81.5 50t-55.5 46t-28.5 21q-3 1 -5.5 -4.5t-3.5 -19.5t0.5 -33.5t7 -50t15 -66.5t26 -85t38.5 -103q26 -65 -35 -84q-42 -13 -197 -13h-24q-171 0 -216 13q-60 18 -43 75q2 7 5 15q22 54 38.5 103t26 85t15 66.5t7 50
t0.5 33.5t-3.5 19.5t-5.5 4.5q-5 -1 -28.5 -21t-55.5 -46t-81 -50t-102 -36.5t-122 -1.5t-137 51q-83 48 -138.5 125.5t-72.5 165.5t-3 175.5t71.5 166t148.5 127.5q91 47 176.5 43.5t147.5 -32t105 -51.5t50 -14t-22 44t-71 85.5t-76 123t-36.5 156t47.5 185.5
q45 85 121.5 140t163.5 70t174 1.5t163 -63t120 -125.5q41 -71 54 -142t0.5 -128.5t-37 -110t-55.5 -92.5t-58 -71t-42.5 -51.5t-9.5 -27.5q7 -9 50 14t105 51t147.5 31.5t176.5 -43.5q91 -49 148.5 -127t71.5 -166t-2.5 -176t-72 -165t-138.5 -125z" />
    <glyph glyph-name="uni25C9" unicode="&#x25c9;" horiz-adv-x="2048" 
d="M1884 625q0 -362 -252 -617q-251 -254 -608 -254t-608 254q-252 255 -252 617q0 359 252 614q253 256 608 256t608 -256q252 -255 252 -614zM1802 625q0 330 -229 559q-227 233 -549 233q-321 0 -551 -233q-227 -230 -227 -559t227 -562q231 -231 551 -231q321 0 549 231
q229 232 229 562zM1321 625q0 -123 -88 -211q-86 -86 -209 -86q-122 0 -211 86q-86 89 -86 211q0 123 86 209q88 88 211 88q124 0 209 -88q88 -85 88 -209z" />
    <glyph glyph-name="uni25C8" unicode="&#x25c8;" horiz-adv-x="2048" 
d="M2015 618l-991 -989l-989 987l989 994zM1933 616l-909 910l-907 -910l907 -905zM1606 614l-588 -587l-588 587l588 586z" />
    <glyph glyph-name="uni25A3" unicode="&#x25a3;" horiz-adv-x="2048" 
d="M1874 -217h-1696v1683h1696v-1683zM1802 -145v1540h-1552v-1540h1552zM1583 70h-1118v1099h1118v-1099z" />
    <glyph glyph-name="uni25D0" unicode="&#x25d0;" horiz-adv-x="2048" 
d="M1907 600q1 -180 -69.5 -344.5t-189.5 -283t-283.5 -189t-344.5 -70.5t-344.5 70.5t-283.5 189t-189.5 283t-69.5 344.5q1 179 71.5 342.5t189.5 282t283 188.5t343 70t343 -70t283 -188.5t189.5 -282t71.5 -342.5zM1833 600q0 164 -64 314t-172.5 258.5t-258.5 172.5
t-314 64v-1618q164 0 314 64t258.5 172.5t172.5 258.5t64 314z" />
    <glyph glyph-name="uni25D1" unicode="&#x25d1;" horiz-adv-x="2048" 
d="M1911 600q1 -180 -69.5 -344.5t-189.5 -283t-283.5 -189t-344.5 -70.5t-344.5 70.5t-283.5 189t-189.5 283t-69.5 344.5q1 179 71.5 342.5t189.5 282t283 188.5t343 70t343 -70t283 -188.5t189.5 -282t71.5 -342.5zM1020 -209v1618q-164 0 -314 -64t-258.5 -172.5
t-172.5 -258.5t-64 -314t64 -314t172.5 -258.5t258.5 -172.5t314 -64z" />
    <glyph glyph-name="shade" unicode="&#x2592;" horiz-adv-x="2048" 
d="M1874 -217h-1696v1683h1696v-1683zM1815 -162v1573h-1575v-1573h1575zM1729 1282q-27 0 -38 21.5t0 43t38 21.5t38 -21.5t0 -43t-38 -21.5zM326 -119q-27 0 -38 21.5t0 43t38 21.5t38 -21.5t0 -43t-38 -21.5zM1614 1165q-27 0 -38 21.5t0 43t38 21.5t38 -21.5t0 -43
t-38 -21.5zM326 111q-27 0 -38 21.5t0 43t38 21.5t38 -21.5t0 -43t-38 -21.5zM1495 1282q-27 0 -38 21.5t0 43t38 21.5t38 -21.5t0 -43t-38 -21.5zM442 -4q-27 0 -38 21.5t0 43t38 21.5t38 -21.5t0 -43t-38 -21.5zM1729 1047q-27 0 -38 21.5t0 43t38 21.5t38 -21.5t0 -43
t-38 -21.5zM561 -119q-27 0 -38 21.5t0 43t38 21.5t38 -21.5t0 -43t-38 -21.5zM1262 1282q-27 0 -38 21.5t0 43t38 21.5t38 -21.5t0 -43t-38 -21.5zM326 344q-27 0 -38 21.5t0 43t38 21.5t38 -21.5t0 -43t-38 -21.5zM1378 1165q-27 0 -38 21.5t0 43t38 21.5t38 -21.5t0 -43
t-38 -21.5zM561 111q-27 0 -38 21.5t0 43t38 21.5t38 -21.5t0 -43t-38 -21.5zM1614 930q-27 0 -38 21.5t0 43t38 21.5t38 -21.5t0 -43t-38 -21.5zM442 229q-27 0 -38 21.5t0 43t38 21.5t38 -21.5t0 -43t-38 -21.5zM1495 1047q-27 0 -38 21.5t0 43t38 21.5t38 -21.5t0 -43
t-38 -21.5zM678 -4q-27 0 -38 21.5t0 43t38 21.5t38 -21.5t0 -43t-38 -21.5zM1726 813q-27 0 -38 21.5t0 43t38 21.5t38 -21.5t0 -43t-38 -21.5zM795 -119q-27 0 -38 21.5t0 43t38 21.5t38 -21.5t0 -43t-38 -21.5zM1028 1282q-27 0 -38 21.5t0 43t38 21.5t38 -21.5t0 -43
t-38 -21.5zM795 111q-27 0 -38 21.5t0 43t38 21.5t38 -21.5t0 -43t-38 -21.5zM1614 696q-27 0 -38 21.5t0 43t38 21.5t38 -21.5t0 -43t-38 -21.5zM561 344q-27 0 -38 21.5t0 43t38 21.5t38 -21.5t0 -43t-38 -21.5zM1143 1165q-27 0 -38 21.5t0 43t38 21.5t38 -21.5t0 -43
t-38 -21.5zM442 463q-27 0 -38 21.5t0 43t38 21.5t38 -21.5t0 -43t-38 -21.5zM1262 1047q-27 0 -38 21.5t0 43t38 21.5t38 -21.5t0 -43t-38 -21.5zM326 580q-27 0 -38 21.5t0 43t38 21.5t38 -21.5t0 -43t-38 -21.5zM1378 930q-27 0 -38 21.5t0 43t38 21.5t38 -21.5t0 -43
t-38 -21.5zM911 -4q-27 0 -38 21.5t0 43t38 21.5t38 -21.5t0 -43t-38 -21.5zM1493 813q-27 0 -38 21.5t0 43t38 21.5t38 -21.5t0 -43t-38 -21.5zM678 229q-27 0 -38 21.5t0 43t38 21.5t38 -21.5t0 -43t-38 -21.5zM1726 580q-27 0 -38 21.5t0 43t38 21.5t38 -21.5t0 -43
t-38 -21.5zM1028 -119q-27 0 -38 21.5t0 43t38 21.5t38 -21.5t0 -43t-38 -21.5zM795 1282q-27 0 -38 21.5t0 43t38 21.5t38 -21.5t0 -43t-38 -21.5zM1028 111q-27 0 -38 21.5t0 43t38 21.5t38 -21.5t0 -43t-38 -21.5zM1380 696q-27 0 -38 21.5t0 43t38 21.5t38 -21.5t0 -43
t-38 -21.5zM795 344q-27 0 -38 21.5t0 43t38 21.5t38 -21.5t0 -43t-38 -21.5zM909 1165q-27 0 -38 21.5t0 43t38 21.5t38 -21.5t0 -43t-38 -21.5zM559 580q-27 0 -38 21.5t0 43t38 21.5t38 -21.5t0 -43t-38 -21.5zM1612 463q-27 0 -38 21.5t0 43t38 21.5t38 -21.5t0 -43
t-38 -21.5zM326 813q-27 0 -38 21.5t0 43t38 21.5t38 -21.5t0 -43t-38 -21.5zM1028 1047q-27 0 -38 21.5t0 43t38 21.5t38 -21.5t0 -43t-38 -21.5zM1145 -4q-27 0 -38 21.5t0 43t38 21.5t38 -21.5t0 -43t-38 -21.5zM1143 930q-27 0 -38 21.5t0 43t38 21.5t38 -21.5t0 -43
t-38 -21.5zM911 229q-27 0 -38 21.5t0 43t38 21.5t38 -21.5t0 -43t-38 -21.5zM1260 813q-27 0 -38 21.5t0 43t38 21.5t38 -21.5t0 -43t-38 -21.5zM678 463q-27 0 -38 21.5t0 43t38 21.5t38 -21.5t0 -43t-38 -21.5zM1493 580q-27 0 -38 21.5t0 43t38 21.5t38 -21.5t0 -43
t-38 -21.5zM444 696q-27 0 -38 21.5t0 43t38 21.5t38 -21.5t0 -43t-38 -21.5zM1729 344q-27 0 -38 21.5t0 43t38 21.5t38 -21.5t0 -43t-38 -21.5zM1262 -119q-27 0 -38 21.5t0 43t38 21.5t38 -21.5t0 -43t-38 -21.5zM561 1282q-27 0 -38 21.5t0 43t38 21.5t38 -21.5t0 -43
t-38 -21.5zM1262 111q-27 0 -38 21.5t0 43t38 21.5t38 -21.5t0 -43t-38 -21.5zM678 1165q-27 0 -38 21.5t0 43t38 21.5t38 -21.5t0 -43t-38 -21.5zM1028 344q-27 0 -38 21.5t0 43t38 21.5t38 -21.5t0 -43t-38 -21.5zM1147 696q-27 0 -38 21.5t0 43t38 21.5t38 -21.5t0 -43
t-38 -21.5zM793 580q-27 0 -38 21.5t0 43t38 21.5t38 -21.5t0 -43t-38 -21.5zM1378 463q-27 0 -38 21.5t0 43t38 21.5t38 -21.5t0 -43t-38 -21.5zM559 813q-27 0 -38 21.5t0 43t38 21.5t38 -21.5t0 -43t-38 -21.5zM1612 229q-27 0 -38 21.5t0 43t38 21.5t38 -21.5t0 -43
t-38 -21.5zM326 1047q-27 0 -38 21.5t0 43t38 21.5t38 -21.5t0 -43t-38 -21.5zM795 1047q-27 0 -38 21.5t0 43t38 21.5t38 -21.5t0 -43t-38 -21.5zM1378 -4q-27 0 -38 21.5t0 43t38 21.5t38 -21.5t0 -43t-38 -21.5zM909 930q-27 0 -38 21.5t0 43t38 21.5t38 -21.5t0 -43
t-38 -21.5zM1145 229q-27 0 -38 21.5t0 43t38 21.5t38 -21.5t0 -43t-38 -21.5zM1026 813q-27 0 -38 21.5t0 43t38 21.5t38 -21.5t0 -43t-38 -21.5zM911 463q-27 0 -38 21.5t0 43t38 21.5t38 -21.5t0 -43t-38 -21.5zM1260 580q-27 0 -38 21.5t0 43t38 21.5t38 -21.5t0 -43
t-38 -21.5zM444 930q-27 0 -38 21.5t0 43t38 21.5t38 -21.5t0 -43t-38 -21.5zM1495 344q-27 0 -38 21.5t0 43t38 21.5t38 -21.5t0 -43t-38 -21.5zM1495 -119q-27 0 -38 21.5t0 43t38 21.5t38 -21.5t0 -43t-38 -21.5zM1729 111q-27 0 -38 21.5t0 43t38 21.5t38 -21.5t0 -43
t-38 -21.5zM680 696q-27 0 -38 21.5t0 43t38 21.5t38 -21.5t0 -43t-38 -21.5zM444 1165q-27 0 -38 21.5t0 43t38 21.5t38 -21.5t0 -43t-38 -21.5zM1495 111q-27 0 -38 21.5t0 43t38 21.5t38 -21.5t0 -43t-38 -21.5zM913 696q-27 0 -38 21.5t0 43t38 21.5t38 -21.5t0 -43
t-38 -21.5zM1262 344q-27 0 -38 21.5t0 43t38 21.5t38 -21.5t0 -43t-38 -21.5zM1729 -119q-27 0 -38 21.5t0 43t38 21.5t38 -21.5t0 -43t-38 -21.5zM1026 580q-27 0 -38 21.5t0 43t38 21.5t38 -21.5t0 -43t-38 -21.5zM326 1282q-27 0 -38 21.5t0 43t38 21.5t38 -21.5t0 -43
t-38 -21.5zM793 813q-27 0 -38 21.5t0 43t38 21.5t38 -21.5t0 -43t-38 -21.5zM561 1047q-27 0 -38 21.5t0 43t38 21.5t38 -21.5t0 -43t-38 -21.5zM1612 -4q-27 0 -38 21.5t0 43t38 21.5t38 -21.5t0 -43t-38 -21.5zM678 930q-27 0 -38 21.5t0 43t38 21.5t38 -21.5t0 -43
t-38 -21.5zM1378 229q-27 0 -38 21.5t0 43t38 21.5t38 -21.5t0 -43t-38 -21.5zM1145 463q-27 0 -38 21.5t0 43t38 21.5t38 -21.5t0 -43t-38 -21.5z" />
    <glyph glyph-name="uni25A4" unicode="&#x25a4;" horiz-adv-x="2048" 
d="M1874 -217h-1696v1683h1696v-1683zM1802 1243v152h-1552v-152h1552zM1802 -145v149h-1552v-149h1552zM1802 1010v161h-1552v-161h1552zM1802 76v162h-1552v-162h1552zM1802 776v162h-1552v-162h1552zM1802 309v162h-1552v-162h1552zM1802 543v162h-1552v-162h1552z" />
    <glyph glyph-name="uni25A5" unicode="&#x25a5;" horiz-adv-x="2048" 
d="M1866 -229h-1684v1693h1684v-1693zM1794 -158v1551h-158v-1551h158zM414 -158v1551h-160v-1551h160zM1565 -158v1551h-160v-1551h160zM641 -158v1551h-156v-1551h156zM1333 -158v1551h-159v-1551h159zM872 -158v1551h-159v-1551h159zM1102 -158v1551h-158v-1551h158z" />
    <glyph glyph-name="uni25A8" unicode="&#x25a8;" horiz-adv-x="2048" 
d="M1882 -221h-1696v1683h1696v-1683zM1802 315v289l-747 -754h284zM616 1391h-358v-373zM1802 -150v373l-370 -373h370zM1008 1391h-287l-463 -461v-295zM1802 698v287l-1134 -1135h286zM1401 1391h-289l-854 -854v-291zM1802 1083v254l-1493 -1487h258zM1749 1391h-250
l-1241 -1239v-252z" />
    <glyph glyph-name="uni25A7" unicode="&#x25a7;" horiz-adv-x="2048" 
d="M1882 -225h-1696v1683h1696v-1683zM1802 1022v364h-362zM616 -154l-358 363v-363h358zM1802 637v285l-463 464h-284zM1008 -154l-750 754v-291l463 -463h287zM1802 252v287l-848 847h-286zM1395 -154l-1137 1141v-287l854 -854h283zM1802 -106v260l-1235 1232h-258z
M1745 -154l-1487 1491v-250l1241 -1241h246z" />
    <glyph glyph-name="uni25A6" unicode="&#x25a6;" horiz-adv-x="2048" 
d="M1864 -225h-1680v1679h1680v-1679zM1790 1225v155h-156v-155h156zM414 -152v156h-156v-156h156zM1561 1225v155h-156v-155h156zM643 -152v156h-156v-156h156zM1790 995v156h-156v-156h156zM414 78v155h-156v-155h156zM1331 1225v155h-155v-155h155zM872 -152v156h-155
v-156h155zM1561 995v156h-156v-156h156zM643 78v155h-156v-155h156zM1790 766v156h-156v-156h156zM414 307v156h-156v-156h156zM1102 1225v155h-156v-155h156zM1102 -152v156h-156v-156h156zM1331 995v156h-155v-156h155zM872 78v155h-155v-155h155zM1561 766v156h-156v-156
h156zM643 307v156h-156v-156h156zM1790 537v155h-156v-155h156zM414 537v155h-156v-155h156zM872 1225v155h-155v-155h155zM1331 -152v156h-155v-156h155zM1102 995v156h-156v-156h156zM1102 78v155h-156v-155h156zM1331 766v156h-155v-156h155zM872 307v156h-155v-156h155z
M1561 537v155h-156v-155h156zM643 537v155h-156v-155h156zM1790 307v156h-156v-156h156zM414 766v156h-156v-156h156zM643 1225v155h-156v-155h156zM1561 -152v156h-156v-156h156zM872 995v156h-155v-156h155zM1331 78v155h-155v-155h155zM1102 766v156h-156v-156h156z
M1102 307v156h-156v-156h156zM1331 537v155h-155v-155h155zM872 537v155h-155v-155h155zM1561 307v156h-156v-156h156zM643 766v156h-156v-156h156zM1790 78v155h-156v-155h156zM414 995v156h-156v-156h156zM414 1225v155h-156v-155h156zM1790 -152v156h-156v-156h156z
M643 995v156h-156v-156h156zM1561 78v155h-156v-155h156zM872 766v156h-155v-156h155zM1331 307v156h-155v-156h155zM1102 537v155h-156v-155h156z" />
    <glyph glyph-name="uni25A9" unicode="&#x25a9;" horiz-adv-x="2048" 
d="M1882 -225h-1696v1683h1696v-1683zM1749 1386h-252l-29 -34l123 -123zM416 53l-121 129l-37 -39v-249zM1802 1075v256l-157 -157l124 -123zM594 -131l-127 133l-156 -156h260zM1544 1182l-125 125l-143 -144l123 -125zM788 66l-126 131l-146 -148l129 -129zM1724 1001
l-127 127l-143 -143l129 -127zM612 250l-125 123l-147 -148l125 -123zM1372 1356l-31 30h-229l-29 -28l148 -146zM981 -127l-141 143l-148 -145l27 -25h237zM1802 694v228l-28 30l-144 -145l144 -143zM438 424l-145 143l-35 -37v-221l33 -35zM1178 1165l-144 142l-143 -144
l143 -141zM985 264l-129 127l-145 -145l129 -129zM1726 618l-145 142l-145 -142l145 -143zM1180 72l-146 141l-145 -145l145 -144zM1352 987l-125 127l-144 -143l127 -125zM805 442l-125 125l-145 -145l124 -123zM1534 809l-129 127l-145 -141l129 -129zM631 618l-146 144
l-145 -146l145 -143zM1802 311v224l-30 34l-144 -143l146 -145zM438 813l-145 143l-35 -32v-226l33 -34zM981 1360l-29 26h-231l-27 -26l146 -143zM1368 -121l-139 144l-148 -146l27 -31h233zM1722 231l-143 144l-129 -127l145 -142zM805 788l-146 146l-124 -125l145 -145z
M985 971l-145 143l-129 -127l145 -143zM1352 244l-144 143l-127 -125l144 -143zM1159 795l-125 125l-129 -127l125 -123zM1159 436l-129 129l-125 -125l129 -129zM788 1165l-143 144l-129 -129l143 -142zM610 985l-145 145l-125 -126l145 -144zM1339 616l-129 127l-129 -127
l129 -129zM981 616l-127 125l-125 -127l127 -122zM1532 424l-146 141l-129 -127l148 -141zM1542 53l-143 144l-123 -129l139 -140zM1802 -100v252l-33 34l-129 -127zM418 1180l-160 157v-252l37 -34zM592 1362l-27 24h-256l158 -155zM1751 -154l-162 160l-125 -127l27 -33
h260z" />
    <glyph glyph-name="uni2668" unicode="&#x2668;" horiz-adv-x="2048" 
d="M1483 610q8 -78 -10 -152.5t-42.5 -118.5t-61.5 -100t-48 -77q-20 -39 -35.5 -86.5t-24.5 -70t-22 -25.5t-21 38t-5 101t20 102q134 333 59 502q-37 85 -52.5 157.5t-9 138.5t20 114.5t41.5 119.5q13 33 21 80t11 76.5t7 30.5q5 1 14.5 -12t19.5 -42t17.5 -68t7.5 -99.5
t-10 -128.5q-13 -67 -0.5 -131.5t31.5 -102t42 -105t30 -141.5zM1929 162q7 -100 -61.5 -188.5t-185 -148.5t-263 -96.5t-297.5 -41.5q-300 -9 -530 42t-352.5 147.5t-122.5 223.5q0 51 20 98t51 83t76 69t87 55.5t91.5 43.5t81.5 32t66 21q23 7 29 -10q6 -19 -19 -31l-6 -2
q-9 -3 -32 -14t-59.5 -31t-73.5 -48.5t-70.5 -61.5t-54.5 -75t-21 -84q0 -57 66.5 -102.5t176.5 -73t241.5 -42t270.5 -13.5q118 1 247.5 21t242.5 55t187 88.5t75 114.5q1 45 -29.5 90t-74 77t-85.5 54.5t-71 29.5q-26 7 -20.5 23t28.5 14q26 -2 83.5 -24t126.5 -60
t122.5 -101.5t58.5 -133.5zM1184 582q9 -46 -3 -107t-43 -130.5t-49 -104.5t-47 -86q-31 -55 -48.5 -105.5t-23 -67.5t-16.5 -16q-17 1 -28.5 41.5t-6 113t34.5 144.5q31 74 40 157t0 151t-20.5 113.5t-23.5 72.5q-25 59 -39.5 112t-15 100.5t2.5 83t18 77t24.5 64t30.5 63
t28 55.5q26 55 38.5 117t15.5 94t6 32q18 1 38 -59t24 -148.5t-29 -191.5q-22 -64 -25 -121.5t10 -110.5t30.5 -100t40.5 -114.5t36 -128.5zM860 526q10 -112 -125 -376q-24 -48 -38 -92.5t-19.5 -57.5t-18.5 -12q-11 0 -23.5 34t-15.5 87.5t19 119.5q19 54 33.5 127.5
t14 179.5t-31.5 181q-111 271 50 569q14 26 28.5 67.5t23.5 67.5t13 25q9 -1 16.5 -15.5t12.5 -45t5 -71.5t-9.5 -102t-28.5 -129q-16 -58 2 -144.5t50.5 -205t41.5 -207.5z" />
    <glyph glyph-name="uni260F" unicode="&#x260f;" horiz-adv-x="2048" 
d="M2001 705q-15 -26 -61 -31.5t-96 2.5t-105 24q-50 14 -98.5 33t-90 49t-39.5 58q1 12 15 56t20.5 74.5t-4.5 63.5q-6 11 -24 21t-35 15.5t-38 10.5t-24 6q-20 -160 17 -276q20 -63 39.5 -106.5t45 -76t46 -53t60 -57.5t69.5 -69q24 -26 43 -57t30.5 -61.5t19.5 -60
t12 -57t6 -47t2.5 -35t0.5 -16.5q38 -4 49.5 -72t-3.5 -123q-2 -10 -15.5 -16.5t-36 -8t-42 -1.5t-45 1t-33.5 1h-1311q-12 0 -41.5 -1t-45.5 -1t-37 3t-31.5 11.5t-12.5 23.5q-18 177 49 183q0 1 0.5 14.5t2 27t4 36.5t8 45t13 49.5t19.5 54t27.5 53.5t37 53.5t46.5 49.5
q4 4 25.5 23.5t26.5 24t23.5 22t24.5 25t21.5 25t22 29t18.5 30.5t19 35.5t15 38t15 44.5q8 29 14 58t8.5 54.5t4 46t0.5 43t-2 34.5t-3 31t-2 23q-3 -1 -28.5 -7t-43 -11.5t-35.5 -18t-20 -28.5q-4 -34 17 -107t18 -86q-9 -32 -61 -62t-127 -52q-55 -16 -91.5 -24.5
t-85 -15.5t-80 2t-45.5 34q-34 64 -16.5 159t76.5 181q48 70 159 124.5t246 84.5t262 45t234 16q395 3 748 -139q60 -24 110.5 -68.5t82 -97t48.5 -108.5t13.5 -109t-25.5 -92zM1221 942v148q-13 -3 -35 -7t-74 -10.5t-86 -5.5q-29 1 -72 6.5t-72 10.5l-28 6v-148h367z
M1800 -57q8 0 12.5 35t-7 70t-42.5 34q0 3 -2 31.5t-6 60.5t-12 72t-25.5 80t-42.5 69q-16 20 -67.5 69.5t-88.5 90t-78 116t-59 160.5q-6 28 -8 92.5t-1 115.5l1 51h-110v-191h-455v191h-115q16 -249 -53 -390q-7 -16 -17 -32.5t-19 -30.5t-23 -31.5t-22.5 -28.5t-25.5 -29
t-24.5 -26t-26.5 -26.5t-24 -23t-25 -23.5t-22 -21q-30 -28 -52 -71t-33 -87.5t-17 -82t-8.5 -68t-2.5 -31.5q-33 -1 -45 -37t-6 -72t16 -36h1536zM1409 414q0 -160 -112.5 -272.5t-272.5 -112.5t-272.5 112.5t-112.5 272.5t112.5 272.5t272.5 112.5t272.5 -112.5
t112.5 -272.5zM1358 414q0 138 -98 236t-236 98t-236 -98t-98 -236t98 -236t236 -98t236 98t98 236zM1952 729q16 2 21.5 33t-2.5 78t-27.5 97.5t-58.5 98t-89 74.5q-146 79 -358.5 122.5t-403.5 43.5q-236 0 -463.5 -54t-326.5 -132q-51 -40 -84.5 -90.5t-46 -95.5t-14 -85
t7 -65t20.5 -31q34 -17 168 19t197 77q17 11 6.5 49t-23 79.5t7.5 88.5q24 47 102.5 77.5t196.5 23.5q7 0 100 -13t148 -14q57 -1 141 12t117 15q76 6 137.5 -6t95.5 -32.5t52 -38.5t22 -30q10 -29 -12 -96.5t-20 -93.5q2 -21 71 -52t163.5 -50.5t154.5 -8.5z" />
    <glyph glyph-name="uni260E" unicode="&#x260e;" horiz-adv-x="2048" 
d="M2001 705q-15 -26 -61 -31.5t-96 2.5t-105 24q-50 14 -98.5 33t-90 49t-39.5 58q1 12 15 56t20.5 74.5t-4.5 63.5q-10 21 -48.5 34.5t-72.5 18.5q0 -3 -2.5 -33.5t-2.5 -52.5t0.5 -56.5t6 -68.5t15.5 -65q20 -63 39.5 -106.5t45 -76t46 -53t60 -57.5t69.5 -69
q33 -35 56 -78t34 -86t15.5 -73t6.5 -64l2 -33q40 -4 51.5 -58t-3.5 -133q-2 -13 -14 -20.5t-32.5 -9.5t-39 -1.5t-46.5 2t-42 1.5h-1311q-14 0 -41.5 -2t-45 -2t-37.5 2.5t-31 12t-13 25.5q-24 176 49 183q0 242 158 383q87 77 117 113q63 76 94 184q38 134 20 295
q-3 -1 -21.5 -6t-33 -9.5t-32 -12.5t-28 -18.5t-12.5 -23.5q-4 -34 17 -107t18 -86q-9 -32 -61 -62t-127 -52q-55 -16 -91.5 -24.5t-85 -15.5t-80 2t-45.5 34q-34 64 -16.5 159t76.5 181q48 70 159 124.5t246 84.5t262 45t234 16q395 3 748 -139q60 -24 110.5 -68.5t82 -97
t48.5 -108.5t13.5 -109t-25.5 -92zM1243 1075q-1 0 -43.5 -5t-89.5 -9t-84 -4q-83 0 -209 26q0 -6 -1 -39t0 -55t5 -35q2 -6 9.5 -10t21.5 -6.5t26.5 -3.5t34 -1.5t35 -0.5h38h34.5q18 0 52 -1t56 -1t47.5 1t40 6t19.5 13q14 23 8 125zM1407 387q7 107 -45 203t-146.5 153.5
t-205.5 55.5q-87 -1 -159.5 -35.5t-117.5 -87t-71 -110t-31 -111.5q-9 -93 19 -173.5t82 -134.5t127 -84.5t153 -31.5q148 -2 267 102.5t128 253.5z" />
    <glyph glyph-name="uni261C" unicode="&#x261c;" horiz-adv-x="2048" 
d="M1802 375h-157v43h-54q-8 -2 -54 -24.5t-124.5 -48.5t-173.5 -40q-35 -5 -102.5 -6t-125.5 0.5t-113 3.5t-58 2q-42 2 -75 19t-40 49q-8 36 31 67q-47 6 -66 33q-16 20 -13.5 40t12 33.5t22.5 22.5q-82 12 -84 68q-1 31 21 51t51.5 24.5t58 7t39.5 -0.5l-6 18
q-79 6 -357 17q-15 1 -36 0t-46 0.5t-49.5 3t-47 8t-40 16t-27 26t-8.5 38.5q1 16 11.5 29t31 21t39.5 13.5t48 8t45 4t42 2t27 0.5q152 8 594 8q12 0 52 0.5t61 0.5t62.5 -2.5t69 -7t67 -13.5t69.5 -22t64 -34t63 -47q4 -4 34 -6.5t58 -2.5l29 -1v65h155v-487zM1769 408
v421h-90v-421h90zM1100 399q-3 17 -25 25t-39 8h-102q-26 0 -74 -1t-59 -1q-23 -1 -33 -19.5t-3 -38.5t26 -26q35 -10 233 -10q26 0 53.5 16t22.5 47zM1647 444v318l-91 6q10 -38 4 -38.5t-30 25.5q-5 4 -7.5 7t-7.5 8l-8.5 8.5t-9 8.5t-10.5 9t-10.5 9t-11.5 9.5t-12 9.5
t-12.5 9.5t-13.5 8.5q-53 34 -194 49.5t-189 7.5q-19 -3 -65.5 -18.5t-71.5 -32.5q-19 -13 -43.5 -53.5t-42.5 -53.5q-2 -2 3 -8t19 -8.5t44 8.5q23 8 45.5 29t34.5 32.5t18 4.5q9 -11 -6 -33q67 -10 84 -6q14 3 28.5 9.5t23.5 12t17.5 10.5t11.5 5t5 -4q1 -8 -10 -24.5
t-19 -25.5q78 -78 164 -106q45 -14 95.5 -20.5t73 -10t22.5 -14.5q-3 -13 -66 -8.5t-115 18.5q-124 38 -207 137q-18 -6 -45 -6q-52 0 -88 12l-32 -26q31 0 76.5 -12.5t58.5 -36.5q24 -41 -23 -88q55 -18 64 -56q4 -8 1.5 -17.5t-4 -14.5t-8 -12t-9.5 -9.5t-9.5 -7.5
t-7.5 -6q68 -17 72 -58q4 -44 -27 -69q28 -3 74 0q69 5 138 21.5t118.5 35.5t89.5 38t60 31l20 11q6 3 5 -9q-1 -2 -2 -7l-1 -9h39zM1065 506q7 28 -22.5 41.5t-67.5 13.5h-203q-22 0 -40.5 -14.5t-18 -36t27.5 -37.5q15 -8 215 -8q29 0 66.5 10.5t42.5 30.5zM1010 600
q19 13 22 30t-13 32.5t-48 21.5q-74 12 -183 8q-32 -1 -46 -2.5t-33 -7t-33 -16.5q-23 -19 -8 -43.5t43 -26.5q2 -4 118 -4q168 0 181 8zM938 899q-9 -1 -97.5 -1t-211 -2t-203.5 -5q-145 -7 -178 -18q-32 -11 -33 -33q-1 -18 8.5 -28t40.5 -15.5t61.5 -7.5t100.5 -5
q310 -11 387 -16q36 54 43 66q22 35 82 65z" />
    <glyph glyph-name="uni261E" unicode="&#x261e;" horiz-adv-x="2048" 
d="M1868 846q1 -22 -8.5 -38.5t-27 -26t-40 -16t-47 -8t-49.5 -3t-46 -0.5t-36 0q-278 -11 -357 -17l-6 -18q11 3 39.5 0.5t58 -7t51.5 -24.5t21 -51q-2 -56 -84 -68q13 -9 22.5 -22.5t12 -33.5t-13.5 -40q-19 -27 -66 -33q39 -31 31 -67q-7 -32 -40 -49t-75 -19
q-3 0 -58 -2t-113 -3.5t-125.5 -0.5t-102.5 6q-95 14 -173.5 40t-124.5 48.5t-54 24.5h-54v-43h-157v487h155v-65q113 2 121 10q29 26 63 47t64 34t69.5 22t67 13.5t69 7t62.5 2.5t61 -0.5t52 -0.5q442 0 594 -8q1 0 27 -0.5t42 -2t45 -4t48 -8t39.5 -13.5t31 -21t11.5 -29z
M1833 840q-2 33 -79 42q-31 4 -132 9q-81 3 -203.5 5t-211 2t-97.5 1q60 -30 82 -65q7 -12 43 -66q77 5 387 16q70 3 100.5 5t61.5 7.5t40.5 15.5t8.5 28zM369 408v421h-90v-421h90zM1372 666q-14 11 -33 16.5t-33 7t-46 2.5q-109 4 -183 -8q-32 -6 -48 -21.5t-13 -32.5
t22 -30q13 -8 181 -8q116 0 118 4q28 2 43 26.5t-8 43.5zM1227 741q-18 13 -42.5 53.5t-43.5 53.5q-25 17 -71.5 32.5t-65.5 18.5q-48 8 -189 -7.5t-194 -49.5q-13 -8 -25.5 -17.5t-24 -19.5t-20 -17.5t-19 -18l-14.5 -14.5q-25 -26 -29.5 -25.5t3.5 38.5l-91 -6v-318h39
q0 2 -1 9q-4 16 1 16q1 1 2 0l20 -11q20 -12 60 -31t89.5 -38t118.5 -35.5t138 -21.5q46 -3 74 0q-31 25 -27 69q4 41 72 58q-1 1 -7.5 6t-9.5 7.5t-9.5 9.5t-8 12t-4 14.5t1.5 17.5q9 38 64 56q-47 47 -23 88q13 24 58.5 36.5t76.5 12.5l-32 26q-36 -12 -88 -12
q-27 0 -45 6q-83 -99 -207 -137q-52 -14 -115 -18.5t-66 8.5q0 11 22.5 14.5t73 10t95.5 20.5q86 28 164 106q-8 9 -19 25.5t-10 24.5q2 4 5 4t11.5 -5t17.5 -10.5t23.5 -12t28.5 -9.5q17 -4 84 6q-15 22 -6 33q6 7 18 -4.5t34.5 -32.5t45.5 -29q30 -11 44 -8.5t19 8.5t3 8z
M1307 473q27 16 27.5 37.5t-18 36t-40.5 14.5h-203q-38 0 -67.5 -13.5t-22.5 -41.5q5 -20 42.5 -30.5t66.5 -10.5q200 0 215 8zM1257 346q19 6 26 26t-3 38.5t-33 19.5q-11 0 -59 1t-74 1h-102q-17 0 -39 -8t-25 -25q-5 -31 22.5 -47t53.5 -16q198 0 233 10z" />
    <glyph glyph-name="paragraph" unicode="&#xb6;" horiz-adv-x="2048" 
d="M1044 -330h-120v1813h-285v-1813h-121v1022q-126 0 -234 48.5t-176.5 143.5t-68.5 218q0 88 29 168.5t85 146.5t149.5 105t211.5 39h530v-1891z" />
    <glyph glyph-name="dagger" unicode="&#x2020;" horiz-adv-x="2048" 
d="M1470 1063q-2 -61 -71 -94t-158 -6q-28 8 -57 15.5t-53.5 13t-30.5 7.5v-31q-1 -30 2 -45.5t20.5 -47.5t48.5 -62q6 -6 16 -15q27 -25 28.5 -33.5t-14.5 -34.5q-7 -10 -11 -17l-12 -21t-15 -28q-45 -88 -61.5 -254.5t-20 -380t-10.5 -285.5q-8 -82 -26 -108t-36 4t-26 98
q-9 73 -14.5 219.5t-9.5 268t-23.5 255t-56.5 209.5q-7 15 -15.5 30t-13 20.5t-6.5 14.5t-3 11t5 11t10 12.5t18.5 19t26.5 27.5q13 14 22 30.5t14 29t8.5 31.5t4 27t1.5 26t1 19q-6 -2 -61 -17t-111 -36q-32 -13 -70 -7.5t-71 21t-54.5 45.5t-19.5 64q3 41 41.5 71
t87.5 35.5t97 -8.5q37 -14 93.5 -31t71.5 -24q-10 97 -38 188q-21 77 -18.5 142t36.5 107t92 42q60 0 90.5 -42t29.5 -107.5t-18 -143.5q-2 -8 -32 -184q47 14 149 57q57 20 107 13t83.5 -40.5t32.5 -80.5z" />
    <glyph glyph-name="daggerdbl" unicode="&#x2021;" horiz-adv-x="2048" 
d="M1470 743q-2 -61 -71 -94t-158 -6q-26 7 -58 15t-53.5 13.5t-29.5 8.5q0 -1 -1.5 -21.5t0 -33.5t7.5 -36t22.5 -47t42.5 -48q25 -23 35.5 -36t10 -25t-6.5 -19.5t-21 -28t-26 -41.5q-46 -88 -62 -175.5t-19.5 -226t-10.5 -208.5q-7 -68 -25 -94.5t-36.5 -2t-26.5 90.5
q-7 62 -17.5 209.5t-27.5 238.5t-57 191q-6 16 -17.5 33t-16.5 25.5t-4.5 21.5t14.5 29t44 40q26 20 39 47.5t14 46t-0.5 42.5t-1.5 28q-8 -3 -62.5 -18t-109.5 -35q-32 -13 -70 -7.5t-71 21t-54.5 45.5t-19.5 64q3 41 41.5 71t87.5 35.5t97 -8.5q39 -15 96 -32.5t69 -22.5
q1 35 0.5 107t-2.5 99q-123 -40 -186 -55q-22 -8 -56.5 -3t-67 16t-56 39.5t-23.5 66.5q0 42 39.5 73t88 37t91.5 -4q148 -46 168 -49q-3 85 -34 187q-20 77 -17.5 141.5t36.5 105t91 37.5q50 -3 80.5 -29t38.5 -68.5t4.5 -88t-16.5 -98.5q-26 -104 -35 -187q16 5 53 21
t74 27.5t73 15.5q64 6 117 -26t53 -89t-48 -89.5t-113 -27.5q-90 6 -211 45q-4 -22 -5 -108t-1 -92q7 2 155 55q84 30 154 -4t69 -105z" />
    <glyph glyph-name="arrowupdn" unicode="&#x2195;" horiz-adv-x="2048" 
d="M1395 63l-371 -411l-369 411l328 -165v1433l-328 -166l369 412l371 -412l-330 166v-1433z" />
    <glyph glyph-name="uni2197" unicode="&#x2197;" horiz-adv-x="2048" 
d="M1982 1575l-30 -551l-115 348l-1737 -1734l-59 57l1739 1735l-348 116z" />
    <glyph glyph-name="uni2199" unicode="&#x2199;" horiz-adv-x="2048" 
d="M1985 1518l-1719 -1717l348 -116l-551 -29l31 551l115 -348l1716 1716z" />
    <glyph glyph-name="uni2196" unicode="&#x2196;" horiz-adv-x="2048" 
d="M1991 -287l-60 -57l-1722 1718l-115 -348l-31 551l551 -29l-348 -116z" />
    <glyph glyph-name="uni2198" unicode="&#x2198;" horiz-adv-x="2048" 
d="M1964 -328l-551 29l348 117l-1693 1698l59 57l1692 -1698l114 348z" />
    <glyph glyph-name="uni266D" unicode="&#x266d;" horiz-adv-x="2048" 
d="M1319 289q-24 -73 -64 -135t-82 -102t-94.5 -72.5t-94 -50t-88.5 -30t-69.5 -16t-46.5 -6.5v1509h86v-897q3 9 10 22.5t22.5 36.5t34 44t47.5 40.5t61 30.5t75.5 10t89.5 -18q53 -19 86 -59t43.5 -91t6 -106t-22.5 -110zM1137 559q-33 13 -63 12t-52.5 -9t-45.5 -29
t-36.5 -37.5t-30.5 -47.5t-23.5 -45.5t-19.5 -42.5v-405q19 3 44 11t62.5 25t79 48.5t76.5 73.5q50 59 73.5 157t7 183t-71.5 106z" />
    <glyph glyph-name="uni2669" unicode="&#x2669;" horiz-adv-x="2048" 
d="M1067 195q0 -111 -14.5 -166t-65.5 -117q-38 -47 -90 -78.5t-112.5 -38.5t-112.5 31q-36 26 -41 69.5t16 88t58.5 85.5t80.5 64q27 14 51 25t38 17t34 11.5t25.5 6.5t25.5 4.5t21 3.5v1229l86 8v-1243z" />
    <glyph glyph-name="musicalnote" unicode="&#x266a;" horiz-adv-x="2048" 
d="M1450 428q-26 -48 -87.5 -111t-116 -102.5t-66.5 -32.5q-11 11 -8 21t20 33t39.5 46t50 60t52.5 75.5t47.5 91.5t33.5 109q12 58 -17 113t-76.5 93.5t-111.5 72.5t-110.5 51.5t-85.5 28.5v-774q0 -111 -14.5 -166t-65.5 -117q-38 -47 -90 -78.5t-112.5 -38.5t-113.5 31
q-36 26 -40.5 69.5t16.5 88t58.5 85.5t80.5 64q27 14 51 25t38 17t34 11.5t25.5 6.5t25.5 4.5t21 3.5v1130q0 7 -0.5 25t-0.5 28t1.5 23t5 19t10.5 6q18 -1 33 -14.5t31 -36.5t61 -70t107 -98q94 -77 161 -144t110.5 -123.5t64.5 -112.5t27 -102t-6 -101t-31 -101t-52 -109z
" />
    <glyph glyph-name="uni266C" unicode="&#x266c;" horiz-adv-x="2048" 
d="M1683 426q0 -222 -139 -348q-32 -29 -66 -50t-69.5 -34.5t-70 -10.5t-60.5 25q-36 33 -30 85t38 107t78 95q93 83 233 100v422l-790 -170v-520q0 -70 -42.5 -142t-109.5 -128q-43 -36 -91.5 -57t-100 -16.5t-82.5 44.5q-27 38 -18 86t40.5 94t73.5 76q97 71 240 86v981
l966 197v-922zM1597 1030v88l-790 -170v-86z" />
    <glyph glyph-name="uni327F" unicode="&#x327f;" horiz-adv-x="2048" 
d="M1997 655h-92q-6 177 -78 334.5t-190 270.5t-279 179t-338 66q-173 0 -330 -64t-271.5 -172.5t-188.5 -254.5t-89 -307h363v-93h-463q0 138 34.5 266.5t96.5 236.5t151.5 197t197 151t235.5 96t264 34q156 0 302 -46.5t265 -132.5t210 -201.5t143 -259.5t57 -300z
M1997 614q-1 -205 -81.5 -386.5t-213.5 -308t-311 -200t-371 -73.5q-197 0 -374.5 71.5t-307 194.5t-209 295t-88.5 366h98q10 -187 88 -346t199.5 -264.5t274 -164.5t313.5 -60q224 -2 419.5 102t319.5 284t148 398h-365v92h461zM1542 23h-176l-569 589v-589h-135v1226h135
v-508l532 508h170l-598 -563z" />
    <glyph glyph-name="uni321C" unicode="&#x321c;" horiz-adv-x="2048" 
d="M2009 631q1 -146 -30.5 -286.5t-78.5 -243.5t-105.5 -192t-107.5 -141.5t-90 -82.5l-55 49q76 71 124 131q228 284 262 650q5 60 5 120q0 115 -25 229.5t-64 208t-93 183t-105.5 155t-107.5 123.5l55 45q28 -19 74 -69.5t106.5 -141.5t112 -198t87.5 -251t36 -288z
M514 1534q-399 -432 -399 -897q0 -82 10.5 -162t27.5 -146.5t41.5 -130.5t50.5 -115t56 -99t56 -82.5t53 -66.5t44.5 -50t33 -33t16.5 -16l-49 -51q-38 27 -87 79t-108 141.5t-107 194t-80.5 246t-31.5 287.5q0 144 36 288t87.5 251t112 198t106.5 141.5t74 69.5zM1638 870
q7 -2 8 -7t-2 -11.5t-7 -13t-10 -15t-9 -14.5q-7 -13 -22 -36t-23 -38q-65 6 -194.5 46.5t-233.5 115.5q-95 66 -125 125q-73 -100 -217 -186q-142 -83 -332 -111q-20 20 -47 45q-43 40 -46 49.5t11 11.5q4 1 51 10.5t81 17.5t89.5 29t102.5 48q113 64 171.5 138.5
t61.5 133.5h-485v119h1124v-119h-495q6 -50 44 -105.5t95 -98.5q97 -72 221.5 -103t187.5 -31zM1759 424h-659v-619h-150v619h-680v131h1489v-131z" />
    <glyph glyph-name="afii61352" unicode="&#x2116;" horiz-adv-x="2048" 
d="M1882 477q0 -135 -47.5 -250t-132.5 -183.5t-189 -68.5q-103 0 -184 69t-124.5 183t-43.5 250q0 150 45 269t128.5 187t191.5 68q165 0 260.5 -144.5t95.5 -379.5zM1747 477q0 171 -62 287.5t-163 116.5q-92 0 -159 -114.5t-67 -289.5q0 -150 65.5 -258t156.5 -108
t160 106t69 260zM1090 0h-152l-688 1157v-1157h-144v1425h146l694 -1153v1153h144v-1425zM2005 59q0 -40 -23.5 -65t-60.5 -27t-64 22.5t-28 61.5q-2 37 22.5 64t61.5 28q37 2 64.5 -23t27.5 -61z" />
    <glyph glyph-name="uni33C7" unicode="&#x33c7;" horiz-adv-x="2048" 
d="M1882 477q0 -135 -47.5 -250t-132.5 -183.5t-189 -68.5q-103 0 -184 69t-124.5 183t-43.5 250q0 150 45 269t128.5 187t191.5 68q165 0 260.5 -144.5t95.5 -379.5zM1747 477q0 171 -62 287.5t-163 116.5q-92 0 -159 -114.5t-67 -289.5q0 -150 65.5 -258t156.5 -108
t160 106t69 260zM1124 315q-53 -112 -98 -170q-145 -190 -377 -190q-130 0 -240.5 47t-193 135.5t-129.5 225.5t-47 307q0 185 44 338.5t122 257.5t186 161.5t234 57.5q75 0 140 -18.5t110.5 -45.5t85.5 -68.5t64 -77t45.5 -82.5t30.5 -73t19 -59l-139 -41q-6 26 -17 58
t-39.5 84t-64.5 92t-96 70t-131 30q-88 0 -163 -40t-126 -107.5t-87 -156t-52.5 -185t-16.5 -195.5q0 -87 15 -167.5t51 -157t89 -132t135 -89.5t184 -34q61 0 115.5 23t89 54t64 73.5t43 69.5t23.5 55zM2005 59q0 -42 -23 -66t-61 -26q-37 -2 -64 22.5t-28 61.5
q-2 37 22.5 64t61.5 28q37 2 64.5 -23t27.5 -61z" />
    <glyph glyph-name="trademark" unicode="&#x2122;" horiz-adv-x="2048" 
d="M1942 0h-154v846l-219 -846h-72l-246 868v-868h-153v1425h149l285 -1028l260 1028h150v-1425zM989 1278h-375v-1278h-157v1278h-375v147h907v-147z" />
    <glyph glyph-name="uni33C2" unicode="&#x33c2;" horiz-adv-x="2048" 
d="M2017 63q0 -40 -24 -65t-60 -27q-35 -2 -63 23.5t-29 60.5q-2 35 23.5 63t60.5 29q36 2 64 -23.5t28 -60.5zM565 0h-141v76q-9 -9 -25.5 -23t-63.5 -38.5t-91 -28.5q-60 -5 -109.5 30t-62.5 105q-23 118 24.5 210t126.5 142q38 24 88.5 44t81.5 28l31 8v133q0 21 -0.5 34
t-4.5 37.5t-12 39t-24 26t-39 11.5q-111 0 -108 -134h-138q0 22 3.5 45.5t12.5 55t28 59t45 51.5t68.5 38t94.5 14q55 0 96 -19.5t63 -47.5t35.5 -65.5t17 -65.5t3.5 -56v-709zM410 213v205q-42 -8 -92 -35.5t-72 -54.5q-27 -34 -41.5 -73.5t-9 -75t33.5 -50.5q29 -16 84 13
t97 71zM793 63q0 -43 -23.5 -66.5t-60.5 -25.5q-35 -2 -63.5 23.5t-29.5 60.5q-2 35 23.5 63t60.5 29q36 2 64.5 -23.5t28.5 -60.5zM1790 0h-143v625q0 38 -4 67t-14.5 57t-32.5 43t-54 15q-73 0 -115.5 -67.5t-42.5 -143.5v-596h-143v616q0 47 -4 78.5t-16 59t-36 40.5
t-61 13q-64 0 -101.5 -56t-37.5 -104v-647h-143v954h143v-75q3 3 12.5 11.5t12.5 11t11 9.5t12 9t12 7t14.5 6.5t16 4t19.5 3.5t22.5 2t27.5 1q39 0 71 -11t53 -31.5t33 -36.5t24 -38t13 -24q16 24 24 35t31 35t44.5 36.5t57 23.5t75.5 11q56 0 97.5 -22.5t64 -54.5
t36 -76.5t17.5 -80t4 -73.5v-637z" />
    <glyph glyph-name="uni33D8" unicode="&#x33d8;" horiz-adv-x="2048" 
d="M2017 63q0 -40 -24 -65t-60 -27q-35 -2 -63 23.5t-29 60.5q-2 35 23.5 63t60.5 29q36 2 64 -23.5t28 -60.5zM666 440q0 -116 -32.5 -215t-101 -164t-159.5 -65q-56 0 -93.5 9.5t-70.5 37.5v-405h-143v1314h143v-61q31 22 46.5 32t48.5 20.5t71 10.5q80 0 139 -43.5
t91 -118.5t46.5 -162.5t14.5 -189.5zM524 449q0 183 -48.5 278.5t-113.5 95.5q-15 0 -29.5 -3.5t-25.5 -8t-23 -13.5t-19 -15t-17.5 -19t-14 -18t-13 -18.5t-11.5 -16.5v-498q4 -4 18.5 -20t23 -23t24 -17.5t35 -15t44.5 -4.5q76 0 123 84.5t47 231.5zM1790 0h-143v625
q0 38 -4 67t-14.5 57t-32.5 43t-54 15q-73 0 -115.5 -67.5t-42.5 -143.5v-596h-143v616q0 47 -4 78.5t-16 59t-36 40.5t-61 13q-64 0 -101.5 -56t-37.5 -104v-647h-143v954h143v-75q3 3 12.5 11.5t12.5 11t11 9.5t12 9t12 7t14.5 6.5t16 4t19.5 3.5t22.5 2t27.5 1
q39 0 71 -11t53 -31.5t33 -36.5t24 -38t13 -24q16 24 24 35t31 35t44.5 36.5t57 23.5t75.5 11q56 0 97.5 -22.5t64 -54.5t36 -76.5t17.5 -80t4 -73.5v-637zM793 63q0 -43 -23.5 -66.5t-60.5 -25.5q-35 -2 -63.5 23.5t-29.5 60.5q-2 35 23.5 63t60.5 29q36 2 64.5 -23.5
t28.5 -60.5z" />
    <glyph glyph-name="uni2121" unicode="&#x2121;" horiz-adv-x="2048" 
d="M1942 0h-154l4 1425h150v-1425zM1599 426h-585q0 -6 -0.5 -17t2.5 -42t10 -59.5t24.5 -63.5t43 -60.5t69 -44t99.5 -20.5q46 -1 80.5 11t56.5 37t33 45t25 52q3 8 5 12l125 -47q-87 -252 -325 -252q-184 0 -295 136t-111 372q0 96 25 183t72.5 157.5t123.5 112t170 41.5
q65 0 118.5 -22.5t89.5 -59t63.5 -86t43 -100.5t25 -106t11.5 -98t1 -81zM1442 553q0 26 -11 70.5t-32 96.5t-62 89t-92 37q-47 0 -85.5 -19t-63.5 -48.5t-43 -69.5t-26.5 -78t-12.5 -78h428zM989 1278h-375v-1278h-157v1278h-375v147h907v-147z" />
    <glyph glyph-name="uniFF01" unicode="&#xff01;" 
d="M965 457h-125l-33 1130h188zM795 59v205h213v-205h-213z" />
    <glyph glyph-name="uniFF02" unicode="&#xff02;" 
d="M1081 1141h-88l-37 458h160zM809 1141h-86l-37 458h160z" />
    <glyph glyph-name="uniFF03" unicode="&#xff03;" 
d="M1182 1042l-68 -417h189v-123h-205l-56 -361h-143l57 361h-219l-55 -361h-143l57 361h-176v123h192l68 417h-180v123h196l56 361h143l-57 -361h219l55 361h143l-57 -361h184v-123h-200zM819 1042l-65 -417h219l67 417h-221z" />
    <glyph glyph-name="uniFF04" unicode="&#xff04;" 
d="M1362 514q-20 -155 -125 -244t-272 -104v-133h-123v133q-190 20 -295.5 134t-108.5 298h150q0 -264 254 -305v500q-48 13 -85 25t-75.5 29.5t-66.5 36.5t-53.5 45.5t-41.5 57t-25.5 71t-9.5 87.5q0 140 102 231t255 111v106h123v-106q161 -18 261.5 -114.5t100.5 -246.5
v-8h-147q1 103 -55 163.5t-160 78.5v-461q63 -19 112 -38t105.5 -50t94 -66t62.5 -86t25 -110q0 -25 -2 -35zM842 1360q-92 -16 -149.5 -67t-57.5 -134q0 -48 14.5 -84t45.5 -61.5t63 -41.5t84 -36v424zM965 760v-467q107 16 178 80t71 164q0 141 -249 223z" />
    <glyph glyph-name="uniFF05" unicode="&#xff05;" 
d="M1282 145q-140 0 -229.5 91t-89.5 233q0 143 89 234.5t230 91.5q142 0 232 -91.5t90 -234.5q0 -142 -90 -233t-232 -91zM1282 651q-78 0 -129 -51.5t-51 -130.5q0 -78 51 -129t129 -51q79 0 130.5 51t51.5 129q0 79 -51 130.5t-131 51.5zM518 872q-140 0 -229.5 92
t-89.5 234t89.5 233t229.5 91q142 0 232 -91t90 -233t-90 -234t-232 -92zM518 1382q-79 0 -130.5 -52t-51.5 -132q0 -81 51 -132.5t131 -51.5q82 0 133 51t51 133q0 80 -51.5 132t-132.5 52zM631 141h-154l692 1385h154z" />
    <glyph glyph-name="uniFF06" unicode="&#xff06;" 
d="M1300 178l-124 154q-191 -191 -416 -191q-108 0 -208 45.5t-166.5 133t-66.5 196.5q0 70 29 136.5t81 121.5t110.5 99t128.5 83q-43 51 -68.5 84.5t-54.5 80t-42.5 92.5t-13.5 94q0 91 52 158t130 98.5t169 31.5q93 0 172 -32t130.5 -100t51.5 -160q0 -66 -25 -124
t-71 -104.5t-98.5 -82.5t-120.5 -70l292 -361q34 58 60 138t29 139h149q-30 -223 -143 -394l217 -266h-183zM838 1468h2q-79 0 -139 -40.5t-60 -118.5q0 -115 156 -285q252 116 252 276q0 81 -64 124.5t-147 43.5zM752 852h2q-52 -28 -97 -59.5t-89.5 -74.5t-70.5 -95.5
t-26 -108.5q0 -73 45 -129t109.5 -82.5t134.5 -26.5q181 0 330 162z" />
    <glyph glyph-name="uniFF07" unicode="&#xff07;" 
d="M946 1141h-88l-37 458h160z" />
    <glyph glyph-name="uniFF08" unicode="&#xff08;" 
d="M995 -10q-299 452 -299 803q0 353 297 802h113q-248 -428 -248 -802q0 -381 248 -803h-111z" />
    <glyph glyph-name="uniFF09" unicode="&#xff09;" 
d="M809 -10h-113q246 431 246 803q0 377 -246 802h111q299 -452 299 -802q0 -354 -297 -803z" />
    <glyph glyph-name="uniFF0A" unicode="&#xff0a;" 
d="M1169 1061l-223 133l12 -258h-112l12 258l-225 -133l-55 98l225 117l-219 119l57 100l217 -137l-12 250h112l-12 -250l215 137l56 -98l-218 -119l226 -119z" />
    <glyph glyph-name="uniFF0B" unicode="&#xff0b;" 
d="M983 760v-469h-164v469h-457v143h457v465h164v-465h457v-143h-457z" />
    <glyph glyph-name="uniFF0C" unicode="&#xff0c;" 
d="M842 -223l-47 59q66 19 96.5 69.5t30.5 117.5h-129v202h217v-151q0 -246 -168 -297z" />
    <glyph glyph-name="uniFF0D" unicode="&#xff0d;" 
d="M389 758v143h1024v-143h-1024z" />
    <glyph glyph-name="uniFF0E" unicode="&#xff0e;" 
d="M793 -18v202h217v-202h-217z" />
    <glyph glyph-name="uniFF0F" unicode="&#xff0f;" 
d="M733 27h-141l479 1568h139z" />
    <glyph glyph-name="uniFF10" unicode="&#xff10;" 
d="M899 133q-102 0 -186.5 43.5t-140 114t-93.5 163t-54.5 186.5t-16.5 189t16.5 189t54.5 186.5t93.5 162.5t140 113.5t186.5 43.5t187 -43t141 -113.5t95 -162.5t56 -186.5t17 -189.5t-17 -189.5t-56 -187t-95 -162.5t-141 -113.5t-187 -43.5zM899 1386q-61 0 -111 -28.5
t-82.5 -77t-56.5 -106.5t-37 -123t-18.5 -119t-5.5 -103q0 -60 7.5 -126.5t29 -146t54.5 -141t90.5 -103.5t129.5 -42t129.5 41.5t91 103.5t55 141t29.5 146t8 127q0 49 -6 103.5t-18.5 119.5t-37 122.5t-57.5 106t-83 77t-111 28.5z" />
    <glyph glyph-name="uniFF11" unicode="&#xff11;" 
d="M971 150v987h-293v118q133 5 225 66.5t105 187.5h116v-1359h-153z" />
    <glyph glyph-name="uniFF12" unicode="&#xff12;" 
d="M1036 684q-21 -15 -62.5 -42.5t-62.5 -41.5q-12 -9 -37 -26.5t-43 -31.5t-34 -28q-121 -102 -158 -231h702v-129h-886q2 84 24 158t53 127.5t81.5 106.5t94.5 88t105 77q21 14 133 90q69 49 115 92q117 110 117 237q0 118 -70.5 197.5t-187.5 79.5q-120 0 -195.5 -82.5
t-83.5 -204.5h-147q8 186 128 302t306 116q181 0 300.5 -112.5t119.5 -292.5q0 -77 -24 -143.5t-72 -121.5t-96.5 -95.5t-119.5 -88.5z" />
    <glyph glyph-name="uniFF13" unicode="&#xff13;" 
d="M477 1157q-1 176 119.5 278.5t302.5 102.5q168 0 292 -111t124 -276q0 -195 -201 -289q117 -62 181.5 -150.5t64.5 -199.5q0 -118 -67.5 -210.5t-171 -139.5t-220.5 -47q-122 0 -225.5 52t-167 148t-66.5 217h150q3 -126 91 -205t216 -79q120 0 203.5 76.5t83.5 195.5
q0 92 -53 156t-142 88q-64 18 -178 18v131q124 -5 180 23q71 31 113.5 93t42.5 138q0 106 -74.5 172t-181.5 66q-119 0 -193 -66t-75 -182h-148z" />
    <glyph glyph-name="uniFF14" unicode="&#xff14;" 
d="M1188 414v-264h-152v264h-628v178l620 917h160v-970h207v-125h-207zM1036 1280l-491 -741h491v741z" />
    <glyph glyph-name="uniFF15" unicode="&#xff15;" 
d="M893 115q-170 0 -291.5 99.5t-150.5 264.5h153q17 -104 98 -167.5t187 -63.5q137 0 214 93t77 230q0 140 -81 238t-220 98q-72 0 -137 -33t-109 -92l-148 2l105 715h706v-141h-573l-61 -400q140 82 266 82q125 0 223 -65t149.5 -170t51.5 -230q0 -201 -129 -330.5
t-330 -129.5z" />
    <glyph glyph-name="uniFF16" unicode="&#xff16;" 
d="M924 115q-162 0 -279 99.5t-172 262.5q-39 118 -39 322q0 245 58 403q57 153 169.5 245.5t266.5 92.5q163 0 285.5 -102t150.5 -262h-152q-20 100 -98.5 165.5t-179.5 65.5q-66 0 -122 -29.5t-93.5 -76.5t-63.5 -107.5t-37.5 -121t-11.5 -118.5q0 -28 2 -65
q142 145 318 145q127 0 229 -63.5t157.5 -170t55.5 -233.5q0 -191 -127 -321.5t-317 -130.5zM918 891q-88 0 -154.5 -46.5t-98.5 -119t-32 -158.5q0 -133 76.5 -228t208.5 -95t209 95t77 228q0 135 -77 229.5t-209 94.5z" />
    <glyph glyph-name="uniFF17" unicode="&#xff17;" 
d="M834 147h-189q12 150 61.5 314.5t126 322t164 300.5t189.5 280h-731v139h893v-155q-85 -100 -175.5 -250t-167 -315t-125 -337t-46.5 -299z" />
    <glyph glyph-name="uniFF18" unicode="&#xff18;" 
d="M901 119q-75 0 -146.5 16t-135 49t-111 80t-75 113.5t-27.5 144.5q0 104 65 194.5t172 155.5q-86 56 -137 135.5t-51 166.5q0 116 65.5 200.5t164.5 124t214 39.5q85 0 164 -23.5t143 -67.5t102 -114.5t38 -158.5q0 -87 -50.5 -165.5t-136.5 -134.5q107 -66 172.5 -157.5
t65.5 -194.5q0 -97 -42.5 -175.5t-113.5 -127t-158.5 -74.5t-181.5 -26zM897 1411q-113 0 -196 -61.5t-83 -173.5q0 -75 42.5 -129.5t104 -78.5t132.5 -24t134 24t107 78.5t44 129.5q0 111 -85.5 173t-199.5 62zM899 799q-84 0 -157.5 -29.5t-123 -94t-49.5 -153.5
q0 -67 28.5 -121.5t75.5 -88t105 -51t121 -17.5t121.5 17.5t106 51t76 88t28.5 121.5q0 89 -50 153.5t-124 94t-158 29.5z" />
    <glyph glyph-name="uniFF19" unicode="&#xff19;" 
d="M1315 453q-57 -153 -167.5 -244.5t-264.5 -91.5q-107 0 -203 45.5t-161 130t-79 190.5h156q17 -100 100 -167.5t185 -67.5q68 0 123.5 30t91 77.5t60 109.5t34.5 122.5t10 119.5q0 9 -0.5 19t-1.5 27.5t-2 34.5q-157 -163 -342 -163q-123 0 -221 65.5t-149.5 171
t-51.5 228.5q0 191 128 321.5t319 130.5q159 0 275 -95.5t171 -252.5q45 -126 45 -344q0 -243 -55 -397zM883 1411q-133 0 -210 -93.5t-77 -227.5t77.5 -229t209.5 -95t209 94.5t77 229.5q0 133 -77 227t-209 94z" />
    <glyph glyph-name="uniFF1A" unicode="&#xff1a;" 
d="M793 1087v203h217v-203h-217zM793 369v202h217v-202h-217z" />
    <glyph glyph-name="uniFF1B" unicode="&#xff1b;" 
d="M842 82l-47 59q66 19 96.5 69.5t30.5 117.5h-129v202h217v-151q0 -246 -168 -297zM793 1087v203h217v-203h-217z" />
    <glyph glyph-name="uniFF1C" unicode="&#xff1c;" 
d="M1090 -39l-506 848l503 848l132 -64l-471 -784l471 -784z" />
    <glyph glyph-name="uniFF1D" unicode="&#xff1d;" 
d="M408 1004v145h987v-145h-987zM408 510v145h987v-145h-987z" />
    <glyph glyph-name="uniFF1E" unicode="&#xff1e;" 
d="M713 -39l-129 64l469 784l-469 784l127 64l508 -848z" />
    <glyph glyph-name="uniFF1F" unicode="&#xff1f;" 
d="M1155 940q-4 -3 -27.5 -24.5t-29 -26.5t-25.5 -24.5t-26 -28t-20.5 -27.5t-19.5 -32.5t-13 -32.5t-10.5 -38t-2.5 -40v-207h-160v203q0 107 41.5 178.5t118.5 138.5q5 5 26.5 24t28 25t25 24t25 27t20 26t18.5 30.5t12.5 31t10 36t2.5 38.5q0 101 -77 161t-179 60
q-118 0 -188 -73.5t-68 -190.5h-160v21q0 180 119 284.5t303 104.5q80 0 155 -22.5t136 -64.5t98 -109.5t37 -149.5q0 -58 -13.5 -106.5t-40.5 -88.5t-52 -66t-64 -61zM795 63v205h211v-205h-211z" />
    <glyph glyph-name="uniFF20" unicode="&#xff20;" 
d="M1442 399q-81 -43 -162 -43q-144 0 -229 129q-158 -129 -293 -129q-117 0 -190.5 95.5t-73.5 218.5q0 107 53 214.5t139 178.5q60 49 135.5 82t145.5 33q125 0 190 -136l31 117h145l-147 -532q0 -4 -1 -16.5t-1 -16.5q0 -44 23 -75.5t69 -31.5q30 0 82 25q20 11 28 14
q2 1 29 19q80 53 120 140t40 187q0 121 -51 230.5t-135 186.5t-196.5 122t-231.5 45q-144 0 -278 -62.5t-230.5 -165t-154.5 -239t-58 -278.5q0 -113 37.5 -205.5t101 -156t150 -106.5t183 -63t201.5 -20q186 0 349 59l47 -127q-184 -84 -402 -84q-123 0 -242 28t-224 86
t-184.5 138t-126 191.5t-46.5 240.5q0 176 67.5 340.5t182 286.5t275 195t337.5 73q212 0 402 -102q163 -89 266.5 -264.5t103.5 -360.5q0 -151 -72 -270.5t-204 -190.5zM946 1057q-66 0 -123.5 -36.5t-93.5 -93t-56 -121t-20 -124.5q0 -82 45.5 -139.5t128.5 -57.5
q59 0 112 43.5t87 107t54 130.5t20 119q0 75 -39.5 123.5t-114.5 48.5z" />
    <glyph glyph-name="uniFF21" unicode="&#xff21;" 
d="M1358 168l-135 334h-643l-136 -334h-161l516 1327h200l521 -1327h-162zM899 1350l-264 -707h530z" />
    <glyph glyph-name="uniFF22" unicode="&#xff22;" 
d="M1358 389q-60 -111 -174 -166t-250 -55h-528v1329h542q102 0 189.5 -36.5t144.5 -113t57 -178.5q0 -180 -186 -286q114 -53 179 -141t65 -197q0 -83 -39 -156zM915 1358h-356v-422h354q102 0 181.5 59t79.5 160q0 68 -41 116t-97.5 67.5t-120.5 19.5zM934 797h-375v-488
h371q55 0 107 15t96 44t71 77t27 108q0 79 -46 136t-112 82.5t-139 25.5z" />
    <glyph glyph-name="uniFF23" unicode="&#xff23;" 
d="M918 133q-142 0 -258.5 57t-191 154.5t-115 224t-40.5 267.5q0 143 39.5 267t113.5 219t190 149.5t259 54.5q129 0 246 -47.5t204.5 -141t121.5 -217.5h-176q-45 124 -148 198.5t-233 74.5q-109 0 -197 -48.5t-141.5 -128.5t-82 -177.5t-28.5 -202.5q0 -83 16 -163
t51 -153.5t85.5 -129.5t124.5 -89t162 -33q140 0 247 87t144 223h178q-51 -200 -207.5 -322.5t-363.5 -122.5z" />
    <glyph glyph-name="uniFF24" unicode="&#xff24;" 
d="M817 164q-73 0 -221 1t-223 1v1329h442q184 0 326 -91.5t215.5 -243t73.5 -335.5q0 -137 -42.5 -258t-120.5 -210.5t-194 -141t-256 -51.5zM780 1356h-254v-1053h254q146 0 257 72t167 189.5t56 260.5t-55.5 262.5t-166.5 194t-258 74.5z" />
    <glyph glyph-name="uniFF25" unicode="&#xff25;" 
d="M446 166l-2 1327h899v-139h-745v-428h713v-140h-713v-483h760v-137h-912z" />
    <glyph glyph-name="uniFF26" unicode="&#xff26;" 
d="M608 1352v-445h645v-143h-645v-598h-153v1327h893v-141h-740z" />
    <glyph glyph-name="uniFF27" unicode="&#xff27;" 
d="M1339 172v209q-168 -252 -434 -252q-111 0 -208 39t-167.5 107t-121.5 157.5t-76 192.5t-25 211q0 143 39.5 267t113.5 219t190 149.5t259 54.5q199 0 360.5 -110.5t211.5 -297.5h-178q-45 124 -148.5 199.5t-234.5 75.5q-109 0 -196.5 -48.5t-140.5 -128.5t-80.5 -177.5
t-27.5 -202.5q0 -85 15.5 -165t50.5 -153.5t85 -128t124 -87t163 -32.5q179 0 298 123t124 309l-399 3v133h559v-666h-156z" />
    <glyph glyph-name="uniFF28" unicode="&#xff28;" 
d="M1253 164v631h-706v-631h-154v1327h154v-557h706v557h156v-1327h-156z" />
    <glyph glyph-name="uniFF29" unicode="&#xff29;" 
d="M825 170l-2 1323h156v-1323h-154z" />
    <glyph glyph-name="uniFF2A" unicode="&#xff2a;" 
d="M903 125q-162 0 -269.5 97t-107.5 255v109h154v-76q5 -104 62 -177t159 -73q101 0 160 74t59 176v975h156v-1008q0 -158 -106.5 -255t-266.5 -97z" />
    <glyph glyph-name="uniFF2B" unicode="&#xff2b;" 
d="M1268 166l-559 641l-205 -205v-436h-154v1331h154v-684l659 684h199l-545 -573l635 -758h-184z" />
    <glyph glyph-name="uniFF2C" unicode="&#xff2c;" 
d="M463 164l-2 1329h153v-1192h727v-137h-878z" />
    <glyph glyph-name="uniFF2D" unicode="&#xff2d;" 
d="M1368 164v1026l-360 -1026h-209l-363 1026v-1026h-157v1333h192l430 -1165l428 1165h195v-1333h-156z" />
    <glyph glyph-name="uniFF2E" unicode="&#xff2e;" 
d="M1221 162l-682 1112v-1112h-154v1335h193l684 -1110v1110h155v-1335h-196z" />
    <glyph glyph-name="uniFF2F" unicode="&#xff2f;" 
d="M901 131q-143 0 -261 56.5t-195 152.5t-118.5 221.5t-41.5 265.5t41.5 265t118.5 220.5t195 151.5t261 56t261 -56t195 -151.5t119 -220.5t42 -265t-42 -265.5t-119 -221.5t-195 -152.5t-261 -56.5zM901 1384q-110 0 -198 -49.5t-140.5 -130.5t-80 -178t-27.5 -199
t27.5 -199t80 -178t140.5 -130.5t198 -49.5t197 49.5t139 130.5t79 178t27 199t-27 199t-79 178t-139 130.5t-197 49.5z" />
    <glyph glyph-name="uniFF30" unicode="&#xff30;" 
d="M946 700h-383v-536h-155v1327h536q122 0 223 -44.5t164.5 -135.5t63.5 -213q0 -121 -62.5 -213t-164 -138.5t-222.5 -46.5zM946 1352h-385v-512h383q119 0 204 70.5t85 187.5q0 118 -83.5 186t-203.5 68z" />
    <glyph glyph-name="uniFF31" unicode="&#xff31;" 
d="M1477 131q-18 -24 -41 -47l-189 152q-160 -101 -346 -101q-143 0 -261 56.5t-195 152.5t-118.5 221.5t-41.5 265.5q0 111 26 213.5t78 190t125 152t172.5 101t214.5 36.5q143 0 261 -56t195 -151.5t119 -220.5t42 -265q0 -138 -44 -269.5t-131 -237.5l173 -146
q-3 -6 -39 -47zM899 1386q-89 0 -163.5 -32.5t-125.5 -87t-86.5 -126.5t-52 -150t-16.5 -159t16.5 -159t52 -151t86.5 -128t125.5 -88t163.5 -33q115 0 234 72l-166 150l77 92l181 -152q116 170 116 406q0 82 -16 159.5t-51 148.5t-85.5 123.5t-125 83.5t-164.5 31z" />
    <glyph glyph-name="uniFF32" unicode="&#xff32;" 
d="M1231 162l-389 567h-310v-567h-155v1331h536q86 0 166.5 -25t144 -70.5t102 -118.5t38.5 -161q0 -138 -92.5 -237t-243.5 -140l397 -579h-194zM930 1352h-400v-482h383q115 0 200 67t85 181q0 110 -79 172t-189 62z" />
    <glyph glyph-name="uniFF33" unicode="&#xff33;" 
d="M942 121q-147 0 -270.5 56t-202.5 167t-86 258h170q10 -154 117.5 -247t263.5 -93q80 0 149.5 27.5t116.5 88.5t47 146q0 68 -34.5 112.5t-98.5 74.5q-61 28 -131 43q-39 10 -149 32q-51 12 -87.5 22t-81.5 26.5t-76 35t-63 46.5t-51 61t-31 78.5t-12 99.5q0 92 39.5 166
t106 120t148.5 70.5t171 24.5q129 0 237 -46.5t176.5 -142t71.5 -223.5h-168q-3 129 -90.5 206t-218.5 77q-54 0 -105.5 -15.5t-95 -44.5t-70 -76.5t-26.5 -105.5q0 -121 133 -184q66 -30 131 -47q74 -21 150 -39q49 -13 86.5 -24.5t81 -29.5t74.5 -38t62 -48.5t50 -62
t31 -78t12 -96.5q0 -127 -69 -219t-175 -135t-233 -43z" />
    <glyph glyph-name="uniFF34" unicode="&#xff34;" 
d="M979 1354v-1184h-156v1184h-426v141h1008v-141h-426z" />
    <glyph glyph-name="uniFF35" unicode="&#xff35;" 
d="M1411 565q0 -104 -42 -188.5t-113.5 -138t-162.5 -82.5t-192 -29t-192 29t-162.5 82.5t-113.5 138t-42 188.5v930h154v-911q0 -147 101.5 -233.5t250.5 -86.5q147 0 249.5 86.5t102.5 233.5v911h162v-930z" />
    <glyph glyph-name="uniFF36" unicode="&#xff36;" 
d="M1001 160h-200l-514 1335h170l444 -1163l445 1163h170z" />
    <glyph glyph-name="uniFF37" unicode="&#xff37;" 
d="M1362 166h-180l-281 1104l-280 -1104h-179l-348 1331h158l278 -1110l273 1110h192l275 -1112l280 1112h158z" />
    <glyph glyph-name="uniFF38" unicode="&#xff38;" 
d="M1280 162l-379 551l-377 -551h-190l473 686l-449 649h189l352 -512l354 512h189l-449 -647l475 -688h-188z" />
    <glyph glyph-name="uniFF39" unicode="&#xff39;" 
d="M981 717v-553h-158v553l-495 778h184l387 -616l389 616h187z" />
    <glyph glyph-name="uniFF3A" unicode="&#xff3a;" 
d="M389 164l-2 127l801 1067h-744v139h953v-121l-809 -1077h827v-135h-1026z" />
    <glyph glyph-name="uniFF3B" unicode="&#xff3b;" 
d="M713 27v1568h377v-125h-238v-1320h238v-123h-377z" />
    <glyph glyph-name="uniFFE6" unicode="&#xffe6;" 
d="M1563 911l-199 -764h-182l-191 764h-178l-190 -764h-179l-200 764h-234v125h201l-113 434h158l109 -434h335l107 434h192l109 -434h336l110 434h154l-113 -434h197v-125h-229zM903 1268l-59 -232h117zM395 911l137 -542l138 542h-275zM1139 911l135 -544l139 544h-274z
" />
    <glyph glyph-name="uniFF3D" unicode="&#xff3d;" 
d="M713 25v122h235v1321h-235v125h377v-1568h-377z" />
    <glyph glyph-name="uniFF3E" unicode="&#xff3e;" 
d="M1143 1008l-240 575l-241 -575h-160l315 737h166l317 -737h-157z" />
    <glyph glyph-name="uniFF3F" unicode="&#xff3f;" 
d="M1802 -408h-1802v84h1802v-84z" />
    <glyph glyph-name="uniFF40" unicode="&#xff40;" 
d="M983 1145l-244 350l138 80l186 -383z" />
    <glyph glyph-name="uniFF41" unicode="&#xff41;" 
d="M1210 160q-28 47 -28 155q-82 -97 -186.5 -144.5t-217.5 -47.5q-65 0 -126 17.5t-111.5 51t-80.5 88t-30 121.5q0 99 65 168t167 95q44 12 186 30q62 5 133 15q69 7 123 26q78 30 78 96q0 51 -26 90.5t-67.5 61t-86 32.5t-89.5 11q-42 0 -86 -10.5t-85.5 -31t-66 -59
t-20.5 -87.5h-159q0 2 -1 6t-1 6q0 76 38.5 135.5t101 93.5t133.5 51t144 17q60 0 119 -11t115.5 -35t99.5 -59t69.5 -88t26.5 -116v-533q0 -78 31 -145h-162zM1182 682q-53 -62 -197 -80q-30 -5 -117 -14q-57 -6 -94 -19q-70 -22 -123 -65t-53 -107q0 -52 36 -88t81 -49.5
t92 -13.5q76 0 166 33q82 33 145.5 96.5t63.5 142.5v164z" />
    <glyph glyph-name="uniFF42" unicode="&#xff42;" 
d="M911 127q-181 0 -331 164v-121h-154v1321h154v-504q149 162 333 162q136 0 243.5 -71.5t163.5 -186t56 -248.5t-57 -251t-165 -191t-243 -74zM889 1008q-101 0 -173 -54.5t-104 -135t-32 -175.5q0 -56 11.5 -109t36.5 -101.5t60.5 -85t87.5 -58t113 -21.5q99 0 172 56.5
t107 140t34 178.5t-34 176.5t-107 135t-172 53.5z" />
    <glyph glyph-name="uniFF43" unicode="&#xff43;" 
d="M922 123q-144 0 -256.5 68t-172 184.5t-59.5 259.5q0 147 57 263t167.5 183.5t256.5 67.5q161 0 289 -87.5t164 -236.5h-178q-26 88 -99.5 140.5t-166.5 52.5q-78 0 -140.5 -33t-100.5 -87.5t-58.5 -122t-20.5 -140.5q0 -72 19.5 -138.5t57 -121t99.5 -87t140 -32.5
q93 0 166.5 51t99.5 139h182q-45 -149 -166.5 -236t-279.5 -87z" />
    <glyph glyph-name="uniFF44" unicode="&#xff44;" 
d="M1223 170v121q-150 -164 -332 -164q-135 0 -243 74t-165 191t-57 251t56 248.5t163.5 186t243.5 71.5q185 0 334 -162v504h153v-1321h-153zM915 1008q-76 0 -137 -31t-99 -83t-58.5 -116.5t-20.5 -134.5q0 -96 34 -179t107.5 -139.5t173.5 -56.5q75 0 135.5 32.5t97.5 87
t56 120t19 135.5t-19 134t-56 116.5t-97 83.5t-136 31z" />
    <glyph glyph-name="uniFF45" unicode="&#xff45;" 
d="M1384 590h-792q5 -146 93 -239t226 -93q84 0 153.5 39.5t98.5 114.5h183q-49 -136 -164.5 -212.5t-263.5 -76.5q-145 0 -259.5 67t-177.5 184.5t-63 262.5q0 143 60 258.5t172 182.5t255 67q120 0 214 -46t151.5 -124.5t86.5 -176.5t27 -208zM901 1010q-129 0 -211 -81
t-96 -216h614q-7 134 -92 215.5t-215 81.5z" />
    <glyph glyph-name="uniFF46" unicode="&#xff46;" 
d="M961 985v-819h-154v819h-145v125h145v129q0 52 8 91t21 66.5t37.5 46t48 29t62.5 15.5t72 6.5t85 1.5v-125q-129 0 -162 -59q-15 -28 -18 -78v-123h180v-125h-180z" />
    <glyph glyph-name="uniFF47" unicode="&#xff47;" 
d="M932 -254q-76 0 -151.5 20t-142 57t-111.5 98.5t-54 137.5h160q6 -47 37.5 -85t76 -59.5t91.5 -32.5t90 -11q133 0 214 75.5t81 207.5v204q-150 -163 -340 -163q-128 0 -233.5 65t-164.5 174.5t-59 237.5q0 129 59 236.5t164.5 171t233.5 63.5q188 0 340 -158v119h153
v-946q0 -193 -124.5 -302.5t-319.5 -109.5zM911 1004q-141 0 -226 -95t-85 -237t85 -241t226 -99t226.5 99t85.5 241q0 141 -86 236.5t-226 95.5z" />
    <glyph glyph-name="uniFF48" unicode="&#xff48;" 
d="M1165 168v580q0 112 -58 188t-169 76q-122 0 -210.5 -87.5t-88.5 -209.5v-547h-156v1327h154v-500q160 160 356 160q150 0 238 -91t88 -241v-655h-154z" />
    <glyph glyph-name="uniFF49" unicode="&#xff49;" 
d="M825 1333l-2 160h156v-160h-154zM823 168v944h156v-944h-156z" />
    <glyph glyph-name="uniFF4A" unicode="&#xff4a;" 
d="M895 1335v160h156v-160h-156zM752 -260v123q86 1 114.5 33t28.5 122v1096h156v-1120q0 -61 -6.5 -103t-24 -70.5t-37.5 -44.5t-59 -24t-74.5 -10t-97.5 -2z" />
    <glyph glyph-name="uniFF4B" unicode="&#xff4b;" 
d="M1171 166l-415 498l-146 -123v-375h-155v1329h153v-786l463 407h195l-408 -364l490 -586h-177z" />
    <glyph glyph-name="uniFF4C" unicode="&#xff4c;" 
d="M825 166l-2 1325h156v-1325h-154z" />
    <glyph glyph-name="uniFF4D" unicode="&#xff4d;" 
d="M1415 164v588q0 44 -9 85.5t-28.5 79.5t-57 61t-87.5 23q-73 0 -132.5 -43.5t-90.5 -108.5t-31 -134v-551h-154v588q0 44 -9 85.5t-28.5 79.5t-57 61t-87.5 23q-73 0 -132.5 -43.5t-90.5 -108.5t-31 -134v-551h-156v936h154v-139q69 84 155 130t173 46q166 0 241 -181
q70 85 155.5 134t176.5 49q93 0 158 -49t94 -124t29 -167v-635h-154z" />
    <glyph glyph-name="uniFF4E" unicode="&#xff4e;" 
d="M1165 164v559q0 112 -58 188t-169 76q-122 0 -210.5 -87.5t-88.5 -209.5v-526h-156v934h154v-127q159 159 356 159q150 0 238 -90.5t88 -240.5v-635h-154z" />
    <glyph glyph-name="uniFF4F" unicode="&#xff4f;" 
d="M901 127q-218 0 -352.5 144t-134.5 364q0 219 134 364.5t351 145.5q219 0 354.5 -145.5t135.5 -364.5q0 -220 -134.5 -364t-353.5 -144zM901 1012q-101 0 -174.5 -57t-107 -140.5t-33.5 -179.5q0 -71 19.5 -137.5t57 -120.5t99 -86.5t137.5 -32.5q102 0 176 56.5t108 140
t34 180.5q0 56 -12 110t-38 102.5t-62.5 85t-89 58t-114.5 21.5z" />
    <glyph glyph-name="uniFF50" unicode="&#xff50;" 
d="M918 137q-189 0 -338 162v-559h-154v1358h154v-121q151 164 335 164q138 0 244.5 -70t161.5 -183.5t55 -248.5q0 -136 -54 -249.5t-160 -183t-244 -69.5zM891 999q-76 0 -137 -30.5t-98 -81.5t-56.5 -114.5t-19.5 -133.5q0 -96 32.5 -176t105 -133.5t173.5 -53.5
t173.5 53.5t105 133.5t32.5 176q0 70 -19.5 133.5t-56.5 114.5t-98 81.5t-137 30.5z" />
    <glyph glyph-name="uniFF51" unicode="&#xff51;" 
d="M1223 -260v559q-146 -162 -338 -162q-138 0 -244 69.5t-160.5 183t-54.5 249.5q0 135 55 248t161.5 182.5t244.5 69.5q188 0 336 -164v121h153v-1356h-153zM911 997q-76 0 -137 -30t-98 -81t-56.5 -114t-19.5 -133q0 -96 32.5 -176t105 -133.5t173.5 -53.5q76 0 137 30.5
t98.5 82t57 115.5t19.5 135q0 70 -20 133t-57.5 114t-98 81t-136.5 30z" />
    <glyph glyph-name="uniFF52" unicode="&#xff52;" 
d="M803 602v-438h-156v944h154v-188q129 213 354 219v-160q-172 -3 -262 -103t-90 -274z" />
    <glyph glyph-name="uniFF53" unicode="&#xff53;" 
d="M1133 850q1 43 -24 75.5t-64 49.5t-77.5 25t-74.5 8q-31 0 -64.5 -7t-68 -22t-56.5 -44t-22 -67q0 -41 27 -68t79 -50q62 -24 105 -35q25 -5 117 -29q71 -18 119.5 -35.5t96.5 -46.5t72.5 -71.5t24.5 -98.5q0 -62 -24 -114t-64.5 -87t-94 -60t-110.5 -36.5t-115 -11.5
q-80 0 -155 21t-136.5 61t-101 104.5t-43.5 145.5h160q9 -64 54 -109.5t103 -65.5t122 -20q38 0 76.5 8.5t76 26.5t61 51.5t23.5 77.5q0 74 -106 117q-60 21 -103 30q-16 3 -56 13t-61 14q-55 13 -94.5 25.5t-82.5 34t-70 47t-44.5 63.5t-17.5 86q0 71 34 127.5t89.5 90
t121 50.5t134.5 17q50 0 102 -9t105 -31t94 -54.5t66 -83.5t24 -113h-157z" />
    <glyph glyph-name="uniFF54" unicode="&#xff54;" 
d="M967 985v-553q0 -87 35 -119t120 -34v-123q-59 0 -96 2.5t-76.5 11t-62 25t-41.5 44.5t-27 70t-8 101v575h-149v123h149v340h156v-340h174v-123h-174z" />
    <glyph glyph-name="uniFF55" unicode="&#xff55;" 
d="M1165 166v151q-129 -188 -334 -188q-154 0 -251 98.5t-97 253.5v625h154v-567q0 -114 61.5 -190.5t173.5 -76.5q124 0 207.5 89.5t83.5 213.5v531h156v-940h-154z" />
    <glyph glyph-name="uniFF56" unicode="&#xff56;" 
d="M1004 160h-203l-371 946h168l303 -791l305 791h166z" />
    <glyph glyph-name="uniFF57" unicode="&#xff57;" 
d="M1290 164h-182l-205 708l-207 -708h-182l-285 942h158l217 -752l205 752h182l207 -752l215 752h160z" />
    <glyph glyph-name="uniFF58" unicode="&#xff58;" 
d="M1178 158l-277 370l-276 -370h-181l367 489l-346 459h178l258 -338l258 338h178l-346 -459l367 -489h-180z" />
    <glyph glyph-name="uniFF59" unicode="&#xff59;" 
d="M866 -78q-17 -39 -37 -67t-46.5 -45.5t-50.5 -28.5t-61.5 -15.5t-65.5 -6t-75 -1.5v125q8 0 24 -1t24 -1q86 0 122 39q18 18 31 47q0 1 43 98.5t49 116.5l-391 922h162l305 -727l309 727h162z" />
    <glyph glyph-name="uniFF5A" unicode="&#xff5a;" 
d="M479 164v131l631 682h-578v125h756v-131l-631 -682h666v-125h-844z" />
    <glyph glyph-name="uniFF5B" unicode="&#xff5b;" 
d="M795 344v223q0 89 -30.5 131t-115.5 41v144h23q39 0 64.5 14t37 41t15.5 53.5t4 63.5v223q0 108 17.5 172.5t63 101.5t109 49t170.5 13v-125q-44 0 -68.5 -1.5t-56.5 -10t-49 -25t-29 -48t-12 -77.5v-225q0 -38 -3.5 -70t-16.5 -71t-35 -67t-62 -51.5t-94 -31.5
q209 -33 209 -291v-225q0 -46 12 -77.5t29 -48t49.5 -25t57.5 -10t69 -1.5v-125q-106 1 -169 13.5t-108.5 49t-63 101.5t-17.5 172z" />
    <glyph glyph-name="uniFF5C" unicode="&#xff5c;" 
d="M831 8l-2 1587h144v-1587h-142z" />
    <glyph glyph-name="uniFF5D" unicode="&#xff5d;" 
d="M1010 563v-223q0 -72 -7.5 -123.5t-26.5 -89t-45.5 -61t-69.5 -37.5t-92 -19t-120 -6v125q36 0 57 1t50.5 5.5t46 15t33 28t23.5 46t7 66.5v225q0 38 3.5 70t16 71t34.5 67t61.5 51.5t93.5 31.5q-66 10 -110 41t-63.5 76t-26.5 85t-7 89v225q0 46 -12.5 77.5t-29.5 48
t-49.5 25t-57.5 10t-70 1.5v125q71 -1 119.5 -6t91.5 -19t69 -37t45 -60.5t26.5 -89.5t7.5 -124v-223q0 -29 2 -50.5t9 -46t19.5 -39.5t35.5 -25.5t54 -10.5h25v-144q-84 1 -113.5 -41t-29.5 -131z" />
    <glyph glyph-name="uniFFE3" unicode="&#xffe3;" 
d="M1618 1538h-1434v84h1434v-84z" />
    <glyph glyph-name="uni3131" unicode="&#x3131;" horiz-adv-x="2048" 
d="M1606 102h-205v834h-1012v184h1217v-1018z" />
    <glyph glyph-name="uni3132" unicode="&#x3132;" horiz-adv-x="2048" 
d="M1716 100h-200v842h-465v178h665v-1020zM977 100h-201v842h-465v178h666v-1020z" />
    <glyph glyph-name="uni3133" unicode="&#x3133;" horiz-adv-x="2048" 
d="M1901 244q-87 -88 -140 -146q-256 192 -385 400q-45 -96 -137 -215.5t-182 -200.5q-91 99 -146 141q403 315 404 888v22q31 -3 91 -5t75 -4q33 -3 45 -15t7.5 -23.5t-13.5 -27.5t-9 -22q-21 -220 -43 -307q15 -37 34.5 -73.5t39 -67t46.5 -63t48 -56t51.5 -52t49 -45
t49 -41t43.5 -34t40.5 -30t31.5 -23.5zM895 100h-201v842h-465v178h666v-1020z" />
    <glyph glyph-name="uni3134" unicode="&#x3134;" horiz-adv-x="2048" 
d="M1681 100h-1239v1020q10 0 67 -1t87 -1q34 0 47.5 -9t11.5 -19.5t-8 -30t-6 -29.5v-751h1040v-179z" />
    <glyph glyph-name="uni3135" unicode="&#x3135;" horiz-adv-x="2048" 
d="M1866 229q-18 -20 -65 -67t-70 -74q-245 198 -342 399q-39 -84 -135 -199t-193 -208q-19 23 -70 77t-69 76q39 30 79 66t101 107.5t106 146t78 179.5t33 212h-320v176h824v-176h-305q-13 -191 -21 -239q12 -36 28 -71.5t31 -64t37.5 -60l37.5 -52.5t42 -49.5t40.5 -43
t42.5 -40.5t38 -34t38.5 -33t33.5 -28zM907 184q-136 -36 -257 -53.5t-310 -34.5v1024q96 0 149 -2q28 -1 41 -10.5t13.5 -19t-3 -29.5t-3.5 -29v-711q194 22 370 68v-203z" />
    <glyph glyph-name="uni3136" unicode="&#x3136;" horiz-adv-x="2048" 
d="M1667 1012h-530v164h530v-164zM1772 379q0 -151 -110 -249.5t-259 -98.5t-259 99t-110 249t109 249t260 99q97 0 180.5 -41.5t136 -122.5t52.5 -184zM1577 379q0 76 -48 125t-124 49q-72 0 -122 -48t-50 -126q0 -77 49 -125.5t123 -48.5q78 0 125 49.5t47 124.5zM928 176
q-133 -35 -260.5 -52.5t-327.5 -35.5v1032q96 0 149 -2q28 -1 41 -10.5t13.5 -19t-3 -29.5t-3.5 -29v-719q64 3 190.5 24.5t200.5 43.5v-203zM1858 782h-908v166h908v-166z" />
    <glyph glyph-name="uni3137" unicode="&#x3137;" horiz-adv-x="2048" 
d="M1622 100h-1180v1020h1162v-172h-963v-676h981v-172z" />
    <glyph glyph-name="uni3138" unicode="&#x3138;" horiz-adv-x="2048" 
d="M1808 100h-678v1020h656v-174h-459v-667h481v-179zM1047 147q-367 -49 -699 -49v1022h658v-174h-461v-657q82 0 238.5 13.5t263.5 29.5v-185z" />
    <glyph glyph-name="uni3139" unicode="&#x3139;" horiz-adv-x="2048" 
d="M1604 100h-1162v582h936v272h-936v166h1131v-600h-936v-254h967v-166z" />
    <glyph glyph-name="uni313A" unicode="&#x313a;" horiz-adv-x="2048" 
d="M1710 100h-201v863h-424v178h625v-1041zM1073 141q-145 -26 -306 -34.5t-429 -8.5v594h453v283h-453v166h653v-615h-452v-264q260 0 518 47z" />
    <glyph glyph-name="uni313B" unicode="&#x313b;" horiz-adv-x="2048" 
d="M1722 100h-194v37h-244v-37h-194v1041h632v-1041zM1528 307v662h-244v-662h244zM1012 141q-149 -27 -283.5 -35t-390.5 -8v594h432v283h-432v166h633v-615h-432v-264q198 0 456 47z" />
    <glyph glyph-name="uni313C" unicode="&#x313c;" horiz-adv-x="2048" 
d="M1718 100h-192v35h-246v-35h-193v1041q27 0 82 -2t86 -2q20 0 28.5 -10t6.5 -21t-6 -26.5t-4 -20.5v-275h246v357q34 0 84 -2t67 -2q28 0 40 -8t11 -17.5t-5.5 -27t-4.5 -25.5v-959zM1526 313v299h-246v-299h246zM1012 141q-149 -27 -283.5 -35t-390.5 -8v594h432v283
h-432v166h633v-615h-432v-264q198 0 456 47z" />
    <glyph glyph-name="uni313D" unicode="&#x313d;" horiz-adv-x="2048" 
d="M1911 244q-78 -78 -139 -146q-189 168 -340 391q-38 -93 -115 -205.5t-168 -201.5q-64 71 -150 137q78 61 139 132.5t99.5 138t66 142t40 135t19 125.5t6 105.5t-1.5 83.5t-1 52q31 -3 91 -5t75 -4q33 -3 45 -15t8 -23.5t-13 -27.5t-9 -22q-21 -220 -43 -307
q108 -274 391 -485zM997 141q-150 -27 -278 -35t-381 -8v594h432v283h-432v166h633v-615h-432v-264q230 0 442 43z" />
    <glyph glyph-name="uni313E" unicode="&#x313e;" horiz-adv-x="2048" 
d="M1718 100h-639v1041h635v-172h-442v-250h424v-170h-422v-275h444v-174zM1018 141q-148 -27 -285.5 -35t-394.5 -8v594h432v283h-432v166h633v-615h-432v-264q230 0 462 47z" />
    <glyph glyph-name="uni313F" unicode="&#x313f;" horiz-adv-x="2048" 
d="M1794 967h-750v172h750v-172zM997 141q-150 -27 -278 -35t-381 -8v594h432v283h-432v166h633v-615h-432v-264q230 0 442 43zM1823 100h-803v176h160q-17 449 -31 596h190q17 -227 33 -596h107q6 88 18 287t19 309h184q-9 -99 -16 -200t-14.5 -223.5t-10.5 -172.5h164
v-176z" />
    <glyph glyph-name="uni3140" unicode="&#x3140;" horiz-adv-x="2048" 
d="M1708 1018h-530v141h530v-141zM1753 379q0 -129 -86.5 -219t-222.5 -90q-134 0 -221.5 92t-87.5 217q0 126 87 217.5t222 91.5q137 0 223 -85.5t86 -223.5zM1573 379q0 51 -38 91t-89 40q-52 0 -91.5 -39t-39.5 -92q0 -51 41.5 -91t89.5 -40q60 0 93.5 39t33.5 92z
M997 141q-150 -27 -278 -35t-381 -8v594h432v283h-432v166h633v-615h-432v-264q230 0 442 43zM1858 762h-826v156h826v-156z" />
    <glyph glyph-name="uni3141" unicode="&#x3141;" horiz-adv-x="2048" 
d="M1604 100h-197v56h-768v-56h-197v1020h1162v-1020zM1399 324v628h-752v-628h752z" />
    <glyph glyph-name="uni3142" unicode="&#x3142;" horiz-adv-x="2048" 
d="M1604 100h-197v58h-770v-58h-195v1041q27 1 91.5 -1.5t68.5 -2.5q24 0 34.5 -8.5t9.5 -18.5t-5 -26.5t-4 -24.5v-234h770v316q28 0 101 -2l73 -2q18 -1 25 -10.5t6 -20.5t-4.5 -29.5t-3.5 -27.5v-949zM1407 336v315h-770v-315h770z" />
    <glyph glyph-name="uni3143" unicode="&#x3143;" horiz-adv-x="2048" 
d="M1704 100h-180v56h-250v-56h-180v1041q105 0 155 -4q20 -1 28.5 -11.5t6.5 -21t-6 -25.5t-4 -20v-260h250v342q20 0 72 -2t67 -2q28 0 40 -8t11 -17.5t-5.5 -27t-4.5 -25.5v-959zM1524 328v305h-250v-305h250zM952 100h-180v56h-250v-56h-180v1041q106 0 156 -4
q26 -2 32 -15.5t-1 -36.5t-7 -26v-260h250v342q30 0 78 -2t61 -2q28 0 40 -8t11 -17.5t-5.5 -27t-4.5 -25.5v-959zM772 328v305h-250v-305h250z" />
    <glyph glyph-name="uni3144" unicode="&#x3144;" horiz-adv-x="2048" 
d="M1890 244q-78 -78 -139 -146q-189 168 -340 391q-38 -93 -115 -205.5t-168 -201.5q-67 73 -149 137q58 46 107.5 101t84.5 107.5t63.5 112.5t46.5 111t31 109.5t19.5 101.5t10 93t4 77t0.5 61.5v39.5q31 -3 90.5 -5t74.5 -4q33 -3 45 -15t8 -23.5t-13 -27.5t-9 -22
q-21 -220 -43 -307q108 -274 391 -485zM952 100h-180v56h-250v-56h-180v1041q106 0 156 -4q26 -2 32 -15.5t-1 -36.5t-7 -26v-240h250v322q30 0 78 -2t61 -2q28 0 40 -8t11 -17.5t-5.5 -27t-4.5 -25.5v-959zM772 328v325h-250v-325h250z" />
    <glyph glyph-name="uni3145" unicode="&#x3145;" horiz-adv-x="2048" 
d="M1616 242q-71 -84 -117 -154q-134 72 -276 197.5t-219 263.5q-135 -287 -451 -461q-16 18 -41 46t-43.5 47.5t-42.5 41.5q233 104 382 352.5t148 563.5q66 -4 164 -13q23 -2 30 -13t3 -23t-11 -27.5t-7 -20.5q-2 -28 -15 -134.5t-16 -137.5q28 -79 73 -150.5t95.5 -126.5
t111.5 -104t116.5 -83t115.5 -64z" />
    <glyph glyph-name="uni3146" unicode="&#x3146;" horiz-adv-x="2048" 
d="M1853 213q-11 -10 -64 -57.5t-79 -69.5q-49 40 -77 65t-77.5 75t-91 110.5t-75.5 130.5q-100 -212 -279 -385q-10 9 -33.5 31t-38.5 35.5t-36.5 31.5t-40.5 31q79 80 128 138t100 140.5t77.5 169.5t43 208.5t15.5 273.5q104 -3 158 -8q24 -3 36.5 -10t14 -18.5
t-0.5 -20.5t-8.5 -24.5t-8.5 -21.5q-3 -67 -27 -288q15 -65 42 -131.5t70 -138t107.5 -141t144.5 -126.5zM1077 401q-22 -24 -68 -80t-61 -73q-172 135 -243 266q-52 -114 -139 -225.5t-171 -192.5q-14 13 -60.5 64t-92.5 84q99 79 172 169t116.5 175t69 183.5t34.5 184
t9 185.5q112 0 166 -6q28 -3 37 -17t4.5 -28t-13 -32t-8.5 -24q-12 -146 -22 -217q4 -60 24 -115.5t42.5 -93t61.5 -79.5t62 -62t64 -53q11 -9 16 -13z" />
    <glyph glyph-name="uni3147" unicode="&#x3147;" horiz-adv-x="2048" 
d="M1563 610q0 -123 -44 -217t-120 -149.5t-170 -83t-203 -27.5q-107 0 -202.5 30.5t-171 88t-119.5 150t-44 208.5q0 120 46 214.5t123 151.5t171 86.5t197 29.5q81 0 158 -19t146 -59t120.5 -96t82 -135.5t30.5 -172.5zM1391 612q0 95 -54 168.5t-136 109.5t-175 36
q-89 0 -170.5 -35.5t-137.5 -109t-56 -169.5q0 -97 55.5 -170t137 -108t171.5 -35q70 0 133.5 18.5t116 54.5t84 98t31.5 142z" />
    <glyph glyph-name="uni3148" unicode="&#x3148;" horiz-adv-x="2048" 
d="M1642 250q-15 -28 -50.5 -73t-51.5 -71q-408 177 -547 445q-69 -136 -213.5 -256t-308.5 -191q-7 12 -18.5 36t-19 38.5t-22 37t-32.5 44.5q85 31 160 72t148.5 103t127 136t88 174.5t39.5 215.5h-500v159h1162v-159h-482q0 -38 -9 -107t-19 -106q28 -73 75.5 -143.5
t115 -136.5t159 -122.5t198.5 -95.5z" />
    <glyph glyph-name="uni3149" unicode="&#x3149;" horiz-adv-x="2048" 
d="M1825 236q-75 -68 -129 -127q-232 186 -318 358q-41 -111 -114 -212.5t-154 -176.5q-27 24 -70 65t-71 66q53 47 91 87t84 107.5t75 139.5t49 176.5t20 224.5h-209v176h633v-176h-244q0 -82 -12 -190q12 -75 43 -145.5t65 -119.5t86.5 -102t86.5 -81.5t88 -69.5z
M1051 385q-22 -24 -61.5 -65.5t-61.5 -65.5q-122 97 -207 244q-101 -222 -342 -414q-7 7 -24.5 25.5t-25 26.5t-22.5 22.5t-30.5 28t-34.5 28.5q409 270 409 729h-272v176h637v-176h-189q-17 -188 -20 -215q52 -208 244 -344z" />
    <glyph glyph-name="uni314A" unicode="&#x314a;" horiz-adv-x="2048" 
d="M1325 1040h-602v162h602v-162zM1688 233q-12 -17 -49.5 -69t-57.5 -78q-183 70 -331.5 194.5t-209.5 241.5q-58 -125 -224.5 -252t-358.5 -186q-43 64 -111 149q129 29 243 90.5t188 132.5t116.5 143.5t42.5 127.5h-506v156h1196v-156h-502q0 -43 45 -111.5t118.5 -140.5
t181.5 -139.5t219 -102.5z" />
    <glyph glyph-name="uni314B" unicode="&#x314b;" horiz-adv-x="2048" 
d="M1604 1120q0 -98 -4 -179.5t-19 -195.5t-41.5 -215t-75 -220.5t-114.5 -229.5q-38 17 -98.5 47.5t-77.5 38.5q48 71 101.5 185t72.5 200q-286 -31 -797 -70q-6 -2 -17.5 -8.5t-18.5 -10t-16.5 -4.5t-16.5 5.5t-13 21.5q-1 4 -9.5 33.5t-18 66t-13.5 66.5q17 1 386.5 24.5
t571.5 39.5q22 86 27 239h-971v166h1162z" />
    <glyph glyph-name="uni314C" unicode="&#x314c;" horiz-adv-x="2048" 
d="M1612 100h-1170v1020h1162v-164h-967v-278h940v-162h-940v-252h975v-164z" />
    <glyph glyph-name="uni314D" unicode="&#x314d;" horiz-adv-x="2048" 
d="M1620 956h-1190v164h1190v-164zM1675 100h-1317v168h320q-47 419 -53 498h178q32 -342 55 -498h348q45 304 51 496h185q-7 -123 -49 -496h282v-168z" />
    <glyph glyph-name="uni314E" unicode="&#x314e;" horiz-adv-x="2048" 
d="M1417 1022h-776v154h776v-154zM1536 309q0 -87 -37.5 -152.5t-106.5 -105t-159 -59t-201 -19.5q-63 0 -122 7t-117.5 22t-106.5 41t-85.5 62t-58 88t-20.5 116q0 74 30 131.5t78.5 93.5t116.5 59.5t138 32.5t149 9q76 0 143.5 -9t134.5 -32t115.5 -58.5t78.5 -93.5
t30 -133zM1331 311q0 51 -25 86.5t-70.5 52.5t-94 24t-111.5 7q-303 0 -303 -172q0 -91 82.5 -135.5t224.5 -44.5q146 0 221.5 47t75.5 135zM1708 733h-1370v168h1370v-168z" />
    <glyph glyph-name="uni314F" unicode="&#x314f;" horiz-adv-x="2048" 
d="M1397 612h-357v-864h-192v1733q106 0 160 -4q28 -2 38.5 -13.5t8 -24.5t-8.5 -34t-6 -33v-569h357v-191z" />
    <glyph glyph-name="uni3150" unicode="&#x3150;" horiz-adv-x="2048" 
d="M1380 -262h-192v821h-264v-754h-191v1661q106 0 160 -4q25 -2 34.5 -12.5t7.5 -21.5t-6.5 -30.5t-4.5 -29.5v-623h264v748q29 0 85 -2t62 -2q28 -1 43 -7t16.5 -17t-1.5 -22t-8 -26.5t-5 -25.5v-1653z" />
    <glyph glyph-name="uni3151" unicode="&#x3151;" horiz-adv-x="2048" 
d="M1368 268h-303v-518h-195v1735q136 0 156 -2q29 -3 40.5 -13.5t10 -22t-6.5 -31t-5 -30.5v-389h303v-192h-303v-344h303v-193z" />
    <glyph glyph-name="uni3152" unicode="&#x3152;" horiz-adv-x="2048" 
d="M1395 -252h-201v520h-307v-491h-199v1681q29 0 91.5 -2t68.5 -2q19 0 30.5 -5t16 -11t5 -17t-1.5 -19t-6 -21t-5 -19v-332h307v453q42 0 95.5 -2t66.5 -2q24 0 35.5 -4.5t13.5 -14.5t0 -20t-6 -27.5t-4 -30.5v-1634zM1194 459v383h-307v-383h307z" />
    <glyph glyph-name="uni3153" unicode="&#x3153;" horiz-adv-x="2048" 
d="M1284 -254h-199v811h-370v199h370v723q100 0 154 -4q26 -2 40.5 -7t17 -16t2 -19.5t-6.5 -27t-8 -27.5v-1632z" />
    <glyph glyph-name="uni3154" unicode="&#x3154;" horiz-adv-x="2048" 
d="M1460 -252h-196v1735q132 0 159 -2q29 -2 40 -14t9.5 -24.5t-7 -32.5t-5.5 -30v-1632zM1059 -221h-195v823h-358v182h358v674q108 0 166 -4q25 -2 34.5 -13.5t7.5 -23.5t-7.5 -32t-5.5 -31v-1575z" />
    <glyph glyph-name="uni3155" unicode="&#x3155;" horiz-adv-x="2048" 
d="M1276 -250h-193v631h-307v188h307v271h-307v186h307v449q112 0 166 -7q20 -2 27.5 -11t7 -18.5t-4 -32.5t-3.5 -40v-1616z" />
    <glyph glyph-name="uni3156" unicode="&#x3156;" horiz-adv-x="2048" 
d="M1401 -252h-191v1735q94 0 164 -4q28 -2 34.5 -19t-0.5 -46.5t-7 -31.5v-1634zM1049 -244h-185v561h-289v181h289v288h-289v181h289v483q23 1 86 -0.5t66 -1.5q28 -1 38.5 -13.5t8 -27t-8 -33.5t-5.5 -24v-1594z" />
    <glyph glyph-name="uni3157" unicode="&#x3157;" horiz-adv-x="2048" 
d="M1890 -39h-1743v189h781v440q97 0 166 -6q27 -1 37.5 -12t8 -23.5t-8 -33.5t-5.5 -32v-333h764v-189z" />
    <glyph glyph-name="uni3158" unicode="&#x3158;" horiz-adv-x="2048" 
d="M1896 524h-297v-778h-194v283q-134 -9 -343.5 -19t-448.5 -20t-332 -15q-7 -2 -19.5 -7t-19 -7t-16 -2.5t-15 4t-11 15t-7.5 28.5q-1 10 -15 170q58 -1 236 3.5t258 4.5v428q34 0 92 -2t61 -2q26 -1 36.5 -11t10 -21t-5 -30t-4.5 -28v-330q329 8 543 29v1268q22 0 81 -2
t89 -2q24 0 32.5 -10t5.5 -23t-8.5 -32.5t-5.5 -29.5v-673h297v-189z" />
    <glyph glyph-name="uni3159" unicode="&#x3159;" horiz-adv-x="2048" 
d="M1817 -252h-183v809h-217v-772h-182v242q-340 -32 -944 -62q-11 -1 -27.5 -6.5t-26 -7.5t-19 7.5t-13.5 35.5q-7 44 -17 170q20 1 96 1.5t163 2.5t159 6v422q35 0 92 -1t58 -1q26 -1 36 -11.5t8 -21.5t-7 -28.5t-5 -24.5v-326q289 15 447 33v1258q27 0 90 -2.5t68 -2.5
q20 -1 27.5 -10t6 -20t-5.5 -29t-4 -27v-655h217v754q30 0 63 -1t55.5 -2t25.5 -1q27 -1 38.5 -11t10.5 -22t-5.5 -33t-4.5 -31v-1632z" />
    <glyph glyph-name="uni315A" unicode="&#x315a;" horiz-adv-x="2048" 
d="M1704 -254h-193v281q-213 -14 -568.5 -30t-618.5 -22q-12 -2 -32 -9t-29 -8t-20 8.5t-18 35.5q-14 56 -24 174q397 -5 563 0v416q41 0 98 -1l58 -1q31 -1 43 -12.5t9.5 -24t-8.5 -33.5t-6 -33v-303q378 13 553 27v1274q31 0 83 -1t65 -1q26 0 40 -5.5t16 -16t-0.5 -20.5
l-6.5 -26t-4 -26v-1643z" />
    <glyph glyph-name="uni315B" unicode="&#x315b;" horiz-adv-x="2048" 
d="M1905 -39h-1733v184h481v451q35 0 81.5 -1t49.5 -1q23 0 36.5 -4.5t18.5 -11t5.5 -16t-2.5 -18.5t-5.5 -21t-2.5 -21v-357h432v455q33 0 83.5 -2t57.5 -2q29 0 41 -10.5t10.5 -23t-7 -33t-5.5 -29.5v-355h459v-184z" />
    <glyph glyph-name="uni315C" unicode="&#x315c;" horiz-adv-x="2048" 
d="M1890 432h-760v-799h-192v799h-770v184h1722v-184z" />
    <glyph glyph-name="uni315D" unicode="&#x315d;" horiz-adv-x="2048" 
d="M1745 -254h-191v358h-428v172h428v1205q138 0 162 -2t33 -14.5t7 -26t-6.5 -32.5t-4.5 -26v-1634zM1376 446q-71 -4 -553 -16v-674h-192v668q-54 -1 -172.5 -4t-169.5 -4q-9 -2 -22 -4.5t-20 -4t-16 -2.5t-14 0t-10.5 3.5t-8.5 8t-5 13.5q-5 22 -23 182q767 -5 1206 13
v-179z" />
    <glyph glyph-name="uni315E" unicode="&#x315e;" horiz-adv-x="2048" 
d="M1747 -254h-193v1737q83 0 164 -6q24 -2 33 -11.5t7.5 -19.5t-6.5 -28t-5 -29v-1643zM1149 469q-173 -18 -440 -31v-665h-187v653q-240 -11 -262 -12q-7 -1 -23.5 -7t-26 -8t-20 4t-14.5 23q-16 72 -22 172q591 14 987 47zM1405 -223h-186v323h-388v179h388v1157
q39 0 92 -2l53 -2q22 -1 34 -6t15 -15t2.5 -18t-5 -23t-5.5 -22v-1571z" />
    <glyph glyph-name="uni315F" unicode="&#x315f;" horiz-adv-x="2048" 
d="M1755 -254h-199v717q-372 -24 -589 -29v-659h-191v653q-67 -3 -213.5 -6t-208.5 -6q-3 -1 -14.5 -6t-16.5 -6.5t-15 -2.5t-15.5 2t-11 11t-7.5 22q-9 56 -16 170q770 0 1298 37v838q41 0 170 -6q22 -1 31 -10.5t7.5 -20.5t-5.5 -28.5t-4 -24.5v-1645z" />
    <glyph glyph-name="uni3160" unicode="&#x3160;" horiz-adv-x="2048" 
d="M1892 430h-473v-801h-190v801h-434v-797h-191v797h-452v184h1740v-184z" />
    <glyph glyph-name="uni3161" unicode="&#x3161;" horiz-adv-x="2048" 
d="M1890 -39h-1743v189h1743v-189z" />
    <glyph glyph-name="uni3162" unicode="&#x3162;" horiz-adv-x="2048" 
d="M1704 -254h-193v281q-213 -14 -568.5 -30t-618.5 -22q-12 -2 -32 -9t-29 -8t-20 8.5t-18 35.5q-14 56 -24 174q656 0 1310 35v1274q31 0 83 -1t65 -1q26 0 40 -5.5t16 -16t-0.5 -20.5l-6.5 -26t-4 -26v-1643z" />
    <glyph glyph-name="uni3163" unicode="&#x3163;" horiz-adv-x="2048" 
d="M1153 -250h-192v1735q78 0 159 -6q28 -2 38.5 -12t8.5 -21.5t-8 -30t-6 -29.5v-1636z" />
    <glyph glyph-name="uni3165" unicode="&#x3165;" horiz-adv-x="2048" 
d="M1686 164q-300 -68 -609 -68v1024q97 0 150 -2q28 -1 40.5 -10.5t13 -19.5t-3 -29.5t-3.5 -28.5v-727q67 0 197 14.5t215 36.5v-190zM969 184q-91 -24 -210 -42t-188.5 -25t-230.5 -21v1024q96 0 149 -2q28 -1 41 -10.5t13.5 -19t-3 -29.5t-3.5 -29v-723q301 33 432 68
v-191z" />
    <glyph glyph-name="uni3166" unicode="&#x3166;" horiz-adv-x="2048" 
d="M1735 100h-668v1020h653v-174h-456v-667h471v-179zM969 184q-91 -24 -210 -42t-188.5 -25t-230.5 -21v1024q96 0 149 -2q28 -1 41 -10.5t13.5 -19t-3 -29.5t-3.5 -29v-723q301 33 432 68v-191z" />
    <glyph glyph-name="uni3167" unicode="&#x3167;" horiz-adv-x="2048" 
d="M1901 244q-87 -88 -140 -146q-256 192 -385 400q-45 -96 -137 -215.5t-182 -200.5q-58 66 -109 111v-9q-92 -24 -201 -41.5t-186 -25.5t-221 -21v1024q96 0 149 -2q28 -1 41 -10.5t13.5 -19t-3 -29.5t-3.5 -29v-723q265 29 411 68v-121q57 49 105 104t83 106t63.5 110.5
t46.5 106t31.5 104.5t20 94.5t11 87t5 71.5t0.5 58l1 37q31 -3 91 -5t75 -4q33 -3 45 -15t7.5 -23.5t-13.5 -27.5t-9 -22q-21 -220 -43 -307q15 -37 34.5 -73.5t39 -67t46.5 -63t48 -56t51.5 -52t49 -45t49 -41t43.5 -34t40.5 -30t31.5 -23.5z" />
    <glyph glyph-name="uni3168" unicode="&#x3168;" horiz-adv-x="2048" 
d="M1726 100h-708l389 1037zM1477 283l-84 348l-109 -348h193zM969 184q-91 -24 -210 -42t-188.5 -25t-230.5 -21v1024q96 0 149 -2q28 -1 41 -10.5t13.5 -19t-3 -29.5t-3.5 -29v-723q301 33 432 68v-191z" />
    <glyph glyph-name="uni3169" unicode="&#x3169;" horiz-adv-x="2048" 
d="M1862 201q-56 -31 -152 -111q-121 139 -209 350q-20 -62 -40.5 -111.5t-48.5 -97t-41.5 -68t-49.5 -71.5q-85 77 -147 111q263 289 258 944q102 -4 155 -4q24 -1 33 -12t7 -22.5t-7.5 -29t-5.5 -22.5q-4 -30 -11.5 -144.5t-13.5 -175.5q20 -93 50 -173.5t68 -144
t68 -105.5t69 -91q12 -15 18 -22zM784 160q-260 -60 -497 -58v613h256v250h-258v174h440v-598h-254v-252q44 0 134.5 14.5t170.5 36.5zM1165 100h-182v863h-238v178h420v-1041z" />
    <glyph glyph-name="uni316A" unicode="&#x316a;" horiz-adv-x="2048" 
d="M1731 100h-658v1039h656v-178h-459v-682h461v-179zM1008 152q-332 -56 -670 -56v600h424v265h-430v178h624v-619h-403v-244q186 7 440 58z" />
    <glyph glyph-name="uni316B" unicode="&#x316b;" horiz-adv-x="2048" 
d="M1888 201q-53 -29 -151 -111q-121 139 -209 350q-28 -107 -71.5 -186.5t-108.5 -161.5q-78 71 -136 103v-95h-172v35h-88v-35h-178v1041q72 0 158 -4q16 -1 22.5 -9t5.5 -17.5t-4.5 -23t-3.5 -18.5v-274h88v346q95 0 140 -2q20 -1 29 -8.5t9 -15.5t-3 -23.5t-3 -22.5
v-854q251 289 246 932q102 -4 156 -4q24 -1 33 -12t7 -22.5t-8 -29t-6 -22.5q-4 -30 -11 -144t-13 -176q16 -76 42 -147.5t45 -114t60 -105t52 -77t57 -71.5q11 -14 16 -21zM1040 297v319h-88v-319h88zM745 147q-208 -52 -458 -49v613h235v254h-237v174h420v-602h-234v-252
q43 0 123 12.5t143 30.5z" />
    <glyph glyph-name="uni316C" unicode="&#x316c;" horiz-adv-x="2048" 
d="M1731 100h-699l350 1069zM1464 291l-82 305l-82 -305h164zM1008 147q-303 -51 -670 -51v600h424v265h-430v178h624v-619h-424v-244q87 0 221.5 12.5t241.5 30.5z" />
    <glyph glyph-name="uni316D" unicode="&#x316d;" horiz-adv-x="2048" 
d="M1827 952h-797v187h797v-187zM1817 457q0 -158 -100 -265.5t-275 -107.5q-179 0 -277 103t-98 270q0 161 97 267.5t278 106.5q165 0 270 -108t105 -266zM1616 461q0 80 -50 137t-124 57q-76 0 -125 -58.5t-49 -135.5q0 -81 44.5 -138t129.5 -57q76 0 125 59t49 136z
M1008 147q-303 -51 -670 -51v600h424v265h-430v178h624v-619h-424v-244q87 0 221.5 12.5t241.5 30.5z" />
    <glyph glyph-name="uni316E" unicode="&#x316e;" horiz-adv-x="2048" 
d="M1704 100h-193v56h-245v-56h-193v1041q118 0 168 -4q20 -1 28.5 -11.5t6.5 -21t-6 -25.5t-4 -20v-215h245v297q24 0 80.5 -2t71.5 -2q28 0 40 -8t11 -17.5t-5.5 -27t-4.5 -25.5v-959zM1511 334v338h-245v-338h245zM956 100h-194v45h-223v-45h-195v1039h612v-1039z
M762 315v652h-223v-652h223z" />
    <glyph glyph-name="uni316F" unicode="&#x316f;" horiz-adv-x="2048" 
d="M1911 244q-78 -78 -139 -146q-189 168 -340 391q-35 -96 -111 -207t-172 -200q-64 71 -150 137q74 60 133 131.5t97 137t65.5 142.5t41 134t21.5 127t9 105.5t0.5 85t-0.5 51.5q31 -3 91 -5t75 -4q33 -3 45 -15t8 -23.5t-13 -27.5t-9 -22q-21 -220 -43 -307
q108 -274 391 -485zM977 100h-195v45h-243v-45h-195v1039h633v-1039zM782 315v652h-243v-652h243z" />
    <glyph glyph-name="uni3170" unicode="&#x3170;" horiz-adv-x="2048" 
d="M1722 100h-690l354 1078zM1470 262l-88 402l-92 -402h180zM977 100h-195v45h-243v-45h-195v1039h633v-1039zM782 315v652h-243v-652h243z" />
    <glyph glyph-name="uni3171" unicode="&#x3171;" horiz-adv-x="2048" 
d="M1518 676h-191v45h-606v-45h-191v702h988v-702zM1327 891v315h-606v-315h606zM1356 190q0 -135 -94.5 -234t-239.5 -99t-239.5 97.5t-94.5 235.5q0 135 93.5 234.5t240.5 99.5q144 0 239 -100.5t95 -233.5zM1180 190q0 66 -45 112t-111 46q-67 0 -112.5 -46t-45.5 -112
t46 -112.5t112 -46.5q63 0 109.5 46.5t46.5 112.5z" />
    <glyph glyph-name="uni3172" unicode="&#x3172;" horiz-adv-x="2048" 
d="M1700 100h-201v863h-444v178h645v-1041zM973 100h-187v35h-258v-35h-186v1041q112 0 162 -4q26 -2 32 -15.5t-1 -36.5t-7 -26v-234h258v316q29 0 88 -2l58 -2q28 -1 40 -9.5t11 -18t-5.5 -26t-4.5 -24.5v-959zM786 313v340h-258v-340h258z" />
    <glyph glyph-name="uni3173" unicode="&#x3173;" horiz-adv-x="2048" 
d="M1679 100h-616v1041h614v-174h-417v-688h419v-179zM973 100h-187v35h-258v-35h-186v1041q112 0 162 -4q26 -2 32 -15.5t-1 -36.5t-7 -26v-234h258v316q29 0 88 -2l58 -2q28 -1 40 -9.5t11 -18t-5.5 -26t-4.5 -24.5v-959zM786 313v340h-258v-340h258z" />
    <glyph glyph-name="uni3174" unicode="&#x3174;" horiz-adv-x="2048" 
d="M1743 100h-182v863h-258v178h440v-1041zM764 100h-172v35h-111v-35h-178v1041q19 -1 79 -2t79 -2q16 -1 22.5 -9t5.5 -17.5t-4.5 -23t-3.5 -18.5v-260h111v332q24 0 74 -1t65 -1q24 0 33.5 -7.5t8.5 -16t-5 -24t-4 -22.5v-969zM592 297v334h-111v-334h111zM1470 195
q-23 -18 -70.5 -55t-70.5 -56q-47 63 -73 100.5t-67.5 112.5t-68.5 152q-70 -204 -198 -363q-12 9 -36.5 28t-40 31t-36.5 26.5t-37 23.5q77 91 132 200t82.5 201.5t43 205t18.5 181t3 158.5q13 -1 48 -2.5t64 -3t41 -2.5q24 -1 33 -13t7 -24t-7.5 -29.5t-5.5 -22.5
q0 -66 -25 -278q58 -289 264 -571z" />
    <glyph glyph-name="uni3175" unicode="&#x3175;" horiz-adv-x="2048" 
d="M1841 100h-399v90q-29 -36 -113 -106q-47 63 -73 100.5t-67.5 112.5t-68.5 152q-70 -204 -198 -363q-12 9 -36.5 28t-40 31t-36.5 26.5t-37 23.5q77 91 132 200t82.5 201.5t43 205t18.5 181t3 158.5q13 -1 48 -2.5t64 -3t41 -2.5q24 -1 33 -13t7 -24t-7.5 -29.5
t-5.5 -22.5q0 -66 -25 -278q54 -268 236 -530v903h397v-178h-209v-682h211v-179zM764 100h-172v35h-111v-35h-178v1041q19 -1 79 -2t79 -2q16 -1 22.5 -9t5.5 -17.5t-4.5 -23t-3.5 -18.5v-260h111v332q24 0 74 -1t65 -1q24 0 33.5 -7.5t8.5 -16t-5 -24t-4 -22.5v-969z
M592 297v334h-111v-334h111z" />
    <glyph glyph-name="uni3176" unicode="&#x3176;" horiz-adv-x="2048" 
d="M1849 215q-85 -80 -127 -135q-45 43 -75.5 74.5t-81 88t-94.5 121.5t-78 134q-88 -205 -320 -410q-14 15 -54 64t-73 75q48 35 94 77t102.5 114t96.5 151t65.5 188.5t20.5 225.5h-305v158h782v-158h-301q0 -139 -18 -274q25 -82 69.5 -160.5t98 -141t101 -108t97.5 -84.5
zM924 100h-193v35h-235v-35h-195v1041q40 0 96.5 -2t73.5 -2q20 0 28.5 -11.5t6.5 -24.5t-6 -30.5t-4 -21.5v-222h235v314q28 0 83.5 -2t68.5 -2q28 0 40 -9.5t11 -20t-5.5 -30t-4.5 -28.5v-949zM731 313v340h-235v-340h235z" />
    <glyph glyph-name="uni3177" unicode="&#x3177;" horiz-adv-x="2048" 
d="M1718 100h-649v1039h627v-172h-443v-258h422v-170h-422v-265h465v-174zM932 100h-193v35h-243v-35h-195v1041q40 0 96.5 -2t73.5 -2q20 0 28.5 -11.5t6.5 -24.5t-6 -30.5t-4 -21.5v-222h243v314q28 0 83.5 -2t68.5 -2q28 0 40 -9.5t11 -20t-5.5 -30t-4.5 -28.5v-949z
M739 313v340h-243v-340h243z" />
    <glyph glyph-name="uni3178" unicode="&#x3178;" horiz-adv-x="2048" 
d="M1534 612h-193v35h-634v-35h-193v772q20 0 81 -2t87 -2q23 0 31.5 -9.5t6 -20.5t-7.5 -29t-5 -27v-123h634v213q34 1 92 -0.5t60 -1.5q29 0 41 -9.5t11 -21t-6 -31.5t-5 -30v-678zM1341 825v174h-634v-174h634zM1356 190q0 -135 -94.5 -234t-239.5 -99t-239.5 97.5
t-94.5 235.5q0 135 93.5 234.5t240.5 99.5q144 0 239 -100.5t95 -233.5zM1180 190q0 66 -45 112t-111 46q-67 0 -112.5 -46t-45.5 -112t46 -112.5t112 -46.5q63 0 109.5 46.5t46.5 112.5z" />
    <glyph glyph-name="uni3179" unicode="&#x3179;" horiz-adv-x="2048" 
d="M1544 612h-174v52h-139v-52h-174v750q36 0 85.5 -2t65.5 -2q18 0 25.5 -9t6 -19t-5 -24t-3.5 -18v-121h139v195q27 0 76.5 -2t60.5 -2q25 0 35.5 -7t10 -15.5t-4.5 -24t-4 -23.5v-676zM1370 827v183h-139v-183h139zM1356 190q0 -135 -94.5 -234t-239.5 -99t-239.5 97.5
t-94.5 235.5q0 135 93.5 234.5t240.5 99.5q144 0 239 -100.5t95 -233.5zM1180 190q0 66 -45 112t-111 46q-67 0 -112.5 -46t-45.5 -112t46 -112.5t112 -46.5q63 0 109.5 46.5t46.5 112.5zM991 612h-174v52h-139v-52h-174v750q105 0 151 -4q18 -1 25.5 -10t6 -18.5t-5 -23.5
t-3.5 -18v-121h139v195q28 0 75.5 -2t61.5 -2q25 0 35.5 -7t10 -15.5t-4.5 -24t-4 -23.5v-676zM817 827v183h-139v-183h139z" />
    <glyph glyph-name="uni317A" unicode="&#x317a;" horiz-adv-x="2048" 
d="M1694 100h-201v842h-465v178h666v-1020zM1245 244q-78 -78 -139 -146q-256 192 -385 400q-45 -96 -137.5 -215t-182.5 -201q-93 102 -145 141q403 315 403 888v22q31 -3 91 -5t75 -4q33 -3 45 -15t8 -23.5t-13 -27.5t-9 -22q-21 -220 -43 -307q15 -37 34.5 -74t39 -67
t46.5 -63t47.5 -56t51.5 -52t48.5 -45t49 -41t43.5 -34t40.5 -30t31.5 -23z" />
    <glyph glyph-name="uni317B" unicode="&#x317b;" horiz-adv-x="2048" 
d="M1815 100h-637v1041q10 0 62.5 -1t82.5 -1q34 0 47.5 -9t11.5 -19.5t-8 -30t-6 -29.5v-772h447v-179zM1149 240q-20 -20 -65.5 -70.5t-69.5 -71.5q-162 144 -320 391q-38 -93 -115 -205.5t-167 -201.5q-65 71 -150 137q78 61 139 132.5t99.5 138t66 142t40 135t19 125.5
t6 105.5t-1.5 83.5t-1 52q31 -3 91 -5t75 -4q33 -3 45 -15t7.5 -23.5t-13.5 -27.5t-9 -22q-21 -220 -43 -307q110 -280 367 -489z" />
    <glyph glyph-name="uni317C" unicode="&#x317c;" horiz-adv-x="2048" 
d="M1812 100h-636v1039h614v-174h-418v-684h440v-181zM1149 240q-20 -20 -65.5 -70.5t-69.5 -71.5q-162 144 -320 391q-38 -93 -115 -205.5t-167 -201.5q-65 71 -150 137q78 61 139 132.5t99.5 138t66 142t40 135t19 125.5t6 105.5t-1.5 83.5t-1 52q31 -3 91 -5t75 -4
q33 -3 45 -15t7.5 -23.5t-13.5 -27.5t-9 -22q-21 -220 -43 -307q110 -280 367 -489z" />
    <glyph glyph-name="uni317D" unicode="&#x317d;" horiz-adv-x="2048" 
d="M1718 100h-192v35h-213v-35h-193v1041q27 0 82 -2t86 -2q20 0 28.5 -10t6.5 -21t-6 -26.5t-4 -20.5v-254h213v336q34 0 84 -2t67 -2q28 0 40 -8t11 -17.5t-5.5 -27t-4.5 -25.5v-959zM1526 313v320h-213v-320h213zM1108 240q-20 -20 -65.5 -70.5t-69.5 -71.5
q-159 141 -299 391q-38 -93 -115 -205.5t-168 -201.5q-67 73 -149 137q78 61 139 132.5t99.5 138t65.5 142t39.5 135t19 125.5t6 105.5t-1.5 83.5t-1 52q31 -3 91 -5t75 -4q33 -3 45 -15t8 -23.5t-13 -27.5t-9 -22q-21 -220 -43 -307q67 -169 163.5 -294t182.5 -195z" />
    <glyph glyph-name="uni317E" unicode="&#x317e;" horiz-adv-x="2048" 
d="M1817 227q-97 -93 -136 -137q-227 220 -307 397q-50 -121 -138.5 -226t-162.5 -165q-38 46 -139 127q381 333 381 748h-275v168h762v-168h-293q-5 -65 -30 -289q18 -54 46 -106.5t52 -89t63.5 -81.5t60 -66t63.5 -61.5t53 -50.5zM1063 408q-64 -61 -123 -132
q-157 142 -223 281q-45 -120 -148.5 -253.5t-181.5 -205.5q-23 16 -67 60t-84 73q79 64 141.5 134.5t104 134.5t72 137.5t46.5 133t25.5 132t12 122.5t3.5 116q108 3 158 -2q31 -3 42.5 -16t8.5 -26t-11 -31t-8 -24q-2 -14 -6 -59.5t-9.5 -92t-12.5 -81.5q15 -83 62 -164
t90 -128.5t108 -108.5z" />
    <glyph glyph-name="uni317F" unicode="&#x317f;" horiz-adv-x="2048" 
d="M1473 100h-895l448 1053zM1196 266l-172 436l-162 -436h334z" />
    <glyph glyph-name="uni3180" unicode="&#x3180;" horiz-adv-x="2048" 
d="M1784 614q0 -71 -12 -140t-40 -137.5t-70 -120.5t-106.5 -84t-144.5 -32q-97 0 -170 47t-114 124.5t-60.5 164t-19.5 178.5q0 69 12.5 139t41 138t69 120.5t102 84.5t135.5 32q79 0 144 -31.5t107.5 -83t71.5 -119t41.5 -138t12.5 -142.5zM1610 614q0 62 -10.5 122
t-32 115.5t-61 89.5t-91.5 34q-50 0 -88.5 -33.5t-60 -87.5t-32.5 -115.5t-11 -124.5q0 -89 19.5 -168t63.5 -134.5t105 -55.5q53 0 93 33t62 87.5t33 114.5t11 123zM1001 614q0 -71 -11 -140t-38.5 -138t-69 -120.5t-106.5 -83.5t-147 -32q-78 0 -141.5 31.5t-104 82.5
t-68.5 119.5t-39.5 138.5t-11.5 142q0 88 22 175t64 164.5t115 126t164 48.5q96 0 171 -48t117 -125.5t63 -164.5t21 -176zM827 614q0 65 -9.5 124.5t-30.5 114.5t-61.5 87.5t-96.5 32.5q-62 0 -106.5 -58t-63.5 -136.5t-19 -164.5q0 -85 19 -163.5t63.5 -136.5t106.5 -58
q51 0 91 33t62.5 87t33.5 114.5t11 123.5z" />
    <glyph glyph-name="uni3181" unicode="&#x3181;" horiz-adv-x="2048" 
d="M1464 518q0 -188 -119.5 -310t-320.5 -122q-195 0 -317.5 123t-122.5 307q0 95 28 172t69 122.5t92 76.5t91 43t72 14v182h176v-180q39 -3 82.5 -18t92.5 -48.5t87.5 -80t64 -120t25.5 -161.5zM1280 528q0 110 -74 187.5t-182 77.5q-107 0 -181.5 -77.5t-74.5 -191.5
q0 -107 74 -184.5t182 -77.5t182 76.5t74 189.5z" />
    <glyph glyph-name="uni3182" unicode="&#x3182;" horiz-adv-x="2048" 
d="M1880 244q-78 -78 -139 -146q-193 158 -344 400q-45 -96 -137.5 -215t-182.5 -201q-93 102 -145 141q403 315 403 888v22q31 -3 91 -5t75 -4q33 -3 45 -15t8 -23.5t-13 -27.5t-9 -22q-21 -220 -43 -307q108 -274 391 -485zM1001 614q0 -71 -11 -140t-38.5 -138
t-69 -120.5t-106.5 -83.5t-147 -32q-78 0 -141.5 31.5t-104 82.5t-68.5 119.5t-39.5 138.5t-11.5 142q0 88 22 175t64 164.5t115 126t164 48.5q96 0 171 -48t117 -125.5t63 -164.5t21 -176zM827 614q0 65 -9.5 124t-30.5 113.5t-61.5 87t-96.5 32.5q-62 0 -106.5 -57.5
t-63.5 -136t-19 -163.5q0 -84 19 -162t63.5 -135t106.5 -57q51 0 91 32.5t62.5 85.5t33.5 113.5t11 122.5z" />
    <glyph glyph-name="uni3183" unicode="&#x3183;" horiz-adv-x="2048" 
d="M1751 100h-739l370 1069zM1501 283l-123 366l-121 -366h244zM1001 614q0 -71 -11 -140t-38.5 -138t-69 -120.5t-106.5 -83.5t-147 -32q-78 0 -141.5 31.5t-104 82.5t-68.5 119.5t-39.5 138.5t-11.5 142q0 88 22 175t64 164.5t115 126t164 48.5q96 0 171 -48t117 -125.5
t63 -164.5t21 -176zM827 614q0 65 -9.5 124t-30.5 113.5t-61.5 87t-96.5 32.5q-62 0 -106.5 -57.5t-63.5 -136t-19 -163.5q0 -84 19 -162t63.5 -135t106.5 -57q51 0 91 32.5t62.5 85.5t33.5 113.5t11 122.5z" />
    <glyph glyph-name="uni3184" unicode="&#x3184;" horiz-adv-x="2048" 
d="M1536 1262h-1024v170h1024v-170zM1356 190q0 -135 -94.5 -234t-239.5 -99t-239.5 97.5t-94.5 235.5q0 135 93.5 234.5t240.5 99.5q144 0 239 -100.5t95 -233.5zM1180 190q0 66 -45 112t-111 46q-67 0 -112.5 -46t-45.5 -112t46 -112.5t112 -46.5q63 0 109.5 46.5
t46.5 112.5zM1610 637h-1174v174h291q-31 187 -45 334h170q16 -154 47 -334h252q43 194 51 334h174q-11 -130 -51 -334h285v-174z" />
    <glyph glyph-name="uni3185" unicode="&#x3185;" horiz-adv-x="2048" 
d="M1663 1044h-477v148h477v-148zM934 389q0 -133 -91 -223t-222 -90t-222.5 88.5t-91.5 224.5q0 134 89 223.5t225 89.5q137 0 225 -90t88 -223zM752 389q0 68 -32 107t-97 39q-58 0 -96 -38.5t-38 -107.5q0 -65 42 -105t92 -40q54 0 91.5 40.5t37.5 104.5zM1739 389
q0 -132 -89.5 -222.5t-224.5 -90.5t-224 90.5t-89 222.5q0 133 86.5 223t226.5 90q135 0 224.5 -89.5t89.5 -223.5zM1556 389q0 68 -32 107t-97 39q-58 0 -95.5 -38.5t-37.5 -107.5q0 -65 41.5 -105t91.5 -40q54 0 91.5 40.5t37.5 104.5zM1798 788h-743v160h743v-160z
M858 1044h-477v148h477v-148zM993 788h-743v160h743v-160z" />
    <glyph glyph-name="uni3186" unicode="&#x3186;" horiz-adv-x="2048" 
d="M1524 954h-1002v168h1002v-168zM1419 477q0 -164 -115.5 -279.5t-279.5 -115.5q-167 0 -281 111.5t-114 283.5q0 166 112.5 280.5t282.5 114.5q172 0 283.5 -112.5t111.5 -282.5zM1239 477q0 93 -59.5 156t-155.5 63q-95 0 -155 -64t-60 -155q0 -87 60 -152t155 -65
t155 64.5t60 152.5z" />
    <glyph glyph-name="uni3187" unicode="&#x3187;" horiz-adv-x="2048" 
d="M1872 338h-268v-590h-168v1735q51 0 141 -4q16 -1 24.5 -6.5t10 -15.5t0.5 -19t-4 -23t-4 -20v-463h264v-152h-264v-293h268v-149zM1317 -39h-1133v158h238v495q19 0 68.5 -2t72.5 -2q21 0 30 -9.5t8.5 -19.5t-5.5 -29t-6 -24v-409h241v495q56 0 146 -4q15 -1 23 -6.5
t8.5 -16t-1 -20t-5.5 -25.5t-5 -24v-399h320v-158z" />
    <glyph glyph-name="uni3188" unicode="&#x3188;" horiz-adv-x="2048" 
d="M1677 -254h-155v584h-207v-553h-156v1683q92 0 133 -4q13 -1 20.5 -5.5t11 -9t3 -14.5t-2 -15t-5 -17t-4.5 -15v-368h207v471q88 -2 127 -4q23 -1 32 -9.5t7 -18.5t-6.5 -27t-4.5 -27v-1651zM1522 475v391h-207v-391h207zM1102 -41h-948v152h206v501q23 0 68.5 -1
t65.5 -1q21 0 29.5 -8.5t8 -18.5t-4 -27.5t-3.5 -25.5v-419h203v501q19 0 64.5 -1t66.5 -1q19 0 29 -4.5t11.5 -14t0 -18.5t-4.5 -22.5t-3 -22.5v-417h211v-152z" />
    <glyph glyph-name="uni3189" unicode="&#x3189;" horiz-adv-x="2048" 
d="M1731 -252h-175v1735q52 0 146 -4q18 -1 27.5 -5t11.5 -13t0.5 -17t-5.5 -23t-5 -24v-1649zM1444 -41h-1153v158h244v495q96 0 137 -2q34 -1 38.5 -15t-8.5 -65v-413h281v495q94 0 135 -2q22 -1 31.5 -9.5t9 -18t-4 -27.5t-3.5 -27v-411h293v-158z" />
    <glyph glyph-name="uni318A" unicode="&#x318a;" horiz-adv-x="2048" 
d="M1763 -254h-168v180h-331v152h331v108h-331v152h331v1145q46 0 140 -4q13 0 21 -4t11.5 -8.5t3.5 -13.5t-1 -16t-3.5 -19.5t-3.5 -20.5v-1651zM1417 434h-323v-678h-168v678h-301v-672h-168v672h-310v158h1270v-158z" />
    <glyph glyph-name="uni318B" unicode="&#x318b;" horiz-adv-x="2048" 
d="M1720 -250h-174v1733q52 0 146 -4q21 -1 29.5 -8.5t8.5 -16t-4.5 -28t-5.5 -29.5v-1647zM1110 436h-262v-639h-168v639h-162v-633h-168v633h-203v158h963v-158zM1380 -231h-168v172h-249v145h249v123h-249v145h249v1073q46 0 140 -4q13 0 21 -4t11.5 -8.5t3.5 -13.5
t-1 -16t-3.5 -19.5t-3.5 -20.5v-1572z" />
    <glyph glyph-name="uni318C" unicode="&#x318c;" horiz-adv-x="2048" 
d="M1753 -250h-174v1735q51 0 145 -4q18 -1 27.5 -5t11.5 -13t0.5 -17t-5.5 -23t-5 -24v-1649zM1481 436h-332v-631h-168v631h-340v-624h-168v624h-346v158h1354v-158z" />
    <glyph glyph-name="uni318D" unicode="&#x318d;" horiz-adv-x="2048" 
d="M1174 637q0 -44 -32.5 -76.5t-76.5 -32.5t-76.5 32.5t-32.5 76.5t32.5 76t76.5 32t76.5 -32t32.5 -76z" />
    <glyph glyph-name="uni318E" unicode="&#x318e;" horiz-adv-x="2048" 
d="M1276 -250h-193v1735q79 0 160 -6q28 -2 38.5 -12t8.5 -21.5t-8 -30t-6 -29.5v-1636zM846 637q0 -44 -32.5 -76.5t-76.5 -32.5t-76 32.5t-32 76.5t32 76t76 32t76.5 -32t32.5 -76z" />
    <glyph glyph-name="uni2170" unicode="&#x2170;" horiz-adv-x="2048" 
d="M1126 1194h-137v158h137v-158zM1126 -41h-137v901h137v-901z" />
    <glyph glyph-name="uni2171" unicode="&#x2171;" horiz-adv-x="2048" 
d="M1354 1194h-137v158h137v-158zM829 -41h-137v901h137v-901zM829 1194h-137v158h137v-158zM1354 -41h-137v901h137v-901z" />
    <glyph glyph-name="uni2172" unicode="&#x2172;" horiz-adv-x="2048" 
d="M1681 1194h-137v158h137v-158zM502 -41h-137v901h137v-901zM1085 1194h-137v158h137v-158zM1085 -41h-137v901h137v-901zM1681 -41h-137v901h137v-901zM502 1194h-137v158h137v-158z" />
    <glyph glyph-name="uni2173" unicode="&#x2173;" horiz-adv-x="2048" 
d="M618 1194h-137v158h137v-158zM618 -41h-137v901h137v-901zM1714 860l-381 -913h-57l-381 913h143l267 -672l266 672h143z" />
    <glyph glyph-name="uni2174" unicode="&#x2174;" horiz-adv-x="2048" 
d="M1475 860l-402 -913h-98l-402 913h144l307 -690l307 690h144z" />
    <glyph glyph-name="uni2175" unicode="&#x2175;" horiz-adv-x="2048" 
d="M1548 1194h-137v158h137v-158zM1135 860l-381 -913h-58l-381 913h144l266 -631l266 631h144zM1548 -41h-137v901h137v-901z" />
    <glyph glyph-name="uni2176" unicode="&#x2176;" horiz-adv-x="2048" 
d="M1853 1194h-137v158h137v-158zM889 860l-340 -913h-57l-340 913h143l225 -610l225 610h144zM1370 1194h-137v158h137v-158zM1370 -41h-137v901h137v-901zM1853 -41h-137v901h137v-901z" />
    <glyph glyph-name="uni2177" unicode="&#x2177;" horiz-adv-x="2048" 
d="M1884 1194h-137v158h137v-158zM827 860l-340 -913h-57l-340 913h143l226 -610l225 610h143zM1503 1194h-137v158h137v-158zM1141 -41h-137v901h137v-901zM1141 1194h-137v158h137v-158zM1503 -41h-137v901h137v-901zM1884 -41h-137v901h137v-901z" />
    <glyph glyph-name="uni2178" unicode="&#x2178;" horiz-adv-x="2048" 
d="M637 1194h-137v158h137v-158zM637 -41h-137v901h137v-901zM1726 -41h-165l-269 350l-266 -350h-166l359 473l-324 428h166l237 -325l248 325h166l-344 -426z" />
    <glyph glyph-name="uni2179" unicode="&#x2179;" horiz-adv-x="2048" 
d="M1448 -41h-166l-268 350l-266 -350h-166l358 473l-324 428h166l238 -325l248 325h166l-344 -426z" />
    <glyph glyph-name="uni2160" unicode="&#x2160;" horiz-adv-x="2048" 
d="M1112 -160h-168v1542h168v-1542z" />
    <glyph glyph-name="uni2161" unicode="&#x2161;" horiz-adv-x="2048" 
d="M1421 -160h-159v1542h159v-1542zM791 -160h-160v1542h160v-1542z" />
    <glyph glyph-name="uni2162" unicode="&#x2162;" horiz-adv-x="2048" 
d="M1622 -160h-154v1542h154v-1542zM582 -160h-154v1542h154v-1542zM1102 -160h-154v1542h154v-1542z" />
    <glyph glyph-name="uni2163" unicode="&#x2163;" horiz-adv-x="2048" 
d="M1716 1382l-467 -1544h-82l-467 1544h152l356 -1192l357 1192h151zM514 -160h-141v1542h141v-1542z" />
    <glyph glyph-name="uni2164" unicode="&#x2164;" horiz-adv-x="2048" 
d="M1532 1382l-467 -1544h-82l-467 1544h152l356 -1192l356 1192h152z" />
    <glyph glyph-name="uni2165" unicode="&#x2165;" horiz-adv-x="2048" 
d="M1655 -160h-142v1542h142v-1542zM1335 1382l-467 -1544h-82l-467 1544h152l356 -1192l357 1192h151z" />
    <glyph glyph-name="uni2166" unicode="&#x2166;" horiz-adv-x="2048" 
d="M1761 -160h-141v1542h141v-1542zM1098 1382l-357 -1544h-102l-356 1544h141l266 -1177l266 1177h142zM1415 -160h-141v1542h141v-1542z" />
    <glyph glyph-name="uni2167" unicode="&#x2167;" horiz-adv-x="2048" 
d="M1835 -160h-141v1542h141v-1542zM864 1382l-319 -1564h-64l-319 1564h141l209 -1058l211 1058h141zM1505 -160h-141v1542h141v-1542zM1169 -160h-141v1542h141v-1542z" />
    <glyph glyph-name="uni2168" unicode="&#x2168;" horiz-adv-x="2048" 
d="M1673 -160h-162l-274 596l-276 -596h-162l366 793l-366 749h162l274 -565l276 565h162l-366 -749zM532 -160h-137v1542h137v-1542z" />
    <glyph glyph-name="uni2169" unicode="&#x2169;" horiz-adv-x="2048" 
d="M1563 1382l-447 -770l438 -772h-182l-348 611l-348 -611h-182l448 789l-448 753h182l356 -600l348 600h183z" />
    <glyph glyph-name="Alpha" unicode="&#x391;" horiz-adv-x="2048" 
d="M1479 0h-185l-118 494h-383l-236 -494h-195l699 1452h63zM1141 666l-90 374l-179 -374h269z" />
    <glyph glyph-name="Beta" unicode="&#x392;" horiz-adv-x="2048" 
d="M1597 365q-7 -118 -71.5 -202t-162 -123.5t-216.5 -39.5h-793l297 1452h453q212 0 320 -99t108 -261q0 -80 -25 -142.5t-67 -100.5t-87.5 -59.5t-95.5 -29.5q41 -5 82 -16.5t92 -40.5t88 -70t60 -111t18 -157zM1356 1094q4 63 -39 109t-110 67.5t-146 21.5h-258l-88 -454
h301q158 0 245 70.5t95 185.5zM1421 387q9 99 -45 168t-147 100t-217 31h-326l-115 -522h555q36 0 72.5 6.5t75.5 23t69.5 40.5t52 64t25.5 89z" />
    <glyph glyph-name="Gamma" unicode="&#x393;" horiz-adv-x="2048" 
d="M1786 1452l-43 -174h-936l-258 -1278h-197l297 1452h1137z" />
    <glyph glyph-name="uni0394" unicode="&#x394;" horiz-adv-x="2048" 
d="M1411 0h-1116l698 1452h72zM1192 164l-207 897l-414 -897h621z" />
    <glyph glyph-name="Epsilon" unicode="&#x395;" horiz-adv-x="2048" 
d="M1665 1452l-35 -170h-811l-90 -438h678l-35 -172h-676l-104 -502h831l-34 -170h-1035l297 1452h1014z" />
    <glyph glyph-name="Zeta" unicode="&#x396;" horiz-adv-x="2048" 
d="M1788 1452l-39 -162l-1120 -1120h854l-37 -170h-1090l33 168l1120 1116h-809l35 168h1053z" />
    <glyph glyph-name="Eta" unicode="&#x397;" horiz-adv-x="2048" 
d="M1661 1452l-293 -1452h-182l133 662h-637l-133 -662h-184l292 1452h183l-125 -623h637l125 623h184z" />
    <glyph glyph-name="Theta" unicode="&#x398;" horiz-adv-x="2048" 
d="M1552 711q-24 -116 -66.5 -225.5t-108.5 -208t-146.5 -168t-186.5 -101t-221 -10.5q-93 16 -162 60.5t-109.5 109t-59.5 149t-17 179.5t23 202q25 127 70.5 243.5t112 217t148 171.5t184 106.5t212.5 23.5q104 -11 178 -58.5t113 -118t54.5 -165t10 -194.5t-28.5 -213z
M1403 715q23 101 25.5 202t-15.5 189.5t-68.5 148t-127.5 68.5q-104 12 -201.5 -40.5t-169 -146.5t-122.5 -208t-75 -234q-21 -92 -18 -181.5t23 -163t70 -128.5t124 -76q82 -24 172.5 18.5t164.5 127.5t132.5 197t85.5 227zM1282 797q1 0 -8.5 -36t-19.5 -72l-9 -36h-479
l41 144h475z" />
    <glyph glyph-name="Iota" unicode="&#x399;" horiz-adv-x="2048" 
d="M1266 1452l-297 -1452h-183l297 1452h183z" />
    <glyph glyph-name="Kappa" unicode="&#x39a;" horiz-adv-x="2048" 
d="M1663 1452l-844 -647l584 -805h-215l-494 694l-133 -694h-186l293 1452h186l-92 -489l643 489h258z" />
    <glyph glyph-name="Lambda" unicode="&#x39b;" horiz-adv-x="2048" 
d="M1479 0h-181l-254 1042l-485 -1042h-197l689 1452h86z" />
    <glyph glyph-name="Mu" unicode="&#x39c;" horiz-adv-x="2048" 
d="M1786 1452l-293 -1452h-168l209 1042l-606 -1042h-39l-156 993l-207 -993h-170l293 1452h154l174 -1081l641 1081h168z" />
    <glyph glyph-name="Nu" unicode="&#x39d;" horiz-adv-x="2048" 
d="M1786 1452l-293 -1452h-190l-523 1180l-239 -1180h-185l293 1452h187l532 -1145l231 1145h187z" />
    <glyph glyph-name="Xi" unicode="&#x39e;" horiz-adv-x="2048" 
d="M1786 1452l-37 -188h-1143l39 188h1141zM1530 172l-35 -172h-1143l37 172h1141zM1520 842l-33 -168h-856l35 168h854z" />
    <glyph glyph-name="Omicron" unicode="&#x39f;" horiz-adv-x="2048" 
d="M1548 709q-24 -117 -65 -226.5t-105.5 -210t-143 -170.5t-182.5 -101t-218 -7q-110 22 -189 86.5t-118 158t-48.5 212t19.5 249.5q27 132 71 250t110 222.5t145.5 175t184 102t220.5 10.5q124 -23 204 -92t112 -172.5t32 -224t-29 -262.5zM1395 717q23 99 25.5 196.5
t-16 182t-68 143.5t-124.5 74q-85 16 -164 -12t-140 -88t-112 -145.5t-85.5 -180t-55.5 -195.5q-23 -126 -14.5 -236.5t65 -196.5t152.5 -116q69 -22 140 1.5t131.5 80.5t113.5 137t91.5 171.5t60.5 183.5z" />
    <glyph glyph-name="Pi" unicode="&#x3a0;" horiz-adv-x="2048" 
d="M1700 1452l-295 -1452h-178l256 1290h-688l-258 -1290h-183l295 1452h1051z" />
    <glyph glyph-name="Rho" unicode="&#x3a1;" horiz-adv-x="2048" 
d="M1534 1040q-29 -189 -166.5 -291t-413.5 -102h-282l-146 -647h-172l297 1452h467q76 0 141.5 -13t123.5 -43.5t95.5 -76.5t53.5 -117.5t2 -161.5zM1362 1055q15 67 -3 116t-63 75.5t-101.5 39t-125.5 12.5h-270l-94 -489h270q103 0 172.5 15.5t112 49t65 75.5t37.5 106z
" />
    <glyph glyph-name="Sigma" unicode="&#x3a3;" horiz-adv-x="2048" 
d="M1788 1452l-35 -170h-936l473 -590l-643 -522h877l-35 -170h-1133l33 168l674 551l-447 559l33 174h1139z" />
    <glyph glyph-name="Tau" unicode="&#x3a4;" horiz-adv-x="2048" 
d="M1657 1452l-33 -170h-471l-250 -1282h-188l258 1282h-486l33 170h1137z" />
    <glyph glyph-name="Upsilon" unicode="&#x3a5;" horiz-adv-x="2048" 
d="M1743 1452l-617 -805l-135 -647h-182l135 637l-338 815h185l258 -643l497 643h197z" />
    <glyph glyph-name="Phi" unicode="&#x3a6;" horiz-adv-x="2048" 
d="M1636 702q-54 -260 -216.5 -397t-415.5 -155l-33 -173h-172l37 189q-132 29 -218 112t-116 198t-4 247q52 263 207 406t368 159l33 182h170l-37 -188q96 -13 176.5 -54t142 -113.5t82 -175t-3.5 -237.5zM1468 705q38 183 -28.5 289t-231.5 136l-170 -819
q167 12 281.5 119t148.5 275zM1038 1128q-50 -6 -103 -31.5t-105.5 -72t-95.5 -124t-64 -173.5q-34 -151 17.5 -259.5t180.5 -141.5z" />
    <glyph glyph-name="Chi" unicode="&#x3a7;" horiz-adv-x="2048" 
d="M1788 1452l-612 -741l331 -711h-184l-268 571l-480 -571h-227l629 741l-338 711h184l269 -571l473 571h223z" />
    <glyph glyph-name="Psi" unicode="&#x3a8;" horiz-adv-x="2048" 
d="M1751 1452l-131 -647q-87 -427 -561 -445l-76 -360h-164l76 360q-145 18 -235 85.5t-118.5 165t-4.5 218.5l127 623h167l-129 -610q-21 -96 -10.5 -163t67.5 -105.5t169 -49.5l188 928h166l-190 -924q58 1 113.5 16.5t106.5 47t88.5 85.5t51.5 124l133 651h166z" />
    <glyph glyph-name="uni03A9" unicode="&#x3a9;" horiz-adv-x="2048" 
d="M1688 735q-53 -178 -166 -316.5t-308 -271.5h306l-31 -147h-551l41 158q227 119 373 281.5t188 316.5q15 55 20.5 114t1 123t-27.5 121t-60.5 103.5t-101.5 75.5t-147 32q-141 6 -265 -72t-201 -206.5t-97 -276.5q-9 -62 -8.5 -119t6.5 -103t21.5 -92.5t31.5 -81.5
t41 -75.5t45.5 -68.5t50.5 -66l-45 -164h-465l31 145h307q-28 41 -45.5 68t-41 69t-37 76t-28 81t-20 92t-6 101t7.5 116q30 230 133 397t260.5 248t349.5 69q97 -6 175.5 -37t129.5 -77.5t87 -107t52 -125t20.5 -133t-3.5 -130.5t-24 -117z" />
    <glyph glyph-name="alpha" unicode="&#x3b1;" horiz-adv-x="2048" 
d="M1010 1073l-193 -680q-10 -32 -10.5 -55t10.5 -44t44 -30.5t87 -5.5l-57 -133q-19 1 -43 -1.5t-51 4.5t-50.5 19t-41.5 42.5t-25 74.5q-23 -21 -55.5 -44.5t-84 -48.5t-103.5 -39t-113.5 -8.5t-114.5 36.5q-68 40 -96 120.5t-18 174t41.5 187.5t78.5 171q52 87 133.5 156
t177 99.5t185.5 -5.5q10 -4 19 -9t16 -9t14.5 -9.5t12 -9t11.5 -10.5t10 -10.5t10.5 -11.5t10.5 -11l29 90h166zM758 770q-6 53 -38 101t-81 67q-63 25 -164 -53.5t-156 -179.5q-58 -107 -65 -234.5t49 -177.5q57 -43 173 11.5t198 148.5z" />
    <glyph glyph-name="beta" unicode="&#x3b2;" horiz-adv-x="2048" 
d="M903 549q-4 -148 -113.5 -246t-261.5 -98q-159 0 -249 86l-82 -660h-156l209 1688q10 79 55 140.5t109.5 92.5t144 41.5t158.5 -12.5q109 -29 164 -151.5t18 -262.5q-15 -59 -44 -105t-64 -72.5t-61 -40t-52 -21.5q107 -59 168 -157.5t57 -221.5zM754 1231
q12 91 -21.5 144t-89.5 71q-23 5 -52.5 6.5t-63 -11t-61.5 -31.5t-49 -54.5t-26 -81.5l-92 -795q44 -57 114.5 -92.5t123.5 -32.5q55 4 97.5 29t65 62.5t33.5 75t12 73.5q2 92 -76.5 171.5t-240.5 106.5l16 150q158 -14 226 38.5t84 170.5z" />
    <glyph glyph-name="gamma" unicode="&#x3b3;" horiz-adv-x="2048" 
d="M1010 1079l-496 -846l-115 -602h-172l123 641q-129 490 -170 611q-12 35 -32.5 47t-77.5 18l18 142q92 0 135 -18q55 -25 78 -79q16 -41 56.5 -178t72.5 -254l33 -117l360 635h187z" />
    <glyph glyph-name="delta" unicode="&#x3b4;" horiz-adv-x="2048" 
d="M936 1448h-502q107 -146 250 -326q109 -137 134 -174q87 -128 94 -260q1 -32 -1 -67q-7 -121 -42 -217.5t-97.5 -164.5t-159 -98.5t-217.5 -15.5q-66 8 -117 34.5t-82 66.5t-51.5 87t-27 101t-5.5 104t9 100q14 84 50 154t82 115.5t104 79.5t111 51t107 24l-327 416
l16 139h672v-149zM737 522q45 200 -96 396q-37 -1 -77 -10t-87 -31t-86 -54.5t-70 -87t-42 -121.5q-24 -135 13 -224t128 -111q122 -29 204.5 37.5t112.5 205.5z" />
    <glyph glyph-name="epsilon" unicode="&#x3b5;" horiz-adv-x="2048" 
d="M887 834l-144 -39q-8 53 -47 89.5t-104 43.5q-94 12 -155.5 -13t-67.5 -75q-6 -48 17.5 -82t100.5 -45l-12 -150q-193 -6 -205 -149q-5 -60 62 -101t170 -41q170 0 225 109l129 -74q-25 -56 -64.5 -94t-91 -57t-103 -26t-118.5 -7q-109 0 -199.5 39t-139 111t-34.5 159
q12 75 61 132t116 79q-86 96 -78 201q7 82 67 139.5t148 80t186 9.5q131 -17 196.5 -74t84.5 -165z" />
    <glyph glyph-name="zeta" unicode="&#x3b6;" horiz-adv-x="2048" 
d="M985 1597l-12 -151q-12 -10 -42 -33q-226 -179 -358 -319q-318 -339 -340 -658q-2 -45 -0.5 -79.5t20.5 -58t58 -32.5q32 -7 74.5 -11t78 -5.5t112 -3.5t131.5 -4q76 -3 113.5 -51t37.5 -103q0 -165 -78 -457h-149q18 73 71 359q16 57 0.5 81t-92.5 27q-4 0 -100.5 0.5
t-151.5 5.5q-62 6 -109.5 21.5t-78.5 36.5t-51 51.5t-29.5 59t-12.5 67t-1.5 67.5t6.5 68q19 158 91 309t195 288.5t189 200.5t185 163l6 6t5.5 5t6.5 5h-598l12 145h811z" />
    <glyph glyph-name="eta" unicode="&#x3b7;" horiz-adv-x="2048" 
d="M940 813l-186 -1182h-166l178 1117q14 94 -4 134t-86 50q-84 11 -166 -38t-125 -122l-92 -643h-172l106 686q-3 27 -5.5 39t-10.5 28.5t-24.5 25.5t-43.5 14l27 161q146 -17 186 -139q79 76 158 110t172 27q133 -12 201.5 -89.5t52.5 -178.5z" />
    <glyph glyph-name="theta" unicode="&#x3b8;" horiz-adv-x="2048" 
d="M956 858q-13 -80 -29.5 -153t-42.5 -151t-58 -142.5t-76 -122t-94.5 -95.5t-116.5 -56.5t-140 -10.5q-69 7 -120.5 36.5t-82 71t-47.5 102t-22 118.5t0 133.5t12.5 133.5t20.5 132q21 122 49.5 225t75.5 203.5t105.5 168.5t142.5 107.5t184 34.5q66 -3 115 -27.5t80 -62
t48.5 -95t24 -116t3 -136.5t-11 -145.5t-20.5 -152.5zM819 944q13 86 14.5 169.5t-9 161.5t-44.5 127t-88 52q-73 4 -133.5 -38t-102.5 -120t-70.5 -162t-51.5 -190h485zM791 823h-492q-13 -93 -19 -165.5t-3.5 -145t17 -121t46.5 -81t80 -38.5q61 -7 115.5 24.5t93.5 86.5
t72.5 132t54 152.5t35.5 155.5z" />
    <glyph glyph-name="iota" unicode="&#x3b9;" horiz-adv-x="2048" 
d="M670 283l-19 -160q-161 2 -225 27.5t-53 99.5l141 852h156l-131 -754q0 -5 -1 -15t-1 -13.5t1.5 -10.5t6.5 -9.5t14.5 -6.5t24 -5.5t36 -3t50.5 -1.5z" />
    <glyph glyph-name="kappa" unicode="&#x3ba;" horiz-adv-x="2048" 
d="M975 1081l-529 -401l445 -557h-180l-377 475l-66 -55l-67 -420h-158l152 958h157l-55 -358l487 358h191z" />
    <glyph glyph-name="lambda" unicode="&#x3bb;" horiz-adv-x="2048" 
d="M981 244l-29 -131q-25 0 -35.5 0.5t-31.5 2t-30.5 4t-26.5 7t-25.5 11.5t-21 17.5t-20.5 24t-16.5 31.5t-15.5 41l-168 565l-373 -694h-168l476 889l-97 325q-1 4 -6 20.5t-7.5 24.5t-9 23.5t-13 24t-16 19t-22.5 16.5t-28 8l22 137q154 -7 203 -168l330 -1071
q24 -79 45 -103t84 -24z" />
    <glyph glyph-name="uni03BC" unicode="&#x3bc;" horiz-adv-x="2048" 
d="M981 1081l-121 -743q-9 -50 10 -74.5t95 -23.5q-22 -79 -35 -140q-80 -8 -123 8q-55 23 -80 80q-102 -89 -266 -75q-86 8 -162 90l-88 -572h-166l227 1450h166l-108 -684q25 -57 68.5 -96.5t93.5 -42.5q64 -4 122.5 27t92.5 69l116 727h158z" />
    <glyph glyph-name="nu" unicode="&#x3bd;" horiz-adv-x="2048" 
d="M989 1081l-450 -958h-146l-241 958h153l182 -735l342 735h160z" />
    <glyph glyph-name="xi" unicode="&#x3be;" horiz-adv-x="2048" 
d="M985 1597l-14 -143h-410q-71 -29 -125.5 -97.5t-54.5 -152.5q0 -79 38.5 -130.5t134 -87t259.5 -52.5l-14 -127q-106 5 -197 -4.5t-167.5 -36t-128 -76t-70.5 -117.5q-7 -25 -10.5 -64t-2 -87.5t20.5 -88.5t55 -52q47 -15 99.5 -22t85 -7.5t100.5 1t98 1.5
q111 0 151.5 -41t32.5 -133q-18 -196 -75 -449h-152q43 169 74 361q16 74 2 95.5t-94 21.5q-92 0 -130 1t-96.5 7t-120.5 20q-63 15 -106.5 53.5t-63.5 85t-27 105t-4.5 105t11.5 92.5q25 126 125 210.5t225 106.5q-115 61 -163.5 144t-41.5 175q11 132 107 240h-176l14 143
h811z" />
    <glyph glyph-name="omicron" unicode="&#x3bf;" horiz-adv-x="2048" 
d="M905 588q-16 -101 -57.5 -189t-102 -152.5t-143.5 -97.5t-176 -22q-79 9 -139.5 41t-96 78.5t-57 106t-22 123.5t7.5 130q23 142 87 250.5t169.5 169t234.5 49.5q122 -11 197 -82t96.5 -174.5t1.5 -230.5zM758 592q24 149 -15.5 236t-134.5 106q-118 22 -216.5 -74.5
t-121.5 -261.5q-13 -89 1.5 -160t60 -118.5t119.5 -57.5q101 -14 191 80.5t116 249.5z" />
    <glyph glyph-name="pi" unicode="&#x3c0;" horiz-adv-x="2048" 
d="M967 1081l-25 -145h-143l-101 -588q-1 -7 -3 -18q-8 -39 0 -46q10 -10 84 -7q6 0 20 1q18 1 28 1l-20 -146q-97 -4 -160.5 -0.5t-91 34t-16.5 97.5l104 672h-207l-131 -813h-153l131 813h-136l21 145h799z" />
    <glyph glyph-name="rho" unicode="&#x3c1;" horiz-adv-x="2048" 
d="M915 655q-6 -72 -22.5 -142.5t-52.5 -145t-86 -128t-129 -82t-176 -16.5q-34 5 -63.5 19t-42.5 24t-48 39l-92 -592h-158l182 1170q13 84 59.5 144.5t110.5 89t129 38.5t127 2q54 -8 98 -30.5t71 -53t47.5 -68.5t29 -76t14.5 -75t4 -66.5t-2 -50.5zM760 625
q13 111 -22 200t-113 107q-70 16 -155 -32.5t-99 -143.5l-49 -342q21 -60 67 -95.5t88 -42.5q108 -19 186.5 85.5t96.5 263.5z" />
    <glyph glyph-name="sigma" unicode="&#x3c3;" horiz-adv-x="2048" 
d="M967 1063l-25 -133h-102q79 -135 47 -342q-16 -102 -55 -189.5t-98.5 -152.5t-144 -97.5t-181.5 -21.5q-79 8 -140 40t-96.5 78.5t-57.5 106.5t-23 124t7 130q23 142 86.5 251t169.5 170t238 50q21 -2 70 -14h305zM735 592q25 148 -16.5 238.5t-126.5 103.5
q-125 19 -222 -75t-120 -259q-20 -137 26.5 -231.5t155.5 -104.5q100 -9 188.5 85t114.5 243z" />
    <glyph glyph-name="tau" unicode="&#x3c4;" horiz-adv-x="2048" 
d="M967 1081l-27 -145h-322l-94 -604q-4 -16 -3.5 -29t9.5 -22t39.5 -14t85.5 -5l-24 -141q-160 -3 -222 30t-49 121l103 664h-318l23 145h799z" />
    <glyph glyph-name="upsilon" unicode="&#x3c5;" horiz-adv-x="2048" 
d="M973 1081l-105 -651q-50 -307 -454 -307q-51 0 -101.5 8.5t-100.5 30t-86 53t-54 81.5t-9 112l105 673h154l-93 -579q-16 -85 -3 -136t62.5 -73t153.5 -23q132 -2 199 49t88 185l90 577h154z" />
    <glyph glyph-name="phi" unicode="&#x3c6;" horiz-adv-x="2048" 
d="M977 590q-33 -177 -148.5 -270t-300.5 -101l-92 -588h-149l96 609q-126 36 -207 111t-108.5 161.5t-14.5 181.5q12 88 46 157.5t81.5 112t97.5 67.5t105 36l29 -123q-98 -29 -147 -94.5t-62 -165.5q-16 -112 41.5 -188t163.5 -111l106 698q127 -7 225.5 -51.5t154 -113.5
t77.5 -153.5t6 -174.5zM834 604q11 62 -3.5 120t-45.5 98t-70 66.5t-78 33.5l-78 -557q107 1 183.5 74.5t91.5 164.5z" />
    <glyph glyph-name="chi" unicode="&#x3c7;" horiz-adv-x="2048" 
d="M997 1081l-405 -481l254 -477h-152l-194 369l-307 -369h-170l409 485l-256 473h152l196 -360l307 360h166z" />
    <glyph glyph-name="psi" unicode="&#x3c8;" horiz-adv-x="2048" 
d="M993 1075l-100 -620q-24 -150 -116.5 -226t-256.5 -90l-82 -508h-143l80 514q-328 50 -285 316l100 614h144l-92 -563q-7 -43 -8.5 -70.5t4 -58t23 -48.5t52 -32t86.5 -18l209 1312h146l-211 -1312q182 15 217 229l90 561h143z" />
    <glyph glyph-name="omega" unicode="&#x3c9;" horiz-adv-x="2048" 
d="M991 571q-10 -72 -35.5 -145t-66 -140t-101 -109.5t-129.5 -43.5q-78 -1 -128 29t-89 100q-52 -74 -125 -100t-151 -6q-48 12 -79.5 51t-44.5 88t-15.5 113.5t2.5 117t14 107.5q19 115 75.5 254.5t104.5 204.5l131 -52q-56 -81 -101 -201t-60 -210q-12 -74 -17 -140.5
t5.5 -127t41.5 -66.5q46 -9 85 11t61 61q16 27 55.5 191.5t48.5 225.5h143q-8 -45 -38.5 -188.5t-40.5 -200.5q-7 -38 22.5 -72.5t77.5 -43.5q69 -13 133 87t78 224q17 164 -53 457l141 28q81 -310 55 -504z" />
    <glyph glyph-name="SF100000" unicode="&#x2500;" horiz-adv-x="2048" 
d="M2048 573h-2048v82h2048v-82z" />
    <glyph glyph-name="SF110000" unicode="&#x2502;" horiz-adv-x="2048" 
d="M1065 -410h-82v2048h82v-2048z" />
    <glyph glyph-name="SF010000" unicode="&#x250c;" horiz-adv-x="2048" 
d="M2048 573h-983v-983h-82v1065h1065v-82z" />
    <glyph glyph-name="SF030000" unicode="&#x2510;" horiz-adv-x="2048" 
d="M1065 -410h-82v983h-983v82h1065v-1065z" />
    <glyph glyph-name="SF040000" unicode="&#x2518;" horiz-adv-x="2048" 
d="M1065 573h-1065v82h983v983h82v-1065z" />
    <glyph glyph-name="SF020000" unicode="&#x2514;" horiz-adv-x="2048" 
d="M2048 573h-1065v1065h82v-983h983v-82z" />
    <glyph glyph-name="SF080000" unicode="&#x251c;" horiz-adv-x="2048" 
d="M2048 573h-983v-983h-82v2048h82v-983h983v-82z" />
    <glyph glyph-name="SF060000" unicode="&#x252c;" horiz-adv-x="2048" 
d="M2048 573h-983v-983h-82v983h-983v82h2048v-82z" />
    <glyph glyph-name="SF090000" unicode="&#x2524;" horiz-adv-x="2048" 
d="M1065 -410h-82v983h-983v82h983v983h82v-2048z" />
    <glyph glyph-name="SF070000" unicode="&#x2534;" horiz-adv-x="2048" 
d="M2048 573h-2048v82h983v983h82v-983h983v-82z" />
    <glyph glyph-name="SF050000" unicode="&#x253c;" horiz-adv-x="2048" 
d="M2048 573h-983v-983h-82v983h-983v82h983v983h82v-983h983v-82z" />
    <glyph glyph-name="uni2501" unicode="&#x2501;" horiz-adv-x="2048" 
d="M2048 532h-2048v164h2048v-164z" />
    <glyph glyph-name="uni2503" unicode="&#x2503;" horiz-adv-x="2048" 
d="M1106 -410h-164v2048h164v-2048z" />
    <glyph glyph-name="uni250F" unicode="&#x250f;" horiz-adv-x="2048" 
d="M2048 532h-942v-942h-164v1106h1106v-164z" />
    <glyph glyph-name="uni2513" unicode="&#x2513;" horiz-adv-x="2048" 
d="M1106 -410h-164v942h-942v164h1106v-1106z" />
    <glyph glyph-name="uni251B" unicode="&#x251b;" horiz-adv-x="2048" 
d="M1106 532h-1106v164h942v942h164v-1106z" />
    <glyph glyph-name="uni2517" unicode="&#x2517;" horiz-adv-x="2048" 
d="M2048 532h-1106v1106h164v-942h942v-164z" />
    <glyph glyph-name="uni2523" unicode="&#x2523;" horiz-adv-x="2048" 
d="M2048 532h-942v-942h-164v2048h164v-942h942v-164z" />
    <glyph glyph-name="uni2533" unicode="&#x2533;" horiz-adv-x="2048" 
d="M2048 532h-942v-942h-164v942h-942v164h2048v-164z" />
    <glyph glyph-name="uni252B" unicode="&#x252b;" horiz-adv-x="2048" 
d="M1106 -410h-164v942h-942v164h942v942h164v-2048z" />
    <glyph glyph-name="uni253B" unicode="&#x253b;" horiz-adv-x="2048" 
d="M2048 532h-2048v164h942v942h164v-942h942v-164z" />
    <glyph glyph-name="uni254B" unicode="&#x254b;" horiz-adv-x="2048" 
d="M2048 532h-942v-942h-164v942h-942v164h942v942h164v-942h942v-164z" />
    <glyph glyph-name="uni2520" unicode="&#x2520;" horiz-adv-x="2048" 
d="M2048 573h-942v-983h-164v2048h164v-983h942v-82z" />
    <glyph glyph-name="uni252F" unicode="&#x252f;" horiz-adv-x="2048" 
d="M2048 532h-983v-942h-82v942h-983v164h2048v-164z" />
    <glyph glyph-name="uni2528" unicode="&#x2528;" horiz-adv-x="2048" 
d="M1106 -410h-164v983h-942v82h942v983h164v-2048z" />
    <glyph glyph-name="uni2537" unicode="&#x2537;" horiz-adv-x="2048" 
d="M2048 532h-2048v164h983v942h82v-942h983v-164z" />
    <glyph glyph-name="uni253F" unicode="&#x253f;" horiz-adv-x="2048" 
d="M2048 532h-983v-942h-82v942h-983v164h983v942h82v-942h983v-164z" />
    <glyph glyph-name="uni251D" unicode="&#x251d;" horiz-adv-x="2048" 
d="M2048 532h-983v-942h-82v2048h82v-942h983v-164z" />
    <glyph glyph-name="uni2530" unicode="&#x2530;" horiz-adv-x="2048" 
d="M2048 573h-942v-983h-164v983h-942v82h2048v-82z" />
    <glyph glyph-name="uni2525" unicode="&#x2525;" horiz-adv-x="2048" 
d="M1065 -410h-82v942h-983v164h983v942h82v-2048z" />
    <glyph glyph-name="uni2538" unicode="&#x2538;" horiz-adv-x="2048" 
d="M2048 573h-2048v82h942v983h164v-983h942v-82z" />
    <glyph glyph-name="uni2542" unicode="&#x2542;" horiz-adv-x="2048" 
d="M2048 573h-942v-983h-164v983h-942v82h942v983h164v-983h942v-82z" />
    <glyph glyph-name="uni2512" unicode="&#x2512;" horiz-adv-x="2048" 
d="M1106 -410h-164v983h-942v82h1106v-1065z" />
    <glyph glyph-name="uni2511" unicode="&#x2511;" horiz-adv-x="2048" 
d="M1065 -410h-82v942h-983v164h1065v-1106z" />
    <glyph glyph-name="uni251A" unicode="&#x251a;" horiz-adv-x="2048" 
d="M1106 573h-1106v82h942v983h164v-1065z" />
    <glyph glyph-name="uni2519" unicode="&#x2519;" horiz-adv-x="2048" 
d="M1065 532h-1065v164h983v942h82v-1106z" />
    <glyph glyph-name="uni2516" unicode="&#x2516;" horiz-adv-x="2048" 
d="M2048 573h-1106v1065h164v-983h942v-82z" />
    <glyph glyph-name="uni2515" unicode="&#x2515;" horiz-adv-x="2048" 
d="M2048 532h-1065v1106h82v-942h983v-164z" />
    <glyph glyph-name="uni250E" unicode="&#x250e;" horiz-adv-x="2048" 
d="M2048 573h-942v-983h-164v1065h1106v-82z" />
    <glyph glyph-name="uni250D" unicode="&#x250d;" horiz-adv-x="2048" 
d="M2048 532h-983v-942h-82v1106h1065v-164z" />
    <glyph glyph-name="uni251E" unicode="&#x251e;" horiz-adv-x="2048" 
d="M2048 573h-983v-983h-82v1024h-41v1024h164v-983h942v-82z" />
    <glyph glyph-name="uni251F" unicode="&#x251f;" horiz-adv-x="2048" 
d="M2048 573h-942v-983h-164v1024h41v1024h82v-983h983v-82z" />
    <glyph glyph-name="uni2521" unicode="&#x2521;" horiz-adv-x="2048" 
d="M2048 532h-983v-942h-82v1024h-41v1024h164v-942h942v-164z" />
    <glyph glyph-name="uni2522" unicode="&#x2522;" horiz-adv-x="2048" 
d="M2048 532h-942v-942h-164v1024h41v1024h82v-942h983v-164z" />
    <glyph glyph-name="uni2526" unicode="&#x2526;" horiz-adv-x="2048" 
d="M1106 614h-41v-1024h-82v983h-983v82h942v983h164v-1024z" />
    <glyph glyph-name="uni2527" unicode="&#x2527;" horiz-adv-x="2048" 
d="M1106 -410h-164v983h-942v82h983v983h82v-1024h41v-1024z" />
    <glyph glyph-name="uni2529" unicode="&#x2529;" horiz-adv-x="2048" 
d="M1106 614h-41v-1024h-82v942h-983v164h942v942h164v-1024z" />
    <glyph glyph-name="uni252A" unicode="&#x252a;" horiz-adv-x="2048" 
d="M1106 -410h-164v942h-942v164h983v942h82v-1024h41v-1024z" />
    <glyph glyph-name="uni252D" unicode="&#x252d;" horiz-adv-x="2048" 
d="M2048 573h-983v-983h-82v942h-983v164h1024v-41h1024v-82z" />
    <glyph glyph-name="uni252E" unicode="&#x252e;" horiz-adv-x="2048" 
d="M2048 532h-983v-942h-82v983h-983v82h1024v41h1024v-164z" />
    <glyph glyph-name="uni2531" unicode="&#x2531;" horiz-adv-x="2048" 
d="M2048 573h-942v-983h-164v942h-942v164h1024v-41h1024v-82z" />
    <glyph glyph-name="uni2532" unicode="&#x2532;" horiz-adv-x="2048" 
d="M2048 532h-942v-942h-164v983h-942v82h1024v41h1024v-164z" />
    <glyph glyph-name="uni2535" unicode="&#x2535;" horiz-adv-x="2048" 
d="M2048 573h-1024v-41h-1024v164h983v942h82v-983h983v-82z" />
    <glyph glyph-name="uni2536" unicode="&#x2536;" horiz-adv-x="2048" 
d="M2048 532h-1024v41h-1024v82h983v983h82v-942h983v-164z" />
    <glyph glyph-name="uni2539" unicode="&#x2539;" horiz-adv-x="2048" 
d="M2048 573h-1024v-41h-1024v164h942v942h164v-983h942v-82z" />
    <glyph glyph-name="uni253A" unicode="&#x253a;" horiz-adv-x="2048" 
d="M2048 532h-1024v41h-1024v82h942v983h164v-942h942v-164z" />
    <glyph glyph-name="uni253D" unicode="&#x253d;" horiz-adv-x="2048" 
d="M2048 573h-983v-983h-82v942h-983v164h983v942h82v-983h983v-82z" />
    <glyph glyph-name="uni253E" unicode="&#x253e;" horiz-adv-x="2048" 
d="M2048 532h-983v-942h-82v983h-983v82h983v983h82v-942h983v-164z" />
    <glyph glyph-name="uni2540" unicode="&#x2540;" horiz-adv-x="2048" 
d="M2048 573h-983v-983h-82v983h-983v82h942v983h164v-983h942v-82z" />
    <glyph glyph-name="uni2541" unicode="&#x2541;" horiz-adv-x="2048" 
d="M2048 573h-942v-983h-164v983h-942v82h983v983h82v-983h983v-82z" />
    <glyph glyph-name="uni2543" unicode="&#x2543;" horiz-adv-x="2048" 
d="M2048 573h-983v-983h-82v942h-983v164h942v942h164v-983h942v-82z" />
    <glyph glyph-name="uni2544" unicode="&#x2544;" horiz-adv-x="2048" 
d="M2048 532h-983v-942h-82v983h-983v82h942v983h164v-942h942v-164z" />
    <glyph glyph-name="uni2545" unicode="&#x2545;" horiz-adv-x="2048" 
d="M2048 573h-942v-983h-164v942h-942v164h983v942h82v-983h983v-82z" />
    <glyph glyph-name="uni2546" unicode="&#x2546;" horiz-adv-x="2048" 
d="M2048 532h-942v-942h-164v983h-942v82h983v983h82v-942h983v-164z" />
    <glyph glyph-name="uni2547" unicode="&#x2547;" horiz-adv-x="2048" 
d="M2048 532h-983v-942h-82v942h-983v164h942v942h164v-942h942v-164z" />
    <glyph glyph-name="uni2548" unicode="&#x2548;" horiz-adv-x="2048" 
d="M2048 532h-942v-942h-164v942h-942v164h983v942h82v-942h983v-164z" />
    <glyph glyph-name="uni2549" unicode="&#x2549;" horiz-adv-x="2048" 
d="M2048 573h-942v-983h-164v942h-942v164h942v942h164v-983h942v-82z" />
    <glyph glyph-name="uni254A" unicode="&#x254a;" horiz-adv-x="2048" 
d="M2048 532h-942v-942h-164v983h-942v82h942v983h164v-942h942v-164z" />
    <glyph glyph-name="uni3395" unicode="&#x3395;" horiz-adv-x="2048" 
d="M1790 1323q4 -4 4 -10t-1.5 -12t-5 -16.5l-5.5 -16.5l-301 -1094q-21 -81 12 -102q27 -13 56.5 -4.5t56.5 32.5q51 45 102 117q23 33 34 23q12 -12 -9 -47q-102 -169 -224 -222q-33 -16 -69.5 -12.5t-61.5 27.5q-20 19 -29.5 42t-8 53.5t5.5 52t14 59.5l266 981
q5 19 -14 30.5t-44.5 15.5t-47 10t-21.5 15q0 20 55 29l164 45q6 1 16.5 3t18 3t15.5 2t13.5 0t8.5 -4zM1161 59q3 -45 -42.5 -72t-98.5 -22q-28 3 -57.5 31.5t-48 56t-19.5 27.5l-41 -30q-41 -30 -102 -60.5t-111 -30.5q-48 0 -90.5 19t-68 36.5t-33.5 16.5q-4 0 -7.5 -4
t-7 -12t-6.5 -17.5t-6 -24.5t-6 -28.5t-6.5 -34t-6 -36.5t-7 -40.5t-7.5 -42.5q-19 -111 -51.5 -166t-79.5 -24q-13 9 -20.5 22t-7 33t1.5 34t10 42.5t13 40t17 45.5q23 63 64.5 153t64.5 152q21 56 45.5 214.5t42.5 223.5q21 78 61 154.5t87.5 119.5t81.5 15
q10 -8 15.5 -19.5t6 -27.5t-0.5 -30t-7.5 -35.5t-11.5 -36.5t-15.5 -39t-16.5 -37.5t-18 -38.5t-16 -35q-172 -371 -170 -420q1 -46 40.5 -74.5t90.5 -33.5q60 -7 119 27.5t101 94.5q34 49 79.5 229t75.5 251q21 48 38 83t40.5 73t46.5 54.5t43 8.5q24 -10 30 -37.5t-6 -71
t-25 -78t-34 -83.5q-7 -16 -10 -23q-10 -25 -30.5 -73.5t-32.5 -77.5t-29 -71t-26.5 -69t-19 -55.5t-12.5 -46.5t-1 -27q8 -43 57 -49q21 -2 56.5 6.5t49.5 5.5q32 -4 35 -35z" />
    <glyph glyph-name="uni3396" unicode="&#x3396;" horiz-adv-x="2048" 
d="M1851 1323q4 -4 4 -10t-1.5 -12t-5 -16.5l-5.5 -16.5l-301 -1094q-21 -81 12 -102q27 -13 56.5 -4.5t56.5 32.5q51 45 102 117q23 33 34 23q12 -12 -9 -47q-102 -170 -223 -222q-33 -16 -69.5 -12.5t-61.5 27.5q-27 25 -34 62.5t-2.5 66t17.5 78.5l267 981q5 19 -14 30.5
t-44.5 15.5t-47 10t-21.5 15q0 20 55 29l164 45q6 1 16.5 3t17.5 3t15 2t13.5 0t8.5 -4zM1374 238q-26 -64 -67.5 -122t-101 -101t-118.5 -44q-68 -1 -89 33t-21 107q0 20 34.5 148t69.5 246l35 118q16 58 -9 99.5t-60 41.5t-69.5 -24.5t-61 -63t-46 -79t-30.5 -77.5
l-150 -497q-12 -39 -60 -45q-43 -6 -62 19q-10 12 -5 30l164 589q17 58 6.5 105t-41.5 47q-61 0 -129 -93t-98 -198l-129 -450q-7 -35 -51 -47q-45 -11 -68 12q-15 15 -8 41l162 590q18 66 14 83q-6 31 -73 40q-23 3 -56 4q-16 -3 -28 10q-17 17 20 29q7 2 16 4l221 51
q56 14 64 -2q8 -15 -4 -54l-41 -151q23 46 42.5 77.5t48.5 66.5t64.5 54t77.5 21q74 4 103.5 -72.5t-0.5 -171.5q17 38 27 59t29 55t37.5 53t44 39.5t57.5 30t69 9.5q47 0 86 -37.5t54.5 -93t0.5 -106.5l-133 -445q-31 -111 6 -113q33 -2 108.5 58.5t112.5 132.5
q10 20 24.5 29.5t19 -0.5t-8.5 -45z" />
    <glyph glyph-name="uni3397" unicode="&#x3397;" horiz-adv-x="2048" 
d="M1769 1323q4 -4 4 -10t-1.5 -12t-5 -16.5l-5.5 -16.5l-301 -1094q-21 -80 13 -102q27 -13 56 -4.5t56 32.5q54 48 103 117q24 35 34.5 22.5t-10.5 -46.5q-102 -170 -223 -222q-33 -16 -69.5 -12.5t-61.5 27.5q-27 25 -34 62.5t-2.5 66t17.5 78.5l267 981q5 19 -14 30.5
t-44.5 15.5t-47 10t-21.5 15q0 20 55 29l164 45q6 1 16.5 3t17.5 3t15 2t13.5 0t8.5 -4zM1253 1323q3 -5 3 -12t-1.5 -11.5l-5 -15t-4.5 -14.5l-295 -1100q-18 -73 8 -90q21 -14 56.5 1t60.5 40q75 75 94 100q13 18 27 12q14 -5 4 -24q-39 -76 -104 -145.5t-115 -88.5
q-65 -25 -117 2q-14 7 -23.5 18.5t-15 21.5t-8.5 28t-4 25.5t-1.5 28.5t-0.5 24q-7 -9 -16.5 -21t-27.5 -31.5t-38 -35t-47 -33.5t-55 -26.5t-62 -13.5t-67 5q-82 20 -135 77.5t-71 133.5t-13 159.5t32 164.5q40 120 128 214t195.5 131t219.5 -3q37 -16 72.5 -59t40.5 -70
l131 465q6 22 -13 35t-45.5 15.5t-50.5 8t-26 14.5q-1 3 1 6t7 5t8.5 3t10 2.5t9.5 2.5l201 49q48 11 53 2zM879 389q17 56 26.5 98.5t14.5 96.5t-2.5 93.5t-32.5 75.5t-68 56q-61 25 -116.5 5.5t-104.5 -75t-84.5 -123.5t-56.5 -139q-16 -53 -25.5 -98t-12.5 -98t5.5 -93.5
t34.5 -76.5t69 -56q51 -26 98 -13t85.5 44.5t72 84.5t57 106.5t40.5 111.5z" />
    <glyph glyph-name="afii61289" unicode="&#x2113;" horiz-adv-x="2048" 
d="M1257 1323q4 -4 4 -10t-1.5 -12t-5 -16.5l-5.5 -16.5l-301 -1094q-21 -80 13 -102q27 -13 56 -4.5t56 32.5q54 48 103 117q24 35 34.5 22.5t-10.5 -46.5q-102 -170 -223 -222q-33 -16 -69.5 -12.5t-61.5 27.5q-27 25 -34 62.5t-2.5 66t17.5 78.5l267 981q5 19 -14 30.5
t-44.5 15.5t-47 10t-21.5 15q0 20 55 29l164 45q6 1 16.5 3t17.5 3t15 2t13.5 0t8.5 -4z" />
    <glyph glyph-name="uni3398" unicode="&#x3398;" horiz-adv-x="2048" 
d="M1686 1323q4 -4 4 -10.5t-2 -12.5t-5.5 -17t-5.5 -17q0 -1 -69 -265t-140 -536.5t-75 -290.5q-17 -84 10 -102q28 -12 57.5 -2t57.5 34q45 40 100 113q21 29 33.5 19.5t-2.5 -39.5q-40 -77 -106.5 -145t-115.5 -81q-94 -28 -139 15q-54 50 -20 199q1 6 2 8q3 17 69 264.5
t129 485t62 237.5q5 24 -13.5 37t-44 15t-47.5 6t-22 13q0 11 12 16.5t43 12.5l164 39q3 1 11 2.5t12 2.5t10.5 2t10 1.5t8 0t7.5 -1.5t5 -3zM1182 702q-21 -21 -50.5 -20t-56.5 25q-9 8 -18 24.5t-17.5 25.5t-23.5 9q-30 1 -57.5 -28.5t-65.5 -91t-62 -91.5
q-57 -73 -106 -119q1 0 13.5 -3.5t18 -5.5t18.5 -7.5t21.5 -12t20 -15.5t20.5 -22.5t17 -29.5q15 -31 17 -79t-3 -86t0.5 -72t28.5 -46q37 -19 92 25q30 25 62.5 68.5t40.5 60.5q12 23 27 17t5 -33q-15 -38 -66 -105.5t-87 -89.5q-113 -66 -189 -20q-17 10 -28.5 26
t-16.5 31t-6 38.5t0 39t3 42.5t3 40q0 10 2.5 42t2.5 44t-2.5 37t-10 38t-22.5 28.5t-37 25.5q-35 16 -79 19t-48 -11l-111 -371q-1 -4 -3.5 -13t-4 -12.5t-4.5 -11.5t-5 -10.5t-7 -8.5t-10 -6.5t-12.5 -4.5t-16.5 -1.5t-21 1.5q-23 3 -35 7.5t-14 14t-1.5 14t5.5 19.5
l322 1134q5 17 -11.5 29.5t-39 18.5t-43 13.5t-21.5 14.5q-1 4 0 7.5t4.5 6t6.5 4.5t8.5 3.5t9.5 2t10 1.5t8 2l170 47q51 12 59 0q3 -7 2 -15t-4.5 -19t-3.5 -13l-223 -780v-10t6 -6t10 -3.5t13 -2t14.5 -0.5t15 0.5t13.5 0.5q49 -1 83 22t79 83q16 21 58.5 83.5t74 101.5
t57.5 54q47 27 106 28.5t93 -34.5q21 -28 22.5 -57t-20.5 -52z" />
    <glyph glyph-name="uni33C4" unicode="&#x33c4;" horiz-adv-x="2048" 
d="M1714 532q-77 -40 -119.5 3.5t-21.5 109.5q4 16 23.5 28.5t39 19.5t21.5 9q20 36 -23 61q-54 31 -136 13q-120 -28 -186 -150l-20 -42q-3 -8 -10 -25q-25 -61 -37 -96t-23 -94.5t-8 -114.5q5 -82 32.5 -133t67.5 -66.5t89 -11t96 28t88.5 57t67.5 70.5q12 17 25.5 27.5
t23.5 11t15.5 -5.5t1.5 -24t-19 -42q-17 -28 -50 -61.5t-79.5 -68t-103.5 -55t-115.5 -25.5t-122 23t-117.5 89q-48 54 -63 132t-2 155t36 141.5t50 107.5q58 91 169 166.5t224 75.5q76 0 132.5 -26.5t82.5 -66.5t33.5 -83.5t-10 -81.5t-52.5 -56zM936 532
q-77 -40 -119.5 3.5t-21.5 109.5q4 16 23.5 28.5t39 19.5t21.5 9q20 36 -23 61q-54 31 -136 13q-120 -28 -186 -150q-11 -20 -20 -42q-3 -8 -10 -25q-25 -61 -37 -96t-23 -94.5t-8 -114.5q5 -82 32.5 -133t67.5 -66.5t89 -11t96 28t88.5 57t67.5 70.5q12 17 25.5 27.5
t23.5 11t15.5 -5.5t1.5 -24t-19 -42q-17 -28 -50 -61.5t-79.5 -68t-103.5 -55t-115.5 -25.5t-122 23t-117.5 89q-48 54 -63 132t-2 155t35.5 141.5t49.5 107.5q58 91 169.5 166.5t224.5 75.5q76 0 132.5 -26.5t82.5 -66.5t33.5 -83.5t-10 -81.5t-52.5 -56z" />
    <glyph glyph-name="uni33A3" unicode="&#x33a3;" horiz-adv-x="2048" 
d="M2048 1030q0 -29 -11.5 -52.5t-24 -36.5t-36.5 -25t-31.5 -14.5t-27.5 -8.5q42 -6 68 -35t26 -72q0 -77 -57.5 -124.5t-136.5 -47.5q-62 0 -102 29t-40 90q0 53 37 59q29 4 49 -20q25 -29 -10 -59l-14 -11q-15 -8 -7 -27q15 -29 76 -30q58 0 92.5 40t34.5 114
q0 11 -1.5 21t-6 23.5t-13.5 21t-24 13t-37 -0.5q-34 -8 -39 12q-4 15 11 22q5 2 10 2q7 0 21 -2t22 -2q40 0 70 41t30 84t-27 64.5t-62.5 17t-61.5 -28.5q-5 -9 -2 -15.5t12 -17t10 -12.5q14 -33 -16 -51q-28 -16 -51 2q-17 15 -17 43q0 43 42 76t106 33q40 0 69.5 -13
t43.5 -33t20 -37.5t6 -31.5zM856 186q-1 -2 -7.5 -18.5t-11 -26.5t-13.5 -29.5t-17 -33t-19.5 -31.5t-23.5 -30t-26 -23.5t-30 -17t-32 -5.5q-63 0 -85.5 54t-0.5 145l108 453q15 69 1 101.5t-44 27.5q-33 -6 -77.5 -80.5t-61.5 -151.5l-104 -471q-8 -37 -56 -47
q-43 -8 -62 13q-7 8 -5 20l137 581q11 40 3 89t-32 49q-48 0 -92.5 -80.5t-71.5 -196.5l-102 -436q-9 -37 -56 -41q-40 -3 -57 18q-6 9 -4 19l133 586q9 39 9.5 63t-9.5 37t-24 18.5t-41 8.5q-24 3 -32 8t-1.5 11t14 10t15.5 7q156 58 209 68q9 6 20.5 1.5t5.5 -30.5
l-20 -88q17 39 35 63.5t37.5 36t30.5 15t32 6.5q42 7 83.5 -43t27.5 -131q53 175 172 170q67 -3 91 -71.5t3 -161.5l-105 -445q-26 -111 0 -113q22 -1 56.5 45t60.5 95q14 27 30.5 36.5t19.5 -4t-11 -49.5zM1696 186q-1 -2 -7.5 -18.5t-11 -26.5t-13.5 -29.5t-17 -33
t-19.5 -31.5t-23.5 -30t-26 -23.5t-30 -17t-32 -5.5q-63 0 -85.5 54t-0.5 145l108 453q15 69 1 101.5t-44 27.5q-33 -6 -77.5 -80.5t-61.5 -151.5l-105 -471q-8 -37 -56 -47q-43 -8 -62 13q-7 8 -5 20l138 581q11 40 3 89t-32 49q-48 0 -92.5 -80.5t-71.5 -196.5l-102 -436
q-8 -38 -55 -42q-40 -3 -57 18q-8 9 -5 20l133 586q16 71 1 96t-66 31q-24 3 -32 8t-1.5 11t14 10t15.5 7q155 58 208 68q9 6 21 1.5t6 -30.5l-20 -88q17 39 35 63.5t37.5 36t30.5 15t32 6.5q42 7 83 -43t27 -131q53 175 172 170q67 -3 91.5 -71.5t3.5 -161.5l-105 -445
q-26 -111 0 -113q22 -1 56.5 45t60.5 95q14 27 30.5 36.5t19.5 -4t-11 -49.5z" />
    <glyph glyph-name="uni33A4" unicode="&#x33a4;" horiz-adv-x="2048" 
d="M2028 1030q0 -21 -6.5 -39.5t-13.5 -30.5t-22.5 -24t-23 -17t-27 -12.5t-21 -8t-18.5 -5.5q42 -6 68.5 -35t26.5 -72q0 -77 -58 -124.5t-137 -47.5q-62 0 -101.5 29t-39.5 90q0 53 37 59q30 4 49 -20q24 -30 -12 -61q-6 -4 -13 -9q-15 -8 -6 -27q14 -29 76 -30
q58 0 92.5 40t34.5 114q0 11 -1.5 21t-6 23.5t-13.5 21t-24 13t-37 -0.5q-34 -8 -40 12q-4 15 11 22q5 2 10 2q7 0 21 -2t22 -2q41 0 71 41t30 84t-27.5 64.5t-63 17t-61.5 -28.5q-5 -9 -2 -15.5t12.5 -17t10.5 -12.5q14 -33 -16 -51q-28 -16 -51 2q-17 15 -17 43
q0 43 42 76t105 33q33 0 58.5 -9t40.5 -22.5t24.5 -30t13 -29.5t3.5 -24zM737 532q-77 -40 -119.5 3.5t-21.5 109.5q4 16 23.5 28.5t39 19.5t21.5 9q20 35 -27 60q-58 32 -146 14q-129 -25 -198 -144q-14 -23 -24 -48q-3 -8 -10 -25q-25 -61 -37 -96t-23 -94.5t-8 -114.5
q5 -82 35 -133t73.5 -67t96.5 -11.5t103 27.5t92.5 56.5t66.5 70.5q28 42 52 43q21 0 12 -36q-4 -18 -17 -42q-13 -25 -45 -57t-77.5 -66t-103 -55t-116.5 -26.5t-123.5 22t-118.5 88.5q-48 54 -63 132t-2 155t36 141.5t50 107.5q58 91 169 166.5t224 75.5q76 0 132.5 -26.5
t82.5 -66.5t33.5 -83.5t-10 -81.5t-52.5 -56zM1626 186q-1 -2 -7.5 -18.5t-11 -26.5t-13.5 -29.5t-17 -33t-19.5 -31.5t-23.5 -30t-26 -23.5t-30 -17t-32 -5.5q-63 0 -85.5 54t-0.5 145l108 453q15 69 1 101.5t-44 27.5q-33 -6 -77.5 -80.5t-61.5 -151.5l-104 -471
q-8 -37 -56 -47q-43 -8 -62 13q-7 8 -5 20l137 581q11 40 3 89t-32 49q-48 0 -92 -80.5t-71 -196.5l-103 -436q-6 -26 -48 -39q-47 -15 -64 7q-9 11 -5 28l134 586q16 70 0.5 95.5t-66.5 31.5q-24 3 -32 8t-1.5 11t14 10t15.5 7q156 58 209 68q9 6 20.5 1.5t5.5 -30.5
l-20 -88q17 39 35 63.5t37.5 36t30.5 15t32 6.5q42 7 83.5 -43t27.5 -131q53 175 172 170q67 -3 91 -71.5t3 -161.5l-105 -445q-26 -111 0 -113q22 -1 56.5 45t60.5 95q14 27 30.5 36.5t19.5 -4t-11 -49.5z" />
    <glyph glyph-name="uni33A5" unicode="&#x33a5;" horiz-adv-x="2048" 
d="M1987 1030q0 -21 -6.5 -39.5t-13.5 -30.5t-22.5 -24t-23 -17t-27 -12.5t-21 -8t-18.5 -5.5q42 -6 68.5 -35t26.5 -72q0 -77 -58 -124.5t-137 -47.5q-62 0 -101.5 29t-39.5 90q0 53 37 59q30 4 49 -20q24 -30 -12 -61q-6 -4 -13 -9q-15 -8 -6 -27q14 -29 76 -30
q58 0 92.5 40t34.5 114q0 11 -1.5 21t-6 23.5t-13.5 21t-24 13t-37 -0.5q-34 -8 -39 12q-4 15 11 22q5 2 10 2q7 0 21 -2t22 -2q40 0 70 41t30 84t-27.5 64.5t-63 17t-61.5 -28.5q-5 -9 -2 -15.5t12.5 -17t10.5 -12.5q14 -33 -16 -51q-28 -16 -51 2q-17 15 -17 43
q0 43 42 76t105 33q33 0 58.5 -9t40.5 -22.5t24.5 -30t13 -29.5t3.5 -24zM1571 221q-11 -24 -24.5 -50t-38.5 -63.5t-51 -66t-61.5 -49t-70.5 -19.5q-67 2 -93 49.5t-1 137.5l129 463q18 61 -16.5 101t-90.5 40q-63 0 -130.5 -83t-88.5 -161l-131 -483q-1 -2 -3.5 -14
t-4.5 -16.5t-8 -13.5t-14.5 -13t-23 -7t-34.5 -2q-10 1 -18 2.5t-13 4.5t-9 5.5t-5 8t-2 8t0.5 10t2 9.5t3 10.5t2.5 9.5l154 577q16 61 -11.5 106.5t-89.5 45.5q-59 0 -146 -100t-112 -191l-118 -428q0 -1 -5 -18t-10.5 -26.5t-26 -19t-51.5 -8.5q-16 0 -26 4.5t-14.5 8.5
t-5 13.5t0.5 14.5t4.5 17.5t4.5 15.5l149 572q24 69 1.5 102.5t-116.5 40.5q-25 2 -31 11t4.5 18t28.5 12l256 49q24 4 30.5 -9.5t1.5 -29.5l-5 -16l-51 -191q52 96 122.5 166t149.5 78q40 4 73.5 -8.5t55 -36.5t35.5 -56.5t14 -68.5t-8 -72q4 7 21.5 38.5t23 40.5l22 36
t26 36.5t27 29.5t32.5 28t35 18.5t42.5 14.5t47.5 4q64 0 110.5 -37t63 -92t0.5 -108l-129 -453q-29 -103 4 -105q39 -4 95.5 59.5t80.5 113.5q8 16 16 23.5t13 5.5t8 -8t2.5 -16t-4.5 -20z" />
    <glyph glyph-name="uni33A6" unicode="&#x33a6;" horiz-adv-x="2048" 
d="M2028 1030q0 -21 -6.5 -39.5t-13.5 -30.5t-22.5 -24t-23 -17t-27 -12.5t-21 -8t-18.5 -5.5q42 -6 68.5 -35t26.5 -72q0 -77 -58 -124.5t-137 -47.5q-62 0 -101.5 29t-39.5 90q0 53 37 59q30 4 49 -20q24 -30 -12 -61q-6 -4 -13 -9q-15 -8 -6 -27q14 -29 76 -30
q58 0 92.5 40t34.5 114q0 11 -1.5 21t-6 23.5t-13.5 21t-24 13t-37 -0.5q-34 -8 -40 12q-4 15 11 22q5 2 10 2q7 0 21 -2t22 -2q41 0 71 41t30 84t-27.5 64.5t-63 17t-61.5 -28.5q-5 -9 -2 -15.5t12.5 -17t10.5 -12.5q14 -33 -16 -51q-28 -16 -51 2q-17 15 -17 43
q0 43 41.5 76t105.5 33q33 0 58.5 -9t40.5 -22.5t24.5 -30t13 -29.5t3.5 -24zM793 702q-43 -40 -88 5q-7 8 -15 24.5t-15.5 25.5t-19.5 9q-26 1 -49 -28.5t-55.5 -91t-52.5 -91.5q-18 -28 -42.5 -58t-37 -44.5t-10.5 -16.5q-1 -1 3 -3t11 -5t16.5 -7.5t20 -12t21 -16.5
t20 -22.5t16.5 -29.5q20 -54 15 -108t-3 -106.5t25 -68.5q14 -6 27 -7.5t28.5 9t27.5 21.5t26 29t23 31.5t18.5 29.5t13.5 23t6 12q16 32 24.5 23.5t0.5 -33.5q-14 -37 -58 -105.5t-74 -89.5q-95 -66 -159 -20q-17 12 -27.5 29t-13.5 45t-3.5 42t2.5 54t3 47q0 9 2 36.5
t2 38t-0.5 32.5t-4.5 33.5t-10.5 27.5t-18.5 27t-28 20q-28 15 -67 17t-41 -9l-107 -383q-8 -29 -24 -40.5t-53 -10.5q-17 1 -26.5 5t-11 12.5t-1 15t4.5 19t5 17.5l266 1131q4 17 -14.5 27.5t-43 13t-45.5 7t-22 11.5q-1 4 1 8t7 7t9.5 5.5t12 5t11.5 4t11 3.5t8 2l166 41
q2 0 8 1.5t8.5 2t7.5 1t7.5 0.5t5.5 -0.5t5 -2t3 -4.5q3 -7 2 -15t-4 -19t-3 -13l-182 -778q-1 -7 4 -11.5t16.5 -6.5t20.5 -2.5t21 -0.5q41 -1 69.5 22t67.5 83q15 23 50.5 84.5t62.5 100.5t49 54q40 27 86.5 28.5t81.5 -30.5q25 -27 25.5 -58t-25.5 -55zM1657 186
q-1 -2 -7.5 -18.5t-11 -26.5t-13.5 -29.5t-17 -33t-19.5 -31.5t-23.5 -30t-26 -23.5t-30 -17t-32 -5.5q-63 0 -85.5 54t-0.5 145l108 453q15 69 1 101.5t-44 27.5q-33 -6 -77.5 -80.5t-61.5 -151.5l-105 -471q-8 -38 -57 -47q-42 -7 -60 13q-8 8 -5 20l137 581q11 40 3 89
t-32 49q-48 0 -92.5 -80.5t-71.5 -196.5l-102 -436q-6 -26 -48 -39q-47 -15 -64 7q-9 11 -5 28l133 586q16 70 1 95.5t-66 31.5q-24 3 -32 8t-1.5 11t14 10t15.5 7q155 58 208 68q9 6 21 1.5t6 -30.5l-20 -88q17 39 35 63.5t37.5 36t30.5 15t32 6.5q42 7 83 -43t27 -131
q53 175 172 170q67 -3 91.5 -71.5t3.5 -161.5l-105 -445q-26 -111 0 -113q22 -1 56.5 45t60.5 95q14 27 30.5 36.5t19.5 -4t-11 -49.5z" />
    <glyph glyph-name="uni3399" unicode="&#x3399;" horiz-adv-x="2048" 
d="M1739 186q-1 -2 -7.5 -18.5t-11 -26.5t-13.5 -29.5t-17 -33t-19.5 -31.5t-23.5 -30t-26 -23.5t-30 -17t-32 -5.5q-63 0 -85.5 54t-0.5 145l108 453q15 69 1 101.5t-44 27.5q-33 -6 -77.5 -80.5t-61.5 -151.5l-105 -471q-8 -37 -56 -47q-43 -8 -62 13q-7 8 -5 20l138 581
q11 40 3 89t-32 49q-48 0 -92.5 -80.5t-71.5 -196.5l-102 -436q-6 -26 -48 -39q-47 -15 -64 7q-9 11 -5 28l133 586q16 72 1 96.5t-66 30.5q-24 3 -32 8t-1.5 11t14 10t15.5 7q155 58 208 68q9 6 21 1.5t6 -30.5l-20 -88q17 39 35 63.5t37.5 36t30.5 15t32 6.5q42 7 83 -43
t27 -131q53 175 172 170q67 -3 91.5 -71.5t3.5 -161.5l-105 -445q-26 -111 0 -113q22 -1 56.5 45t60.5 95q14 27 30.5 36.5t19.5 -4t-11 -49.5zM1022 1182q0 -66 -44 -89t-88 -2t-44 62q0 14 17.5 40.5t8.5 43.5q-19 41 -65 35q-35 -5 -66.5 -41t-52 -78t-43 -115
t-33 -116.5t-26.5 -116.5h231q22 2 29 -20q9 -25 -18 -38q-13 -6 -31 -6h-219l-152 -694q-7 -32 -49 -45q-43 -13 -63 9q-12 13 -7 36l150 694h-183q-19 0 -27 14.5t1 30.5t33 19h188q16 71 27 113.5t30 104.5t37 99.5t46 80.5t59.5 66.5t74 39.5t93.5 16q72 0 129 -36.5
t57 -106.5z" />
    <glyph glyph-name="uni339A" unicode="&#x339a;" horiz-adv-x="2048" 
d="M1821 186q0 -1 -7 -18.5t-11.5 -26.5t-13.5 -29.5t-17.5 -33.5t-20 -31t-23.5 -30t-26 -23.5t-30 -17t-32 -5.5q-63 0 -85.5 54t-0.5 145l109 453q15 69 1 101.5t-44 27.5q-33 -6 -77.5 -80.5t-61.5 -151.5l-105 -471q-8 -37 -56 -47q-43 -8 -62 13q-7 8 -5 20l138 581
q11 40 3 89t-32 49q-48 0 -92.5 -80.5t-71.5 -196.5l-102 -436q-6 -26 -48 -39q-47 -15 -64 7q-9 11 -5 28l133 586q16 71 1 96t-66 31q-24 3 -32 8t-2 11t13.5 10t15.5 7q156 58 209 68q9 6 21 1.5t6 -30.5l-21 -88q17 39 35 63.5t38 36t31 15t32 6.5q42 7 83 -43t27 -131
q53 175 172 170q67 -3 91 -71.5t3 -161.5l-104 -445q-26 -111 0 -113q22 -1 56.5 45t60.5 95q14 27 30.5 36.5t19.5 -4t-11 -49.5zM920 221q-96 -248 -220 -248q-58 0 -81.5 46t-6.5 120l131 559q10 44 -34 56q-53 15 -119 -24q-25 -14 -45 -34q-38 -36 -79 -96.5t-48 -93.5
l-101 -461q-8 -38 -52 -45q-39 -6 -58 16q-9 11 -6 25l133 641q5 22 5.5 29.5t-8 17.5t-32 11.5t-68.5 0.5q-19 -1 -27 6.5t-2 17.5t23 15l232 68q25 10 32.5 -2.5t2.5 -30.5l-5 -18l-45 -185q17 32 43.5 69t63 76.5t81.5 68t87 32.5q77 7 115.5 -46.5t19.5 -131.5
l-131 -539q-21 -82 22 -82q16 0 33.5 14.5t39 48t30.5 49t30 56.5q5 9 7 13q4 18 24 25t20 -14q0 -12 -7 -30z" />
    <glyph glyph-name="uni339B" unicode="&#x339b;" horiz-adv-x="2048" 
d="M1919 186q-1 -2 -7.5 -18.5t-11 -26.5t-13.5 -29.5t-17 -33t-19.5 -31.5t-23.5 -30t-26 -23.5t-30 -17t-32 -5.5q-63 0 -85.5 54t-0.5 145l108 453q15 69 1 101.5t-44 27.5q-33 -6 -77.5 -80.5t-61.5 -151.5l-104 -471q-8 -37 -56 -47q-43 -8 -62 13q-7 8 -5 20l137 581
q11 40 3 89t-32 49q-48 0 -92.5 -80.5t-71.5 -196.5l-102 -436q-6 -26 -48 -39q-47 -15 -64 7q-9 11 -5 28l133 586q14 68 -1 94.5t-64 32.5q-24 3 -32 8t-1.5 11t14 10t15.5 7q156 58 209 68q9 6 20.5 1.5t5.5 -30.5l-20 -88q17 39 35 63.5t37.5 36t30.5 15t32 6.5
q42 7 83.5 -43t27.5 -131q53 175 172 170q67 -3 91 -71.5t3 -161.5l-105 -445q-26 -111 0 -113q22 -1 56.5 45t60.5 95q14 27 30.5 36.5t19.5 -4t-11 -49.5zM1022 61q3 -45 -42.5 -72t-98.5 -22q-28 3 -57.5 31.5t-48 56t-19.5 27.5l-41 -30q-41 -30 -102 -60.5t-111 -30.5
q-48 0 -91 19t-68.5 36.5t-33.5 16.5q-5 0 -9.5 -6.5t-8.5 -20t-7.5 -27.5t-8 -38t-7.5 -43t-8.5 -51t-9.5 -54q-19 -111 -51.5 -166t-79.5 -24q-13 9 -20.5 22t-7 33t1.5 34t10 42.5t13 40t17 45.5q23 63 64.5 153t64.5 152q21 56 45.5 214.5t42.5 223.5q21 78 61 154.5
t87.5 119.5t81.5 15q10 -8 15.5 -19.5t6 -27.5t-0.5 -30t-7.5 -35.5t-11.5 -36.5t-15.5 -39t-16.5 -37.5t-18 -38.5t-16 -35q-172 -371 -170 -420q1 -46 40.5 -74.5t90.5 -33.5q60 -7 118.5 27.5t100.5 94.5q27 39 51 122t51 188t54 170q21 48 38 83t40.5 73t46.5 54.5
t43 8.5q24 -10 30 -37.5t-6 -71t-25 -78t-34 -83.5q-7 -16 -10 -23q-10 -24 -42 -101t-46 -111t-33.5 -87t-26.5 -81t-4 -40q8 -43 58 -49q21 -2 56.5 6.5t49.5 5.5q32 -4 35 -35z" />
    <glyph glyph-name="uni339C" unicode="&#x339c;" horiz-adv-x="2048" 
d="M1913 186q-1 -2 -7.5 -18.5t-11 -26.5t-13.5 -29.5t-17 -33t-19.5 -31.5t-23.5 -30t-26 -23.5t-30 -17t-32 -5.5q-63 0 -85.5 54t-0.5 145l108 453q15 69 1 101.5t-44 27.5q-33 -6 -77.5 -80.5t-61.5 -151.5l-105 -471q-8 -38 -57 -47q-42 -7 -60 13q-8 8 -5 20l137 581
q11 40 3 89t-32 49q-48 0 -92.5 -80.5t-71.5 -196.5l-102 -436q-6 -26 -48 -39q-47 -15 -64 7q-9 11 -5 28l133 586q16 71 1 96t-66 31q-24 3 -32 8t-1.5 11t14 10t15.5 7q155 58 208 68q9 6 21 1.5t6 -30.5l-20 -88q17 39 35 63.5t37.5 36t30.5 15t32 6.5q42 7 83 -43
t27 -131q53 175 172 170q67 -3 91.5 -71.5t3.5 -161.5l-105 -445q-26 -111 0 -113q22 -1 56.5 45t60.5 95q14 27 30.5 36.5t19.5 -4t-11 -49.5zM979 186q-1 -2 -7.5 -18.5t-11 -26.5t-13.5 -29.5t-17 -33t-19.5 -31.5t-23.5 -30t-26 -23.5t-30 -17t-32 -5.5q-63 0 -85.5 54
t-0.5 145l108 453q15 69 1 101.5t-44 27.5q-33 -6 -77.5 -80.5t-61.5 -151.5l-104 -471q-8 -37 -56 -47q-43 -8 -62 13q-7 8 -5 20l137 581q11 40 3 89t-32 49q-48 0 -92.5 -80.5t-71.5 -196.5l-102 -436q-6 -26 -48 -39q-47 -15 -64 7q-9 11 -5 28l133 586q9 39 9.5 63
t-9.5 37t-24 18.5t-41 8.5q-24 3 -32 8t-1.5 11t14 10t15.5 7q156 58 209 68q9 6 20.5 1.5t5.5 -30.5l-20 -88q17 39 35 63.5t37.5 36t30.5 15t32 6.5q42 7 83.5 -43t27.5 -131q53 175 172 170q67 -3 91 -71.5t3 -161.5l-105 -445q-26 -111 0 -113q22 -1 56.5 45t60.5 95
q14 27 30.5 36.5t19.5 -4t-11 -49.5z" />
    </font>
</defs>
</svg>
